<?xml version="1.0" standalone="no"?><svg xmlns="http://www.w3.org/2000/svg" viewBox="0 0 1440 320"><path fill="#03b903" fill-opacity="1" d="M0,288L30,261.3C60,235,120,181,180,149.3C240,117,300,107,360,138.7C420,171,480,245,540,250.7C600,256,660,192,720,165.3C780,139,840,149,900,181.3C960,213,1020,267,1080,282.7C1140,299,1200,277,1260,261.3C1320,245,1380,235,1410,229.3L1440,224L1440,320L1410,320C1380,320,1320,320,1260,320C1200,320,1140,320,1080,320C1020,320,960,320,900,320C840,320,780,320,720,320C660,320,600,320,540,320C480,320,420,320,360,320C300,320,240,320,180,320C120,320,60,320,30,320L0,320Z"></path></svg>