<svg width="406" height="192" viewBox="0 0 406 192" fill="none" xmlns="http://www.w3.org/2000/svg">
<path d="M75.264 104.136C75.264 106.184 75.136 108.317 74.88 110.536H25.344C25.6853 114.973 27.0933 118.387 29.568 120.776C32.128 123.08 35.2427 124.232 38.912 124.232C44.3733 124.232 48.1707 121.928 50.304 117.32H73.6C72.4053 122.013 70.2293 126.237 67.072 129.992C64 133.747 60.1173 136.691 55.424 138.824C50.7307 140.957 45.4827 142.024 39.68 142.024C32.6827 142.024 26.4533 140.531 20.992 137.544C15.5307 134.557 11.264 130.291 8.192 124.744C5.12 119.197 3.584 112.712 3.584 105.288C3.584 97.864 5.07733 91.3787 8.064 85.832C11.136 80.2853 15.4027 76.0187 20.864 73.032C26.3253 70.0453 32.5973 68.552 39.68 68.552C46.592 68.552 52.736 70.0027 58.112 72.904C63.488 75.8053 67.6693 79.944 70.656 85.32C73.728 90.696 75.264 96.968 75.264 104.136ZM52.864 98.376C52.864 94.6213 51.584 91.6347 49.024 89.416C46.464 87.1973 43.264 86.088 39.424 86.088C35.7547 86.088 32.64 87.1547 30.08 89.288C27.6053 91.4213 26.0693 94.4507 25.472 98.376H52.864ZM249.711 94.92C254.916 96.0293 259.098 98.632 262.255 102.728C265.412 106.739 266.991 111.347 266.991 116.552C266.991 124.061 264.346 130.035 259.055 134.472C253.85 138.824 246.554 141 237.167 141H195.311V51.144H235.759C244.89 51.144 252.015 53.2347 257.135 57.416C262.34 61.5973 264.943 67.272 264.943 74.44C264.943 79.7307 263.535 84.1253 260.719 87.624C257.988 91.1227 254.319 93.5547 249.711 94.92ZM217.199 87.496H231.535C235.119 87.496 237.85 86.728 239.727 85.192C241.69 83.5707 242.671 81.224 242.671 78.152C242.671 75.08 241.69 72.7333 239.727 71.112C237.85 69.4907 235.119 68.68 231.535 68.68H217.199V87.496ZM233.327 123.336C236.996 123.336 239.812 122.525 241.775 120.904C243.823 119.197 244.847 116.765 244.847 113.608C244.847 110.451 243.78 107.976 241.647 106.184C239.599 104.392 236.74 103.496 233.071 103.496H217.199V123.336H233.327ZM301.574 51.144V141H279.686V51.144H301.574ZM397.82 141H375.932L339.324 85.576V141H317.436V51.144H339.324L375.932 106.824V51.144H397.82V141Z" fill="#03B903"/>
</svg>
