<svg width="162" height="168" viewBox="0 0 162 168" fill="none" xmlns="http://www.w3.org/2000/svg">
<ellipse cx="81" cy="84" rx="81" ry="84" fill="#3C37FF" fill-opacity="0.9"/>
<path d="M43.25 98.25H67.75C67.9167 102.708 69.0417 106.021 71.125 108.188C73.2083 110.354 76.3333 111.438 80.5 111.438C84.125 111.438 86.8958 110.542 88.8125 108.75C90.7708 106.958 91.75 104.354 91.75 100.938C91.75 97.4792 90.6042 94.9792 88.3125 93.4375C86.0208 91.8542 82.2917 91.0625 77.125 91.0625H74.9375V75.625H76.75C81.5417 75.625 85.125 74.8542 87.5 73.3125C89.9167 71.7708 91.125 69.4583 91.125 66.375C91.125 63.6667 90.2708 61.6042 88.5625 60.1875C86.8542 58.7708 84.375 58.0625 81.125 58.0625C77.4583 58.0625 74.6667 58.8958 72.75 60.5625C70.8333 62.1875 69.7708 64.6458 69.5625 67.9375H45.4375C45.6042 58.8125 48.9792 51.5 55.5625 46C62.1875 40.4583 70.9167 37.6875 81.75 37.6875C92.125 37.6875 100.417 40.0833 106.625 44.875C112.833 49.625 115.938 55.9375 115.938 63.8125C115.938 67.8542 115.104 71.3542 113.438 74.3125C111.812 77.2292 109.354 79.5833 106.062 81.375C110.188 82.9583 113.25 85.4167 115.25 88.75C117.25 92.0417 118.25 96.2708 118.25 101.438C118.25 111.188 114.854 118.812 108.062 124.312C101.271 129.812 91.8125 132.562 79.6875 132.562C68.5208 132.562 59.6458 129.646 53.0625 123.812C46.5208 117.938 43.25 110.021 43.25 100.062V98.25Z" fill="white"/>
</svg>
