<svg width="162" height="168" viewBox="0 0 162 168" fill="none" xmlns="http://www.w3.org/2000/svg">
<ellipse cx="81" cy="84" rx="81" ry="84" fill="#3C37FF" fill-opacity="0.9"/>
<path d="M42.4375 130C42.4375 129.75 42.4167 129.396 42.375 128.938C42.3333 128.438 42.3125 128.062 42.3125 127.812C42.3125 121.438 44.2708 115.417 48.1875 109.75C52.1042 104.042 58.4375 98.125 67.1875 92C69.4792 90.3333 72.6667 88.2083 76.75 85.625C86.5 79.375 91.375 73.9375 91.375 69.3125C91.375 65.7708 90.3958 63 88.4375 61C86.5208 58.9583 83.875 57.9375 80.5 57.9375C76.2917 57.9375 73.1458 59.2917 71.0625 62C68.9792 64.6667 67.9375 68.7292 67.9375 74.1875V75.75H44.125C44.125 75.4167 44.1042 74.9792 44.0625 74.4375C44.0208 73.8542 44 73.4375 44 73.1875C44 62.1042 47.3542 53.4167 54.0625 47.125C60.8125 40.8333 70.0833 37.6875 81.875 37.6875C92.6667 37.6875 101.292 40.3542 107.75 45.6875C114.208 50.9792 117.438 58 117.438 66.75C117.438 72.5 116.188 77.2917 113.688 81.125C111.188 84.9583 106.083 89.2083 98.375 93.875C97.4583 94.4583 95.9792 95.3542 93.9375 96.5625C86.5625 100.896 80.9167 104.708 77 108H117.188V130H42.4375Z" fill="white"/>
</svg>
