<svg width="345" height="224" viewBox="0 0 345 224" fill="none" xmlns="http://www.w3.org/2000/svg"><g id="Group"><g id="Card"><g id="Group_2"><g id="Group_3"><path id="Vector" opacity="0.1" d="M306.861 172.543L180.716 332.672C171.808 343.985 157.2 348.162 144.228 344.309C140.2 343.097 136.307 341.134 132.771 338.366L44.6954 268.986C29.9056 257.306 27.3458 235.841 39.0015 221.041L165.181 60.8972C171.931 52.3325 181.96 47.871 192.116 47.8969C199.485 47.9085 206.891 50.2972 213.116 55.2281L301.177 124.573C316.001 136.239 318.561 157.704 306.861 172.543Z" fill="black"></path><path id="Vector_2" d="M306.861 160.848L180.716 320.977C171.808 332.29 157.2 336.467 144.228 332.613C140.2 331.402 136.307 329.439 132.771 326.671L44.6954 257.291C29.9056 245.61 27.3458 224.145 39.0015 209.346L165.181 49.2017C171.931 40.637 181.96 36.1756 192.116 36.2015C199.485 36.213 206.891 38.6018 213.116 43.5326L301.177 112.878C316.001 124.543 318.561 146.008 306.861 160.848Z" fill="#9342F6"></path><path id="Vector_3" opacity="0.5" d="M240.256 194.121L230.324 187.435L144.933 314.273L154.865 320.959L240.256 194.121Z" fill="white"></path><path id="Vector_4" opacity="0.5" d="M251.807 154.164L240.118 171.344L234.233 167.387C228.306 163.387 226.74 155.348 230.715 149.413L238.403 137.991L250.266 146.049C252.921 147.877 253.609 151.5 251.807 154.164Z" fill="white"></path><path id="Vector_5" opacity="0.5" d="M251.75 143.839L239.888 135.781L248.382 123.192C252.356 117.257 260.42 115.699 266.355 119.673L272.468 123.79L259.865 142.299C258.054 144.987 254.431 145.676 251.75 143.839Z" fill="white"></path><path id="Vector_6" opacity="0.5" d="M262.12 154.132L274.05 162.24L266.478 173.477C262.504 179.412 254.457 181.003 248.53 177.004L242.324 172.828L254.005 155.673C255.807 153.009 259.431 152.321 262.12 154.132Z" fill="white"></path><path id="Vector_7" opacity="0.5" d="M284.143 147.259L275.532 160.034L263.602 151.925C260.947 150.097 260.258 146.474 262.061 143.81L274.664 125.302L280.616 129.31C286.551 133.284 288.117 141.323 284.143 147.259Z" fill="white"></path><path id="Vector_8" opacity="0.1" d="M250.463 131.311L175.199 313.575C169.885 326.45 157.388 334.184 144.298 334.012C140.23 333.945 136.089 333.142 132.069 331.497L31.8196 290.102C14.9776 283.123 6.94396 263.817 13.8973 246.972L89.1901 64.6856C93.2181 54.9364 101.379 48.1432 110.84 45.4935C117.702 43.5644 125.225 43.838 132.318 46.789L232.544 88.155C249.414 95.1112 257.448 114.418 250.463 131.311Z" fill="black"></path></g><path id="Vector_9" d="M248.644 112.402L172.749 301.594C168.684 311.741 160.29 318.872 150.567 321.686C146.362 321.659 142.073 320.873 137.9 319.214L33.8397 277.473C16.3572 270.434 7.85095 250.561 14.8625 233.076L90.7866 43.8599C94.8484 33.74 103.213 26.6326 112.965 23.7947C117.171 23.8218 121.46 24.608 125.633 26.267L229.669 67.979C247.178 75.0198 255.684 94.8928 248.644 112.402Z" fill="#EF9837"></path></g><path id="Vector_10" opacity="0.5" d="M96.348 113.557L85.2129 109.157L29.016 251.359L40.1511 255.76L96.348 113.557Z" fill="white"></path><path id="Vector_11" opacity="0.2" d="M56.1013 262.108L44.9765 257.649L127.605 49.7069L138.73 54.1662L56.1013 262.108Z" fill="white"></path><path id="Vector_12" opacity="0.5" d="M193.278 152.424L182.143 148.023L125.946 290.226L137.081 294.626L193.278 152.424Z" fill="white"></path><path id="Vector_13" opacity="0.5" d="M195.989 110.916L188.257 130.204L181.661 127.601C175.014 124.965 171.76 117.45 174.369 110.8L179.429 97.9942L192.743 103.32C195.729 104.536 197.179 107.928 195.989 110.916Z" fill="white"></path><path id="Vector_14" opacity="0.5" d="M193.718 100.846L180.403 95.5199L185.999 81.4017C188.608 74.7522 196.15 71.5012 202.8 74.1098L209.653 76.8197L201.314 97.6004C200.121 100.615 196.73 102.065 193.718 100.846Z" fill="white"></path><path id="Vector_15" opacity="0.5" d="M206.056 108.672L219.447 114.033L214.463 126.632C211.854 133.282 204.335 136.562 197.688 133.927L190.731 131.18L198.46 111.918C199.65 108.93 203.041 107.48 206.056 108.672Z" fill="white"></path><path id="Vector_16" opacity="0.5" d="M226.094 97.2365L220.423 111.562L207.032 106.201C204.047 104.985 202.597 101.593 203.786 98.6053L212.126 77.8246L218.799 80.4625C225.449 83.0711 228.703 90.587 226.094 97.2365Z" fill="white"></path></g></g></svg>