<svg width="698" height="202" viewBox="0 0 698 202" fill="none" xmlns="http://www.w3.org/2000/svg">
<path d="M2.88 71.92C2.88 65.2 4.224 59.216 6.912 53.968C9.664 48.72 13.568 44.656 18.624 41.776C23.68 38.832 29.632 37.36 36.48 37.36C42.368 37.36 47.616 38.48 52.224 40.72C56.896 42.896 60.672 46 63.552 50.032C66.496 54.064 68.448 58.768 69.408 64.144H46.944C45.92 61.904 44.448 60.176 42.528 58.96C40.672 57.68 38.528 57.04 36.096 57.04C32.512 57.04 29.664 58.384 27.552 61.072C25.504 63.76 24.48 67.376 24.48 71.92C24.48 76.464 25.504 80.08 27.552 82.768C29.664 85.456 32.512 86.8 36.096 86.8C38.528 86.8 40.672 86.192 42.528 84.976C44.448 83.696 45.92 81.936 46.944 79.696H69.408C68.448 85.072 66.496 89.776 63.552 93.808C60.672 97.84 56.896 100.976 52.224 103.216C47.616 105.392 42.368 106.48 36.48 106.48C29.632 106.48 23.68 105.04 18.624 102.16C13.568 99.216 9.664 95.12 6.912 89.872C4.224 84.624 2.88 78.64 2.88 71.92ZM110.201 106.672C103.801 106.672 97.9133 105.168 92.5373 102.16C87.2253 99.152 83.0013 94.992 79.8653 89.68C76.7293 84.368 75.1613 78.384 75.1613 71.728C75.1613 65.072 76.7293 59.088 79.8653 53.776C83.0013 48.464 87.2253 44.336 92.5373 41.392C97.9133 38.384 103.801 36.88 110.201 36.88C116.601 36.88 122.457 38.384 127.769 41.392C133.081 44.336 137.273 48.464 140.345 53.776C143.481 59.088 145.049 65.072 145.049 71.728C145.049 78.384 143.481 84.368 140.345 89.68C137.273 94.992 133.049 99.152 127.673 102.16C122.361 105.168 116.537 106.672 110.201 106.672ZM110.201 86.8C114.425 86.8 117.689 85.456 119.993 82.768C122.297 80.016 123.449 76.336 123.449 71.728C123.449 67.056 122.297 63.376 119.993 60.688C117.689 57.936 114.425 56.56 110.201 56.56C105.913 56.56 102.617 57.936 100.313 60.688C98.0093 63.376 96.8573 67.056 96.8573 71.728C96.8573 76.336 98.0093 80.016 100.313 82.768C102.617 85.456 105.913 86.8 110.201 86.8ZM217.922 106H196.61L174.05 71.824V106H152.738V38.032H174.05L196.61 72.784V38.032H217.922V106ZM280.926 38.032V54.928H262.878V106H241.566V54.928H223.71V38.032H280.926ZM308.018 38.032V106H286.706V38.032H308.018ZM382.828 106H361.516L338.956 71.824V106H317.644V38.032H338.956L361.516 72.784V38.032H382.828V106ZM413.768 55.024V63.376H434.888V79.408H413.768V89.008H437.768V106H392.456V38.032H437.768V55.024H413.768ZM510.984 106H489.672L467.112 71.824V106H445.8V38.032H467.112L489.672 72.784V38.032H510.984V106ZM573.989 38.032V54.928H555.941V106H534.629V54.928H516.773V38.032H573.989ZM623.353 95.728H600.697L597.337 106H574.969L599.833 38.032H624.409L649.177 106H626.713L623.353 95.728ZM618.169 79.696L612.025 60.784L605.881 79.696H618.169ZM675.331 89.872H695.875V106H654.019V38.032H675.331V89.872Z" fill="#1D1D41"/>
<path d="M66.568 140.544L56.2 176H46.536L40.072 151.232L33.608 176H23.88L13.448 140.544H22.536L28.808 167.552L35.592 140.544H45.064L51.72 167.488L57.992 140.544H66.568ZM69.112 158.144C69.112 154.56 69.816 151.381 71.224 148.608C72.6747 145.835 74.616 143.701 77.048 142.208C79.5227 140.715 82.2747 139.968 85.304 139.968C87.9493 139.968 90.2533 140.501 92.216 141.568C94.2213 142.635 95.8213 143.979 97.016 145.6V140.544H106.04V176H97.016V170.816C95.864 172.48 94.264 173.867 92.216 174.976C90.2107 176.043 87.8853 176.576 85.24 176.576C82.2533 176.576 79.5227 175.808 77.048 174.272C74.616 172.736 72.6747 170.581 71.224 167.808C69.816 164.992 69.112 161.771 69.112 158.144ZM97.016 158.272C97.016 156.096 96.5893 154.24 95.736 152.704C94.8827 151.125 93.7307 149.931 92.28 149.12C90.8293 148.267 89.272 147.84 87.608 147.84C85.944 147.84 84.408 148.245 83 149.056C81.592 149.867 80.44 151.061 79.544 152.64C78.6907 154.176 78.264 156.011 78.264 158.144C78.264 160.277 78.6907 162.155 79.544 163.776C80.44 165.355 81.592 166.571 83 167.424C84.4507 168.277 85.9867 168.704 87.608 168.704C89.272 168.704 90.8293 168.299 92.28 167.488C93.7307 166.635 94.8827 165.44 95.736 163.904C96.5893 162.325 97.016 160.448 97.016 158.272ZM128.359 176.576C125.458 176.576 122.855 176.064 120.551 175.04C118.247 173.973 116.412 172.544 115.047 170.752C113.724 168.96 112.999 166.976 112.871 164.8H121.895C122.066 166.165 122.727 167.296 123.879 168.192C125.074 169.088 126.546 169.536 128.295 169.536C130.002 169.536 131.324 169.195 132.263 168.512C133.244 167.829 133.735 166.955 133.735 165.888C133.735 164.736 133.138 163.883 131.943 163.328C130.791 162.731 128.935 162.091 126.375 161.408C123.73 160.768 121.554 160.107 119.847 159.424C118.183 158.741 116.732 157.696 115.495 156.288C114.3 154.88 113.703 152.981 113.703 150.592C113.703 148.629 114.258 146.837 115.367 145.216C116.519 143.595 118.14 142.315 120.231 141.376C122.364 140.437 124.86 139.968 127.719 139.968C131.943 139.968 135.314 141.035 137.831 143.168C140.348 145.259 141.735 148.096 141.991 151.68H133.415C133.287 150.272 132.69 149.163 131.623 148.352C130.599 147.499 129.212 147.072 127.463 147.072C125.842 147.072 124.583 147.371 123.687 147.968C122.834 148.565 122.407 149.397 122.407 150.464C122.407 151.659 123.004 152.576 124.199 153.216C125.394 153.813 127.25 154.432 129.767 155.072C132.327 155.712 134.439 156.373 136.103 157.056C137.767 157.739 139.196 158.805 140.391 160.256C141.628 161.664 142.268 163.541 142.311 165.888C142.311 167.936 141.735 169.771 140.583 171.392C139.474 173.013 137.852 174.293 135.719 175.232C133.628 176.128 131.175 176.576 128.359 176.576ZM160.098 147.904V165.056C160.098 166.251 160.375 167.125 160.93 167.68C161.527 168.192 162.509 168.448 163.874 168.448H168.034V176H162.402C154.85 176 151.074 172.331 151.074 164.992V147.904H146.85V140.544H151.074V131.776H160.098V140.544H168.034V147.904H160.098ZM207.439 157.504C207.439 158.784 207.353 159.936 207.183 160.96H181.263C181.476 163.52 182.372 165.525 183.951 166.976C185.529 168.427 187.471 169.152 189.775 169.152C193.103 169.152 195.471 167.723 196.879 164.864H206.543C205.519 168.277 203.556 171.093 200.655 173.312C197.753 175.488 194.191 176.576 189.967 176.576C186.553 176.576 183.481 175.829 180.751 174.336C178.063 172.8 175.951 170.645 174.415 167.872C172.921 165.099 172.174 161.899 172.174 158.272C172.174 154.603 172.921 151.381 174.415 148.608C175.908 145.835 177.999 143.701 180.687 142.208C183.375 140.715 186.468 139.968 189.967 139.968C193.337 139.968 196.345 140.693 198.991 142.144C201.679 143.595 203.748 145.664 205.199 148.352C206.692 150.997 207.439 154.048 207.439 157.504ZM198.159 154.944C198.116 152.64 197.284 150.805 195.663 149.44C194.041 148.032 192.057 147.328 189.711 147.328C187.492 147.328 185.615 148.011 184.079 149.376C182.585 150.699 181.668 152.555 181.327 154.944H198.159ZM273.261 140.032C277.613 140.032 281.111 141.376 283.757 144.064C286.445 146.709 287.789 150.421 287.789 155.2V176H278.829V156.416C278.829 153.643 278.125 151.531 276.717 150.08C275.309 148.587 273.389 147.84 270.957 147.84C268.525 147.84 266.583 148.587 265.133 150.08C263.725 151.531 263.021 153.643 263.021 156.416V176H254.061V156.416C254.061 153.643 253.357 151.531 251.949 150.08C250.541 148.587 248.621 147.84 246.189 147.84C243.714 147.84 241.751 148.587 240.301 150.08C238.893 151.531 238.189 153.643 238.189 156.416V176H229.229V140.544H238.189V144.832C239.341 143.339 240.813 142.165 242.605 141.312C244.439 140.459 246.445 140.032 248.621 140.032C251.394 140.032 253.869 140.629 256.045 141.824C258.221 142.976 259.906 144.64 261.101 146.816C262.253 144.768 263.917 143.125 266.093 141.888C268.311 140.651 270.701 140.032 273.261 140.032ZM293.987 158.144C293.987 154.56 294.691 151.381 296.099 148.608C297.55 145.835 299.491 143.701 301.923 142.208C304.398 140.715 307.15 139.968 310.179 139.968C312.824 139.968 315.128 140.501 317.091 141.568C319.096 142.635 320.696 143.979 321.891 145.6V140.544H330.915V176H321.891V170.816C320.739 172.48 319.139 173.867 317.091 174.976C315.086 176.043 312.76 176.576 310.115 176.576C307.128 176.576 304.398 175.808 301.923 174.272C299.491 172.736 297.55 170.581 296.099 167.808C294.691 164.992 293.987 161.771 293.987 158.144ZM321.891 158.272C321.891 156.096 321.464 154.24 320.611 152.704C319.758 151.125 318.606 149.931 317.155 149.12C315.704 148.267 314.147 147.84 312.483 147.84C310.819 147.84 309.283 148.245 307.875 149.056C306.467 149.867 305.315 151.061 304.419 152.64C303.566 154.176 303.139 156.011 303.139 158.144C303.139 160.277 303.566 162.155 304.419 163.776C305.315 165.355 306.467 166.571 307.875 167.424C309.326 168.277 310.862 168.704 312.483 168.704C314.147 168.704 315.704 168.299 317.155 167.488C318.606 166.635 319.758 165.44 320.611 163.904C321.464 162.325 321.891 160.448 321.891 158.272ZM359.314 140.032C363.538 140.032 366.951 141.376 369.554 144.064C372.157 146.709 373.458 150.421 373.458 155.2V176H364.498V156.416C364.498 153.6 363.794 151.445 362.386 149.952C360.978 148.416 359.058 147.648 356.626 147.648C354.151 147.648 352.189 148.416 350.738 149.952C349.33 151.445 348.626 153.6 348.626 156.416V176H339.666V140.544H348.626V144.96C349.821 143.424 351.335 142.229 353.17 141.376C355.047 140.48 357.095 140.032 359.314 140.032ZM379.674 158.144C379.674 154.56 380.378 151.381 381.786 148.608C383.237 145.835 385.179 143.701 387.611 142.208C390.085 140.715 392.837 139.968 395.867 139.968C398.512 139.968 400.816 140.501 402.779 141.568C404.784 142.635 406.384 143.979 407.579 145.6V140.544H416.603V176H407.579V170.816C406.427 172.48 404.827 173.867 402.779 174.976C400.773 176.043 398.448 176.576 395.803 176.576C392.816 176.576 390.085 175.808 387.611 174.272C385.179 172.736 383.237 170.581 381.786 167.808C380.378 164.992 379.674 161.771 379.674 158.144ZM407.579 158.272C407.579 156.096 407.152 154.24 406.299 152.704C405.445 151.125 404.293 149.931 402.843 149.12C401.392 148.267 399.835 147.84 398.171 147.84C396.507 147.84 394.971 148.245 393.562 149.056C392.155 149.867 391.003 151.061 390.107 152.64C389.253 154.176 388.827 156.011 388.827 158.144C388.827 160.277 389.253 162.155 390.107 163.776C391.003 165.355 392.155 166.571 393.562 167.424C395.013 168.277 396.549 168.704 398.171 168.704C399.835 168.704 401.392 168.299 402.843 167.488C404.293 166.635 405.445 165.44 406.299 163.904C407.152 162.325 407.579 160.448 407.579 158.272ZM439.242 139.968C441.887 139.968 444.212 140.501 446.218 141.568C448.223 142.592 449.802 143.936 450.954 145.6V140.544H459.978V176.256C459.978 179.541 459.316 182.464 457.994 185.024C456.671 187.627 454.687 189.675 452.042 191.168C449.396 192.704 446.196 193.472 442.442 193.472C437.407 193.472 433.268 192.299 430.026 189.952C426.826 187.605 425.012 184.405 424.586 180.352H433.482C433.951 181.973 434.954 183.253 436.49 184.192C438.068 185.173 439.967 185.664 442.186 185.664C444.788 185.664 446.9 184.875 448.522 183.296C450.143 181.76 450.954 179.413 450.954 176.256V170.752C449.802 172.416 448.202 173.803 446.154 174.912C444.148 176.021 441.844 176.576 439.242 176.576C436.255 176.576 433.524 175.808 431.05 174.272C428.575 172.736 426.612 170.581 425.161 167.808C423.753 164.992 423.049 161.771 423.049 158.144C423.049 154.56 423.753 151.381 425.161 148.608C426.612 145.835 428.554 143.701 430.986 142.208C433.46 140.715 436.212 139.968 439.242 139.968ZM450.954 158.272C450.954 156.096 450.527 154.24 449.674 152.704C448.82 151.125 447.668 149.931 446.218 149.12C444.767 148.267 443.21 147.84 441.546 147.84C439.882 147.84 438.346 148.245 436.938 149.056C435.53 149.867 434.378 151.061 433.482 152.64C432.628 154.176 432.202 156.011 432.202 158.144C432.202 160.277 432.628 162.155 433.482 163.776C434.378 165.355 435.53 166.571 436.938 167.424C438.388 168.277 439.924 168.704 441.546 168.704C443.21 168.704 444.767 168.299 446.218 167.488C447.668 166.635 448.82 165.44 449.674 163.904C450.527 162.325 450.954 160.448 450.954 158.272ZM501.689 157.504C501.689 158.784 501.603 159.936 501.433 160.96H475.513C475.726 163.52 476.622 165.525 478.201 166.976C479.779 168.427 481.721 169.152 484.025 169.152C487.353 169.152 489.721 167.723 491.129 164.864H500.793C499.769 168.277 497.806 171.093 494.905 173.312C492.003 175.488 488.441 176.576 484.217 176.576C480.803 176.576 477.731 175.829 475.001 174.336C472.313 172.8 470.201 170.645 468.665 167.872C467.171 165.099 466.424 161.899 466.424 158.272C466.424 154.603 467.171 151.381 468.665 148.608C470.158 145.835 472.249 143.701 474.937 142.208C477.625 140.715 480.718 139.968 484.217 139.968C487.587 139.968 490.595 140.693 493.241 142.144C495.929 143.595 497.998 145.664 499.449 148.352C500.942 150.997 501.689 154.048 501.689 157.504ZM492.409 154.944C492.366 152.64 491.534 150.805 489.913 149.44C488.291 148.032 486.307 147.328 483.961 147.328C481.742 147.328 479.865 148.011 478.329 149.376C476.835 150.699 475.918 152.555 475.577 154.944H492.409ZM517.189 146.048C518.341 144.171 519.834 142.699 521.669 141.632C523.546 140.565 525.679 140.032 528.069 140.032V149.44H525.701C522.885 149.44 520.751 150.101 519.301 151.424C517.893 152.747 517.189 155.051 517.189 158.336V176H508.229V140.544H517.189V146.048ZM547.672 176.576C544.77 176.576 542.168 176.064 539.864 175.04C537.56 173.973 535.725 172.544 534.36 170.752C533.037 168.96 532.312 166.976 532.184 164.8H541.208C541.378 166.165 542.04 167.296 543.192 168.192C544.386 169.088 545.858 169.536 547.608 169.536C549.314 169.536 550.637 169.195 551.576 168.512C552.557 167.829 553.048 166.955 553.048 165.888C553.048 164.736 552.45 163.883 551.256 163.328C550.104 162.731 548.248 162.091 545.688 161.408C543.042 160.768 540.866 160.107 539.16 159.424C537.496 158.741 536.045 157.696 534.808 156.288C533.613 154.88 533.016 152.981 533.016 150.592C533.016 148.629 533.57 146.837 534.68 145.216C535.832 143.595 537.453 142.315 539.544 141.376C541.677 140.437 544.173 139.968 547.032 139.968C551.256 139.968 554.626 141.035 557.144 143.168C559.661 145.259 561.048 148.096 561.304 151.68H552.728C552.6 150.272 552.002 149.163 550.936 148.352C549.912 147.499 548.525 147.072 546.776 147.072C545.154 147.072 543.896 147.371 543 147.968C542.146 148.565 541.72 149.397 541.72 150.464C541.72 151.659 542.317 152.576 543.512 153.216C544.706 153.813 546.562 154.432 549.08 155.072C551.64 155.712 553.752 156.373 555.416 157.056C557.08 157.739 558.509 158.805 559.704 160.256C560.941 161.664 561.581 163.541 561.624 165.888C561.624 167.936 561.048 169.771 559.896 171.392C558.786 173.013 557.165 174.293 555.032 175.232C552.941 176.128 550.488 176.576 547.672 176.576Z" fill="#FF5F08"/>
</svg>
