<svg width="296" height="42" viewBox="0 0 296 42" fill="none" xmlns="http://www.w3.org/2000/svg"><path id="Vector_23" d="M2 39.6654L10.3101 32.128C15.3027 27.5995 22.9362 27.6649 27.8506 32.2781V32.2781C33.2787 37.3736 41.8773 36.8455 46.6411 31.124L52.6389 23.9204C56.7741 18.9538 62.9025 16.0818 69.3652 16.0818H77.221C85.0894 16.0818 92.839 13.6241 99.2976 9.12983V9.12983C110.332 1.45154 124.651 -0.138602 137.049 5.05819L163.731 16.2427C175.96 21.3687 189.449 22.6925 202.441 20.0415L234.5 13.5C246.833 12.1667 275.9 9.9 293.5 11.5" stroke="url(#paint0_linear_254:12895)" stroke-width="4" stroke-linecap="round"></path><defs><linearGradient id="paint0_linear_254:12895" x1="124.126" y1="-3.48755" x2="4.17075" y2="44.5006" gradientUnits="userSpaceOnUse"><stop offset="0.178698" stop-color="#EF9837"></stop><stop offset="1" stop-color="#EF9837" stop-opacity="0"></stop></linearGradient></defs></svg>