<svg width="31" height="31" viewBox="0 0 31 31" fill="none" xmlns="http://www.w3.org/2000/svg"><g id="Iconly/Bold/Graph"><g id="Graph"><path id="Graph_2" fill-rule="evenodd" clip-rule="evenodd" d="M15.9222 2.85414C16.1285 2.66899 16.4014 2.57194 16.6806 2.58439C22.5846 2.76113 27.5188 7.04707 28.4131 12.7754C28.4187 12.8096 28.4187 12.8445 28.4131 12.8787C28.4323 13.1497 28.3407 13.4171 28.1585 13.6217C27.9763 13.8263 27.7185 13.9513 27.4422 13.9689L17.5228 14.6231C17.1948 14.6522 16.8695 14.5442 16.6268 14.3258C16.3841 14.1073 16.2465 13.7986 16.2478 13.4754L15.5811 3.73203V3.57136C15.5932 3.29733 15.716 3.03929 15.9222 2.85414ZM15.2419 17.1708L23.8394 16.62L23.8979 16.6429C24.2671 16.649 24.6187 16.7987 24.8754 17.0591C25.132 17.3195 25.2727 17.6693 25.2665 18.0316C24.9277 22.9684 21.3082 27.0934 16.3826 28.156C11.4569 29.2187 6.40754 26.9641 3.98904 22.6221C3.27789 21.3715 2.8285 19.9942 2.66724 18.5709C2.60469 18.1492 2.57731 17.7232 2.58536 17.2971C2.60166 12.0475 6.33922 7.51629 11.5689 6.40602C12.202 6.28752 12.8367 6.60361 13.113 7.17493C13.1817 7.2786 13.2367 7.39044 13.2767 7.50775C13.3747 9.02103 13.4764 10.52 13.5777 12.0126C13.6577 13.1914 13.7374 14.3663 13.8148 15.5412C13.8108 15.818 13.8543 16.0934 13.9435 16.356C14.1534 16.8727 14.6757 17.2005 15.2419 17.1708Z" fill="#5352EC"></path></g></g></svg>