<svg xmlns="http://www.w3.org/2000/svg" viewBox="0 0 500 500"><g id="freepik--background-complete--inject-1"><path d="M248.72,382.54l0-157.61H194.84l0,157.62Zm-5.45-36.79H202.46V342.8h40.81Zm-.08-7.65H202.38v-2.95h40.81Zm-.08-7.66h-40.8v-2.94h40.8Zm-.07-7.65H202.23v-2.94H243Zm-.08-7.65h-40.8v-2.94H243Zm-.07-7.66H202.08v-3h40.81Zm-.08-7.65H202v-2.94h40.81Zm-.08-7.65h-40.8v-2.94h40.81Zm-.07-7.65H201.85v-2.95h40.81Zm-.08-7.66h-40.8v-2.95h40.8Zm-.07-7.65H201.7v-2.94h40.81Zm-.08-7.65H201.62v-2.94h40.81Zm-.08-7.65h-40.8V251h40.81Zm-.07-7.66H201.47v-2.94h40.81Zm-40.88-10.6h40.8v2.94H201.4Z" style="fill:#ebebeb"></path><path d="M256.6,382.54h74.68l-.08-181.3h-13V182.45H306.83V162.85H295.71V135.62H292l0,27.23H280.86v19.61H269.49v18.79h-13Zm59.86-166.7h5.37l-.42,154.39-5.36,0Zm-12.51,0h5.36l-.42,154.39h-5.36Zm-12.52,0h5.36l-.41,154.39H291Zm-12.52,0,5.37,0-.42,154.38h-5.37Zm-7.15,0-.42,154.38H266l.42-154.38Z" style="fill:#ebebeb"></path><rect y="382.4" width="500" height="0.25" style="fill:#ebebeb"></rect><rect x="416.78" y="398.49" width="33.12" height="0.25" style="fill:#ebebeb"></rect><rect x="322.53" y="401.21" width="8.69" height="0.25" style="fill:#ebebeb"></rect><rect x="396.59" y="389.21" width="19.19" height="0.25" style="fill:#ebebeb"></rect><rect x="52.46" y="390.89" width="43.19" height="0.25" style="fill:#ebebeb"></rect><rect x="104.56" y="390.89" width="6.33" height="0.25" style="fill:#ebebeb"></rect><rect x="131.47" y="395.11" width="93.68" height="0.25" style="fill:#ebebeb"></rect><path d="M237,337.8H43.91a5.71,5.71,0,0,1-5.7-5.71V60.66A5.71,5.71,0,0,1,43.91,55H237a5.71,5.71,0,0,1,5.71,5.71V332.09A5.71,5.71,0,0,1,237,337.8ZM43.91,55.2a5.46,5.46,0,0,0-5.45,5.46V332.09a5.46,5.46,0,0,0,5.45,5.46H237a5.47,5.47,0,0,0,5.46-5.46V60.66A5.47,5.47,0,0,0,237,55.2Z" style="fill:#ebebeb"></path><path d="M453.31,337.8H260.21a5.72,5.72,0,0,1-5.71-5.71V60.66A5.72,5.72,0,0,1,260.21,55h193.1A5.71,5.71,0,0,1,459,60.66V332.09A5.71,5.71,0,0,1,453.31,337.8ZM260.21,55.2a5.47,5.47,0,0,0-5.46,5.46V332.09a5.47,5.47,0,0,0,5.46,5.46h193.1a5.47,5.47,0,0,0,5.46-5.46V60.66a5.47,5.47,0,0,0-5.46-5.46Z" style="fill:#ebebeb"></path><path d="M176.25,382.54,172,360.45a1.25,1.25,0,0,0-1.23-1h-1.63a1.24,1.24,0,0,1-1.25-1.25v-1.72a1.25,1.25,0,0,0-1.25-1.25h-2.29a1.25,1.25,0,0,1-1.26-1.25l-.4-14.79a1,1,0,0,0-.09-.41l-2.43-5.06H160V328a1,1,0,0,0-1-1h-.32v-4.05h-.26v4.05H158a1,1,0,0,0-1,1v.26h-1.13V328a1,1,0,0,0-1-1h-.26v-4.05h-.27v4.05h-.48a1,1,0,0,0-1,1v5.73h-.18l-2.42,5.06a1,1,0,0,0-.1.41l-.39,14.8a1.25,1.25,0,0,1-1.25,1.25h-1.64a1.25,1.25,0,0,1-1.25-1.25V314.3l-.05,0V311h-.26v3.54l-12.41,8.89-.69.49v8.17c0,.3-.12.07-.33.3l-9.93,5.71a.36.36,0,0,0-.07.1v-4.08h-.27v6.62h0V354a1.25,1.25,0,0,1-1.25,1.25H119a1.25,1.25,0,0,1-1.25-1.25v-6.56a1.26,1.26,0,0,0-1.26-1.25h-4.31a1.25,1.25,0,0,0-1.25,1.25v6.55a1.25,1.25,0,0,1-1.25,1.25h-.41a1.25,1.25,0,0,1-1.25-1.26v-1.77a1.25,1.25,0,0,0-1.25-1.25h-4.36a1.25,1.25,0,0,0-1.25,1.25v6a1.25,1.25,0,0,1-1.25,1.25H97.25A1.26,1.26,0,0,0,96,360.68h0v11A1.25,1.25,0,0,1,94.74,373H82.25A1.25,1.25,0,0,1,81,371.7v-3a1.25,1.25,0,0,0-1.25-1.25l-8.52,0s-.15,10.35-.1,15.06Z" style="fill:#e0e0e0"></path><path d="M198.26,382.54c-11.6-5.79-43.83-21.66-49.71-22.09-6.55-.48-27.33,18.63-31,22.09Z" style="fill:#f0f0f0"></path><path d="M370.14,125.86a20.93,20.93,0,0,0-39.43,0Z" style="fill:#f0f0f0"></path><path d="M418.93,125.86c-1.64-17-14.68-30.16-30.52-30.16s-28.89,13.21-30.53,30.16Z" style="fill:#f0f0f0"></path><path d="M447.33,125.86c-2-10.44-8.89-18.15-17.1-18.15s-15.08,7.71-17.09,18.15Z" style="fill:#f0f0f0"></path><path d="M92.26,131.77a17.87,17.87,0,0,0-33.66,0Z" style="fill:#f0f0f0"></path><path d="M133.89,131.77c-1.4-14.46-12.52-25.73-26-25.73s-24.65,11.27-26,25.73Z" style="fill:#f0f0f0"></path><path d="M158.13,131.77c-1.72-8.91-7.59-15.49-14.59-15.49s-12.88,6.58-14.59,15.49Z" style="fill:#f0f0f0"></path><path d="M206.41,97.79c-2.19-5.76-8.49-9.92-15.93-9.92S176.75,92,174.55,97.79Z" style="fill:#f0f0f0"></path><path d="M228.21,97.79c-.8-12.1-7.13-21.52-14.84-21.52s-14,9.42-14.83,21.52Z" style="fill:#f0f0f0"></path><path d="M245.49,97.79c-1.76-7.45-7.79-13-15-13s-13.2,5.5-15,13Z" style="fill:#f0f0f0"></path><path d="M235.39,156.8c-1.66-6.59-6.44-11.35-12.08-11.35s-10.42,4.76-12.08,11.35Z" style="fill:#f0f0f0"></path><path d="M260.31,156.8c-.91-11-8.15-19.51-17-19.51s-16,8.54-16.95,19.51Z" style="fill:#f0f0f0"></path><path d="M274.22,156.8c-1.33-5.61-5.86-9.75-11.27-9.75s-9.94,4.14-11.26,9.75Z" style="fill:#f0f0f0"></path><path d="M439.89,382.54l-.14-51.33-13.25,0-.07-25.84-8.43,0q-1.92,12.93-3.83,25.85l-22.35.06-.07-25.84-8.43,0q-1.92,12.92-3.83,25.85l-13.37,0,.13,51.14Zm-66.3-9v-2.68l55.69-.15v2.68Zm56-33.62v2.67l-55.69.15v-2.67Zm-.05,6.15v2.68l-55.69.15v-2.68Zm-.05,6.16v2.68l-55.7.15V352.4Zm-.05,6.16v2.68l-55.7.15v-2.68Zm-.05,6.16v2.68l-55.7.15v-2.68Z" style="fill:#e0e0e0"></path><path d="M389.82,304.44a2,2,0,0,1-.73-2.41c.66-1.57,3.08-1.72,3.67-3.33.86-2.31-2.48-2-3-3.81s3.73-1.4,3.76-3.42c0-.64-.75-.9-.64-1.65s1.44-1.65,2.08-2c-1.62.4-3.69.4-3.55,2.41.09,1.32.54,1.88-1.13,2.44-1.32.45-3.38,0-3.48,1.88s1.75,1.72,2.66,2.78c1.06,1.23-.1,2.71-1.39,3.36s-3,.46-3.28,2.46a3,3,0,0,0,.11,1.28Z" style="fill:#e0e0e0"></path><path d="M419.73,304.44h5.13a1.73,1.73,0,0,1-.54-1.45c.1-1.55,1.43-1.62,2.12-2.7,1.72-2.66-3.75-2.19-2.61-4.61.44-.92,2.65-1.12,2.91-1.94.3-1-1.47-1-1.94-1.79-1.37-2.34,4.35-2.06,4.22-4.24,0-.69-.88-.88-.85-1.68.05-1.11,1.46-1.46,2.26-1.9-1,.25-3.23.14-3.74,1.33s1.11,1.62-.4,3.05c-.92.86-4.36,1-4,2.79.22,1.21,2.31.88,1.94,2.44-.42,1.78-3.59.58-4,2.28-.46,2.12,3.49,1.11,4.05,2.39.94,2.11-3.88,2.77-4.76,3.37C418.17,302.72,418.82,303.66,419.73,304.44Z" style="fill:#e0e0e0"></path><path d="M399.85,382.54c-12.77-4-95.26-29.86-107.48-29.38-11.16.45-37.84,22.44-46,29.38Z" style="fill:#f0f0f0"></path><path d="M135,382.54c-17.22-6-62.91-21.48-71.31-21.9-9.3-.47-38.52,18-44.56,21.9Z" style="fill:#ebebeb"></path><path d="M434.41,382.54h35.7c-4.61-7.7-4.78-19.94-4.58-25.42H453c.16,4.72.07,14.47-2.9,22C448,373,448,365.56,448.16,362H437.93C438.09,366.28,438,376.14,434.41,382.54Z" style="fill:#e0e0e0"></path><path d="M452.26,353.7h14a.37.37,0,0,1,.36.37V356a.36.36,0,0,1-.36.36h-14a.36.36,0,0,1-.37-.36v-1.95A.37.37,0,0,1,452.26,353.7Z" style="fill:#e0e0e0"></path><path d="M448.93,359.16v1.77a.31.31,0,0,1-.31.31H437.47a.31.31,0,0,1-.31-.31v-1.78a.3.3,0,0,1,.31-.3h11.15A.31.31,0,0,1,448.93,359.16Z" style="fill:#e0e0e0"></path><path d="M450.8,336.61a1,1,0,0,0-.05-.16c-.34-.92-1.61-.54-2.13-1.26.07.29.07.48.37.63a3.13,3.13,0,0,1,.71.35c.92.86-.72,1.42-1.23,1.77a2.89,2.89,0,0,0-1.51,2.32c0,.55.1,1-.32,1.45-1,1-3.06.66-3.47,2.32a3,3,0,0,0,.22,1.94c.23.47.57.63.47,1.2-.32,1.78-2.59,1.48-3.48,2.53s.38,1.73,1.17,2.15c1.06.55,2.37,1.4,1.34,2.7-.69.85-1.78,1.18-2.6,1.86a4.74,4.74,0,0,0-1.33,1.73h8.24c-.2-.75-.9-1.24-1.18-2a2.28,2.28,0,0,1,.38-2c.37-.59.69-1.33,0-1.78a5.45,5.45,0,0,0-1.79-.42,3.28,3.28,0,0,1-1.77-1c.19-1.57,6-1.31,4.33-3.38-.64-.81-3.39-1.4-2-2.79.72-.71,1.85-.83,2.66-1.38a1.37,1.37,0,0,0,.62-1.46c-.08-.56-.47-1.09-.39-1.66a2.13,2.13,0,0,1,.47-1.3,3.72,3.72,0,0,1,.83-.65C450,338,451,337.45,450.8,336.61Z" style="fill:#e0e0e0"></path><path d="M464.34,352.9a7.86,7.86,0,0,1-2.46-2.09,1.87,1.87,0,0,1-.36-1.73c.21-.6.62-1,.09-1.62-.38-.43-1-.55-1.32-1-.74-1.06.67-2.11,1.46-2.61.44-.29,2.65-1.05,1.46-1.58-.63-.29-2.06-.29-1-1.2.8-.66,2.19-.85,2.84-1.68.47-.59,0-.79-.32-1.29-.87-1.44,1.32-2.19,2.49-2.19-1.42-.67-4.13-.45-3.76,1.51a4,4,0,0,1,.18,1.06c-.11.48-1,.94-1.45,1.09-1.35.42-2.81-.49-3.58,1.12-.49,1,.67,1.29,1,2.06.58,1.34-1.23,1.78-2,2.37-1.11.82-.13,1.23.71,1.49,1.06.32,1.54,1,.89,2-.76,1.18-2.36,1.12-3.45,1.82a2.68,2.68,0,0,0-1.34,2.48Z" style="fill:#e0e0e0"></path></g><g id="freepik--Shadow--inject-1"><ellipse id="freepik--path--inject-1" cx="250" cy="416.24" rx="209.61" ry="11.32" style="fill:#f5f5f5"></ellipse><ellipse id="freepik--path--inject-1" cx="389.75" cy="432.66" rx="62.7" ry="9.18" style="fill:#f5f5f5"></ellipse></g><g id="freepik--Sun--inject-1"><circle cx="304.6" cy="89.22" r="15.39" style="fill:#005EFF"></circle></g><g id="freepik--speech-bubble-1--inject-1"><path d="M41.17,195.46H67a8,8,0,0,1,8,8v22.51a8,8,0,0,1-8,8H63.25l0,8-5.38-8H41.17a8,8,0,0,1-8-8V203.43A8,8,0,0,1,41.17,195.46Z" style="fill:#005EFF"></path><path d="M41.17,195.46H67a8,8,0,0,1,8,8v22.51a8,8,0,0,1-8,8H63.25l0,8-5.38-8H41.17a8,8,0,0,1-8-8V203.43A8,8,0,0,1,41.17,195.46Z" style="fill:#fff;opacity:0.7000000000000001"></path><path d="M64.44,217.42v0Z" style="fill:#005EFF"></path><path d="M44.68,215.93c0-.14,0-.27,0-.41C44.67,215.66,44.67,215.79,44.68,215.93Z" style="fill:#005EFF"></path><path d="M59.23,205.2l.11-.14Z" style="fill:#005EFF"></path><path d="M46.47,209.73c-.12.17-.24.34-.35.53a9.93,9.93,0,0,0-1.45,5.22,9.88,9.88,0,0,1,1.82-5.74Z" style="fill:#005EFF"></path><path d="M64.63,215.48a9.08,9.08,0,0,1-.12,1.49,10,10,0,0,0-.15-3.81v0a10,10,0,0,0-.53-1.6,9.93,9.93,0,0,0-4-4.6,9.71,9.71,0,0,0-1.15-.6l0,0A10,10,0,0,1,64.63,215.48Z" style="fill:#005EFF"></path><path d="M54.77,210.15c-.11.07-.14.12-.05.21s.4.45-.13.29-.21-.23-.18-.35-.12-.1-.24-.06-.31.07-.35,0a.19.19,0,0,0-.1-.1c-.29-.13-.42.13-.22.24s.17.09.12.15-.19,0-.32.08a4.72,4.72,0,0,0-1.32,1c-.13.14-.15.38-.24.48s-.42.21-.57.37-2.28.21-2.55,1.08.48.72,1,.41c.11-.06.24,0,.23.11a.59.59,0,0,1,0,.22c-.06.11,0,.18.1.2.4.06.32.37.35.83,0,.29.75.21.91,0s.66-.54,1-.1a.41.41,0,0,0,.51.12c.11-.06.26-.15.36-.06s.2.43.43.57.5-.14.64.1.14.72.29.78a2,2,0,0,0,.83.21c.5,0,1.15.35,1.06.84,0,.21-.38.33-.4.56s-.07.66-.1,1c-.06.54-.88.16-1.08.64-.12.3.23.45,0,.77a4,4,0,0,0-.48.63c-.2.37-.61.42-.88.58-.12.06,0,.12,0,.24s0,.15-.08.26-.07.23.07.26.2.13.17.25a.49.49,0,0,0,.15.54c.41.33,0,.45-.4.33-.89-.28-.82-1.29-.91-2,0-.16-.31-.28-.33-.43a3.06,3.06,0,0,1,.12-.66c0-.18-.18,0-.18-.17v-.75c0-.66.08-.76-.47-1.14-.35-.24-.31-.27-.58-.6-.39-.5-.51-.57-.48-1.16s.53-.5.46-1-.49-.06-.8-.4a3.07,3.07,0,0,0-.88-.68.59.59,0,0,1-.15-.13.41.41,0,0,0-.3-.14.61.61,0,0,1-.33,0c-.4-.11-.57-.11-.85-.55-.11-.17.14-.22,0-.37l-.44-.64c-.12-.18,0-.41-.12-.53s-.2,0-.16.16c.14.42.48,1.09.19,1-.47-.07-.52-.7-.52-1.15a.65.65,0,0,0-.21-.34l0,0c-.08-.1-.11-.12-.15,0a9.07,9.07,0,0,0,15.6,8.84c.08-.1.07-.1,0,0s-.18.09-.18,0a1.12,1.12,0,0,0-.3-.92c-.16-.22,0-.57,0-.82s-.45-.28-.26-.64.37-.48.21-.77a8.57,8.57,0,0,1-.61-1.55c0-.13-.06-.22-.19-.26a2.17,2.17,0,0,0-.58-.21c-.35,0-.47.19-.83.19-.84,0-.86-.06-1.51-.79a1,1,0,0,1,0-1.08c0-.13,0-.22-.13-.3s.41-.58.63-.74c.43-.31.16-.67.58-.9a5.39,5.39,0,0,1,2-.35c.13,0,.19.08.2.21,0,.41.52.49.93.57.13,0,.19-.09.29-.16s.73,0,1.14.13c.13,0,.2,0,.16-.17s-.07-.19-.11-.28-.2-.22-.31-.3a.57.57,0,0,1-.24-.39c0-.13-.11-.21-.2-.11a.64.64,0,0,0-.16.29c0,.13-.12.18-.2.07-.28-.36-.33-1-.84-1A.17.17,0,0,0,61,211a1.16,1.16,0,0,0,.43.35.26.26,0,0,1,.09.35c-.1.15-.25.27-.41.17s-.05-.16.06-.2.12-.13,0-.2a1.68,1.68,0,0,1-.47-.36.18.18,0,0,0-.27,0c-.19.11-.4,0-.58.24s-.34.61-.53.63-.67.1-.83-.11-.12-.72.13-.77a1.27,1.27,0,0,1,.67,0c.14,0,.15,0,.15-.06a1.24,1.24,0,0,0-.13-.3c0-.14,0-.33.16-.36.58-.09.65-.56,1.22-.56.13,0,.25-.08.23-.2a.18.18,0,0,0-.24-.15.33.33,0,0,1-.32-.12c-.17-.2-.39-.3-.09-.59l.13-.07c.08,0,.07-.12,0-.21a9,9,0,0,0-2.3-1.36,11.16,11.16,0,0,1-3.35,2.52C54.83,209.83,54.94,210.05,54.77,210.15Z" style="fill:#005EFF"></path><path d="M44.1,206.23a6,6,0,0,0,.75,3.24h0c3.15-3.8-.08-7.45-.08-7.45-.63,1.41-2.84,2.65-2.08,5.2a3.18,3.18,0,0,0,1.39,1.84A3.24,3.24,0,0,1,44.1,206.23Z" style="fill:#005EFF"></path><path d="M64.49,210.51a.41.41,0,0,0,0-.09,10.78,10.78,0,0,0-1-1.61,11,11,0,0,0-3.06-2.76,9.55,9.55,0,0,0-1-.56c-.19.26-.4.55-.64.84a9.71,9.71,0,0,1,1.15.6,9.93,9.93,0,0,1,4,4.6,10,10,0,0,1,.53,1.6v0a10,10,0,0,1,.15,3.81c0,.15,0,.3-.07.45v0a10,10,0,0,1-13.83,7.14,9.71,9.71,0,0,1-1.15-.6,10,10,0,0,1-4.77-8c0-.14,0-.27,0-.41v0a9.93,9.93,0,0,1,1.45-5.22c.11-.19.23-.36.35-.53A8.52,8.52,0,0,1,47,209l.1-.12a10.67,10.67,0,0,0,11.18-2.7s.86-.92.91-1l.11-.14a14,14,0,0,0,.95-1.3c.09-.14.13-.22.13-.22-3.08-.24-6.87-3.55-11.14-.44a6.65,6.65,0,0,0-2.29,3,6.61,6.61,0,0,1,2.29-3c4.26-3.11,8.06.19,11.13.43h0a11.54,11.54,0,0,1-5.16.9,13.22,13.22,0,0,0-4,.54h0a1.14,1.14,0,0,0-.26.09l-.47.17a11,11,0,0,0-5.23,4.46,3.14,3.14,0,0,0-.18.31l-.1.17-.13.26a11.17,11.17,0,0,0-1.24,5.9,2.4,2.4,0,0,0,0,.37,11.12,11.12,0,0,0,5.24,8.11l.19.12a11,11,0,0,0,3.11,1.23l.35.07a10.8,10.8,0,0,0,2.83.19l.35,0,.35,0,.12,0,.54-.09a11,11,0,0,0,7.79-15.76Z" style="fill:#005EFF"></path><path d="M47,206.74h0Z" style="fill:#005EFF"></path><path d="M47.09,206.62Z" style="fill:#005EFF"></path><path d="M55.25,204.46a11.54,11.54,0,0,0,5.16-.9h0c-3.07-.24-6.87-3.54-11.13-.43a6.61,6.61,0,0,0-2.29,3,4.88,4.88,0,0,0-.24.84l.19-.19h0l.14-.12h0A6.45,6.45,0,0,1,51.2,205h0A13.22,13.22,0,0,1,55.25,204.46Z" style="fill:#005EFF"></path></g><g id="freepik--speech-bubble-2--inject-1"><path d="M402.82,211.22H376.94a8,8,0,0,0-8,8V241.7a8,8,0,0,0,8,8h20.82l2.63,8.46,2.63-8.47a8,8,0,0,0,7.76-8V219.19A8,8,0,0,0,402.82,211.22Z" style="fill:#005EFF"></path><path d="M402.82,211.22H376.94a8,8,0,0,0-8,8V241.7a8,8,0,0,0,8,8h20.82l2.63,8.46,2.63-8.47a8,8,0,0,0,7.76-8V219.19A8,8,0,0,0,402.82,211.22Z" style="fill:#fff;opacity:0.7000000000000001"></path><path d="M380.33,222.09v.42a.89.89,0,0,0,.88.89h17.34a.89.89,0,0,0,.88-.89v-.42a.88.88,0,0,0-.88-.89h-5a3.69,3.69,0,0,0-7.32,0h-5A.88.88,0,0,0,380.33,222.09Zm11.47-.89H388a2,2,0,0,1,3.84,0Z" style="fill:#005EFF"></path><path d="M381.66,224.31a.6.6,0,0,0-.16.44h0l1.35,17.11a1,1,0,0,0,1.1,1h11.9c.77,0,1-.36,1.06-1v0l1.35-17.11h0a.6.6,0,0,0-.16-.44.69.69,0,0,0-.51-.21H382.17A.69.69,0,0,0,381.66,224.31Zm3,2a.46.46,0,0,1,.3-.18h.17a.45.45,0,0,1,.3.13.66.66,0,0,1,.17.4l1,13.72a.68.68,0,0,1-.11.42.46.46,0,0,1-.3.18h-.15a.42.42,0,0,1-.32-.13.66.66,0,0,1-.17-.4l-1-13.72h0A.68.68,0,0,1,384.66,226.31Zm5.15-.2H390a.53.53,0,0,1,.46.56v13.76a.53.53,0,0,1-.46.56h-.14a.53.53,0,0,1-.46-.56V226.67A.53.53,0,0,1,389.81,226.11ZM393,240.36l1.07-13.71a.55.55,0,0,1,.48-.53h0l.15,0a.39.39,0,0,1,.3.18.65.65,0,0,1,.11.42l-1.08,13.71a.54.54,0,0,1-.5.53l-.14,0h0A.52.52,0,0,1,393,240.36Z" style="fill:#005EFF"></path></g><g id="freepik--garbage-can--inject-1"><g id="freepik--Plastic--inject-1"><path d="M143.61,184l-1.1-3.05a7.56,7.56,0,0,0-7.95-4.93l-22.9,2.56a7.56,7.56,0,0,0-6.66,6.57l-1.94,15.49,5.17,46.25A9.77,9.77,0,0,0,119,255.48l49.4-5.52a9.78,9.78,0,0,0,8.63-10.8l-5.17-46.25-.89-8a4,4,0,0,0-4.43-3.54Zm-28.4,5.15.27-2.18a4,4,0,0,1,3.53-3.48l12.16-1.36a4,4,0,0,1,4.22,2.62l.75,2.06a4.8,4.8,0,0,1-4,6.41l-11.64,1.3A4.8,4.8,0,0,1,115.21,189.11Z" style="fill:#005EFF"></path><g style="opacity:0.6000000000000001"><path d="M143.61,184l-1.1-3.05a7.56,7.56,0,0,0-7.95-4.93l-22.9,2.56a7.56,7.56,0,0,0-6.66,6.57l-1.94,15.49,5.17,46.25A9.77,9.77,0,0,0,119,255.48l49.4-5.52a9.78,9.78,0,0,0,8.63-10.8l-5.17-46.25-.89-8a4,4,0,0,0-4.43-3.54Zm-28.4,5.15.27-2.18a4,4,0,0,1,3.53-3.48l12.16-1.36a4,4,0,0,1,4.22,2.62l.75,2.06a4.8,4.8,0,0,1-4,6.41l-11.64,1.3A4.8,4.8,0,0,1,115.21,189.11Z" style="fill:#fff"></path></g><rect x="150.62" y="179.62" width="17.02" height="2.71" transform="translate(-19.12 18.8) rotate(-6.38)" style="fill:#3056ce"></rect><path d="M114.45,246.15,109,199.94l2.23-15.53a7.22,7.22,0,0,1,6.37-6.53l-5.94.66a7.56,7.56,0,0,0-6.66,6.57l-1.94,15.49,5.17,46.25A9.77,9.77,0,0,0,119,255.48l5.66-.64C119.32,255.44,115.05,251.52,114.45,246.15Z" style="fill:#263238;opacity:0.1"></path><rect x="102.97" y="197.27" width="69.25" height="1.36" transform="translate(-21.14 16.51) rotate(-6.38)" style="fill:#263238;opacity:0.1"></rect><rect x="108.01" y="242.36" width="69.25" height="1.36" transform="translate(-26.11 17.35) rotate(-6.38)" style="fill:#899d9e"></rect><rect x="150.62" y="179.62" width="17.02" height="2.71" transform="translate(-19.12 18.8) rotate(-6.38)" style="fill:#005EFF"></rect><path d="M156.92,173.31h3.42a5,5,0,0,1,5,5v1.32a0,0,0,0,1,0,0H151.9a0,0,0,0,1,0,0v-1.32A5,5,0,0,1,156.92,173.31Z" transform="translate(-18.62 18.71) rotate(-6.38)" style="fill:#005EFF"></path><rect x="150.62" y="179.62" width="17.02" height="2.71" transform="translate(-19.12 18.8) rotate(-6.38)" style="fill:#263238;opacity:0.30000000000000004"></rect><path d="M156.92,173.31h3.42a5,5,0,0,1,5,5v1.32a0,0,0,0,1,0,0H151.9a0,0,0,0,1,0,0v-1.32A5,5,0,0,1,156.92,173.31Z" transform="translate(-18.62 18.71) rotate(-6.38)" style="fill:#263238;opacity:0.1"></path><path d="M162.89,254.34l-6.22-2.53-3.07-1.23a3,3,0,0,1-1.7-1.66c-.81-1.95.29-4.59.34-4.7s5.87-14.24,6.49-16c.48-1.37,4.33-6.76,6.58-9.85a14.57,14.57,0,0,0,1.69-3l1.24-3.06a8.52,8.52,0,0,0,.6-2.82l0-1a13.86,13.86,0,0,1,.92-4.54c2-5.24,5.5-14.19,6.26-15.32,1-1.46,9.06-5.18,10.51-5.84l.77-1.9,9.12,3.7-.77,1.89c.59,1.49,3.8,9.79,3.49,11.51-.24,1.34-4,10.2-6.17,15.37a14,14,0,0,1-2.49,3.89l-.64.71a8.16,8.16,0,0,0-1.53,2.44l-1.24,3.06a14.53,14.53,0,0,0-.91,3.36c-.53,3.78-1.51,10.33-2.12,11.65-.79,1.71-6.44,15.88-6.49,16s-1.09,2.78-3,3.61a2.94,2.94,0,0,1-2.38,0l-2.7-1.1Z" style="fill:#005EFF"></path><path d="M162.89,254.34l-6.22-2.53-3.07-1.23a3,3,0,0,1-1.7-1.66c-.81-1.95.29-4.59.34-4.7s5.87-14.24,6.49-16c.48-1.37,4.33-6.76,6.58-9.85a14.57,14.57,0,0,0,1.69-3l1.24-3.06a8.52,8.52,0,0,0,.6-2.82l0-1a13.86,13.86,0,0,1,.92-4.54c2-5.24,5.5-14.19,6.26-15.32,1-1.46,9.06-5.18,10.51-5.84l.77-1.9,9.12,3.7-.77,1.89c.59,1.49,3.8,9.79,3.49,11.51-.24,1.34-4,10.2-6.17,15.37a14,14,0,0,1-2.49,3.89l-.64.71a8.16,8.16,0,0,0-1.53,2.44l-1.24,3.06a14.53,14.53,0,0,0-.91,3.36c-.53,3.78-1.51,10.33-2.12,11.65-.79,1.71-6.44,15.88-6.49,16s-1.09,2.78-3,3.61a2.94,2.94,0,0,1-2.38,0l-2.7-1.1Z" style="fill:#fff;opacity:0.8"></path><path d="M196,184.78l-.69,1.69s3.83,9.71,3.52,11.45c-.24,1.34-4.29,11-6.14,15.28a13.31,13.31,0,0,1-2.43,3.8l-.64.71a8.53,8.53,0,0,0-1.6,2.54l-1.24,3.07a14.59,14.59,0,0,0-.93,3.44c-.46,3.3-1.49,10.23-2.09,11.55-.81,1.73-6.5,16-6.5,16s-1.8,4.68-4.92,3.41h0l-2.7-1.09L163,254l-6.22-2.52-3.07-1.24h0c-3.11-1.26-1.15-5.88-1.15-5.88s5.86-14.23,6.5-16c.47-1.37,4.56-7.06,6.52-9.75a14.46,14.46,0,0,0,1.74-3.12l1.24-3.06a8.55,8.55,0,0,0,.62-2.95l0-.95a13.34,13.34,0,0,1,.9-4.41c1.69-4.4,5.46-14.13,6.22-15.26,1-1.47,10.5-5.77,10.5-5.77l.68-1.69,4.22,1.71,4.23,1.71m1-.4-.68-.28L192,182.39l-4.22-1.71-.68-.27-.27.68-.58,1.41c-2.09,1-9.53,4.43-10.53,5.92-.74,1.09-3.84,9-6.3,15.39a14.28,14.28,0,0,0-.95,4.66l0,.95a7.76,7.76,0,0,1-.57,2.69l-1.24,3.07a13.64,13.64,0,0,1-1.65,3c-2.76,3.79-6.15,8.59-6.62,9.94-.62,1.77-6.43,15.86-6.49,16s-1.2,2.89-.34,5a3.33,3.33,0,0,0,1.9,1.85l1,.42,2,.82,6.22,2.53,6.6,2.67,2.69,1.09a3.37,3.37,0,0,0,2.66,0c2.07-.9,3.17-3.7,3.22-3.82s5.69-14.3,6.48-16c.59-1.29,1.5-7.1,2.15-11.75a14.25,14.25,0,0,1,.88-3.27l1.24-3.07a7.91,7.91,0,0,1,1.47-2.33l.64-.7a14.37,14.37,0,0,0,2.56-4c2.69-6.32,6-14.14,6.19-15.44.32-1.77-2.62-9.44-3.45-11.58l.57-1.42.28-.67Z" style="fill:#005EFF"></path><path d="M196,184.78l-.69,1.69s3.83,9.71,3.52,11.45c-.24,1.34-4.29,11-6.14,15.28a13.31,13.31,0,0,1-2.43,3.8l-.64.71a8.53,8.53,0,0,0-1.6,2.54l-1.24,3.07a14.59,14.59,0,0,0-.93,3.44c-.46,3.3-1.49,10.23-2.09,11.55-.81,1.73-6.5,16-6.5,16s-1.8,4.68-4.92,3.41h0l-2.7-1.09L163,254l-6.22-2.52-3.07-1.24h0c-3.11-1.26-1.15-5.88-1.15-5.88s5.86-14.23,6.5-16c.47-1.37,4.56-7.06,6.52-9.75a14.46,14.46,0,0,0,1.74-3.12l1.24-3.06a8.55,8.55,0,0,0,.62-2.95l0-.95a13.34,13.34,0,0,1,.9-4.41c1.69-4.4,5.46-14.13,6.22-15.26,1-1.47,10.5-5.77,10.5-5.77l.68-1.69,4.22,1.71,4.23,1.71m1-.4-.68-.28L192,182.39l-4.22-1.71-.68-.27-.27.68-.58,1.41c-2.09,1-9.53,4.43-10.53,5.92-.74,1.09-3.84,9-6.3,15.39a14.28,14.28,0,0,0-.95,4.66l0,.95a7.76,7.76,0,0,1-.57,2.69l-1.24,3.07a13.64,13.64,0,0,1-1.65,3c-2.76,3.79-6.15,8.59-6.62,9.94-.62,1.77-6.43,15.86-6.49,16s-1.2,2.89-.34,5a3.33,3.33,0,0,0,1.9,1.85l1,.42,2,.82,6.22,2.53,6.6,2.67,2.69,1.09a3.37,3.37,0,0,0,2.66,0c2.07-.9,3.17-3.7,3.22-3.82s5.69-14.3,6.48-16c.59-1.29,1.5-7.1,2.15-11.75a14.25,14.25,0,0,1,.88-3.27l1.24-3.07a7.91,7.91,0,0,1,1.47-2.33l.64-.7a14.37,14.37,0,0,0,2.56-4c2.69-6.32,6-14.14,6.19-15.44.32-1.77-2.62-9.44-3.45-11.58l.57-1.42.28-.67Z" style="fill:#fff;opacity:0.5"></path><path d="M154.14,250.4l2.47,1,2.53,1Z" style="fill:#c1dee1"></path><path d="M167.25,255.71h0l-.41-.16Z" style="fill:#c1dee1"></path><path d="M177.24,254.35s5.69-14.31,6.5-16c.6-1.32,1.63-8.25,2.09-11.55a14.59,14.59,0,0,1,.93-3.44l1.24-3.07a8.53,8.53,0,0,1,1.6-2.54l.64-.71a13.31,13.31,0,0,0,2.43-3.8c1.85-4.33,5.9-13.94,6.14-15.28.31-1.74-3.52-11.45-3.52-11.45l.69-1.69-1.52-.62s.95,10.51.64,12.25c-.24,1.35-4.3,11-6.15,15.29a13.4,13.4,0,0,1-2.43,3.79l-.64.71a8.57,8.57,0,0,0-1.6,2.55L183,221.81a14.23,14.23,0,0,0-.92,3.44c-.47,3.31-1.49,10.24-2.1,11.55-.8,1.74-6.5,16-6.5,16s-1.8,4.68-4.91,3.42l3.71,1.5C175.43,259,177.24,254.35,177.24,254.35Z" style="fill:#263238;opacity:0.1"></path><path d="M153.74,250.24l.4.16-.41-.17Z" style="fill:#c1dee1"></path><path d="M159.14,252.43,163,254l3.82,1.55C164.75,254.69,160.94,253.15,159.14,252.43Z" style="fill:#c1dee1"></path><path d="M157.45,251.74l.41.17-.41-.17Z" style="fill:#c1dee1"></path><path d="M165.56,255l2.53,1,3.82,1.54C169.81,256.74,167.36,255.75,165.56,255Z" style="fill:#c1dee1"></path><path d="M172.32,257.76h0l-.41-.16Z" style="fill:#c1dee1"></path><path d="M156.29,245.87s5.87-14.24,6.5-16.05c.48-1.36,4.56-7,6.53-9.75a14.79,14.79,0,0,0,1.73-3.11l1.24-3.07a8.75,8.75,0,0,0,.63-2.94l0-.95a13.59,13.59,0,0,1,.89-4.42c1.69-4.4,5.46-14.12,6.23-15.25,1-1.47,10.33-7.81,10.33-7.81l-2.87-1.16-.68,1.69s-9.51,4.3-10.5,5.77c-.76,1.13-4.53,10.86-6.22,15.26a13.34,13.34,0,0,0-.9,4.41l0,.95a8.55,8.55,0,0,1-.62,2.95l-1.24,3.06a14.46,14.46,0,0,1-1.74,3.12c-2,2.69-6,8.38-6.52,9.75-.64,1.81-6.5,16-6.5,16s-2,4.62,1.16,5.88l3.71,1.5C154.34,250.48,156.29,245.87,156.29,245.87Z" style="fill:#fff"></path><path d="M197.45,183.38l1.12-2.76a3,3,0,0,0-1.65-3.89l-4.47-1.81a3,3,0,0,0-3.88,1.65l-1.12,2.76-1-.41-.39,1,12,4.87.39-1Z" style="fill:#005EFF"></path><path d="M197.45,183.38l1.12-2.76a3,3,0,0,0-1.65-3.89l-4.47-1.81a3,3,0,0,0-3.88,1.65l-1.12,2.76-1-.41-.39,1,12,4.87.39-1Z" style="fill:#fff;opacity:0.5"></path><rect x="185.05" y="185.32" width="1.64" height="24.54" transform="translate(-67.04 295.7) rotate(-67.95)" style="fill:#fff"></rect><rect x="183.24" y="189.8" width="1.64" height="24.54" transform="translate(-72.32 296.81) rotate(-67.95)" style="fill:#fff"></rect><rect x="181.43" y="194.27" width="1.64" height="24.54" transform="translate(-77.6 297.93) rotate(-67.95)" style="fill:#fff"></rect><g id="freepik--bin--inject-1"><polygon points="220.97 410.06 232.76 236.74 102.51 236.74 114.37 410.06 220.97 410.06" style="fill:#005EFF"></polygon><rect x="92.96" y="219.55" width="149.34" height="17.19" rx="7.83" style="fill:#005EFF"></rect><polygon points="231.55 250.24 232.76 236.74 102.51 236.74 103.72 250.24 231.55 250.24" style="opacity:0.21"></polygon><path d="M177.57,315.4s13.94,21.64,11.27,27.32c3.56-2.84,9.16-7,9.62-12.56.37-4.44-9.91-20.46-9.91-20.46Z" style="fill:#fff"></path><path d="M185.7,332.16s3.66,7.17,2,10.66h-9.87v3.38l-8.67-8.81,8.67-8.81v3.58Z" style="fill:#fff"></path><path d="M166.11,330.3s-25.7,1.42-29.32-3.72c.71,4.51,1.51,11.41,6.16,14.58,3.68,2.51,22.69,1.51,22.69,1.51Z" style="fill:#fff"></path><path d="M147.52,329.08s-8-.36-10.23-3.57l4.88-8.58-2.94-1.67,12-3.18L154.55,324l-3.11-1.77Z" style="fill:#fff"></path><path d="M159,313.32s11.75-22.9,18-23.43c-4.24-1.66-10.6-4.46-15.69-2.05-4,1.91-12.75,18.83-12.75,18.83Z" style="fill:#fff"></path><path d="M169.39,297.89s4.38-6.76,8.25-7l4.94,8.55,2.93-1.7-3.29,11.92-12-3.09,3.11-1.8Z" style="fill:#fff"></path><polygon points="132.63 410.06 132.63 357.89 126.87 236.74 102.51 236.74 114.29 410.06 132.63 410.06" style="fill:#fff;opacity:0.2"></polygon><polygon points="220.97 410.06 232.76 236.74 208.41 236.74 202.81 360.56 202.81 410.06 220.97 410.06" style="opacity:0.21"></polygon><path d="M120.62,219.55H100.55A7.59,7.59,0,0,0,93,227.14v2a7.59,7.59,0,0,0,7.59,7.59h20.07Z" style="fill:#fff;opacity:0.2"></path><path d="M215,236.74h19.75a7.59,7.59,0,0,0,7.6-7.59v-2a7.59,7.59,0,0,0-7.6-7.59H215Z" style="opacity:0.21"></path></g></g></g><g id="freepik--conveyor-belt--inject-1"><path d="M263.37,193.33h-3.26V194a8.23,8.23,0,0,0-5,7.55V414h16.45V201.56A8.23,8.23,0,0,0,263.37,193.33Z" style="fill:#263238"></path><path d="M263.37,193.33h-3.26V194a8.23,8.23,0,0,0-5,7.55V414h16.45V201.56A8.23,8.23,0,0,0,263.37,193.33Z" style="fill:#fff;opacity:0.1"></path><path d="M259.64,193.33h.93a7.76,7.76,0,0,1,7.76,7.76V414a0,0,0,0,1,0,0H251.88a0,0,0,0,1,0,0V201.09A7.76,7.76,0,0,1,259.64,193.33Z" style="fill:#263238"></path><path d="M259.64,193.33h.93a7.76,7.76,0,0,1,7.76,7.76V414a0,0,0,0,1,0,0H251.88a0,0,0,0,1,0,0V201.09A7.76,7.76,0,0,1,259.64,193.33Z" style="fill:#fff;opacity:0.2"></path><path d="M450.51,416.69V393a8.23,8.23,0,0,0-8.23-8.22H439v.67a8.23,8.23,0,0,0-5,7.55v23.73Z" style="fill:#263238"></path><path d="M450.51,416.69V393a8.23,8.23,0,0,0-8.23-8.22H439v.67a8.23,8.23,0,0,0-5,7.55v23.73Z" style="fill:#fff;opacity:0.1"></path><path d="M447.24,416.69V393a8.22,8.22,0,0,0-8.22-8.22h0A8.22,8.22,0,0,0,430.8,393v23.73Z" style="fill:#263238"></path><path d="M447.24,416.69V393a8.22,8.22,0,0,0-8.22-8.22h0A8.22,8.22,0,0,0,430.8,393v23.73Z" style="fill:#fff;opacity:0.2"></path><path d="M434.09,401.92H367.84L184.48,195.12h64.1a14.93,14.93,0,0,1,10.81,4.63L439.76,388.66A7.84,7.84,0,0,1,434.09,401.92Z" style="fill:#263238"></path><path d="M434.09,401.92H367.84L184.48,195.12h64.1a14.93,14.93,0,0,1,10.81,4.63L439.76,388.66A7.84,7.84,0,0,1,434.09,401.92Z" style="fill:#fff;opacity:0.4"></path><rect x="302.99" y="314.35" width="65.5" height="0.93" style="opacity:0.2"></rect><rect x="267.46" y="276.95" width="65.5" height="0.93" style="opacity:0.2"></rect><rect x="231.93" y="239.55" width="65.5" height="0.93" style="opacity:0.2"></rect><rect x="196.39" y="202.16" width="65.5" height="0.93" style="opacity:0.2"></rect><rect x="339.63" y="351.66" width="65.5" height="0.93" style="opacity:0.2"></rect><path d="M367.84,401.92h0A8.14,8.14,0,0,1,362,399.4L180,208.88a8.14,8.14,0,0,1,5.89-13.76h0a8.16,8.16,0,0,1,5.89,2.52l181.9,190.52A8.14,8.14,0,0,1,367.84,401.92Z" style="fill:#263238"></path><path d="M367.84,401.92h0A8.14,8.14,0,0,1,362,399.4L180,208.88a8.14,8.14,0,0,1,5.89-13.76h0a8.16,8.16,0,0,1,5.89,2.52l181.9,190.52A8.14,8.14,0,0,1,367.84,401.92Z" style="fill:#fff;opacity:0.5"></path><path d="M367.84,399.13a5.36,5.36,0,0,1-3.87-1.65L182.06,207a5.35,5.35,0,0,1,3.87-9.05,5.36,5.36,0,0,1,3.87,1.65L371.71,390.08a5.35,5.35,0,0,1-3.87,9.05Z" style="fill:#005EFF"></path><path d="M367.84,399.13a5.36,5.36,0,0,1-3.87-1.65L182.06,207a5.35,5.35,0,0,1,3.87-9.05,5.36,5.36,0,0,1,3.87,1.65L371.71,390.08a5.35,5.35,0,0,1-3.87,9.05Z" style="opacity:0.4"></path><circle cx="185.56" cy="202.76" r="3.85" style="fill:#005EFF"></circle><path d="M226,241.08a3.86,3.86,0,1,1-3.86-3.85A3.86,3.86,0,0,1,226,241.08Z" style="fill:#005EFF"></path><path d="M262.48,279.41a3.85,3.85,0,1,1-3.85-3.85A3.85,3.85,0,0,1,262.48,279.41Z" style="fill:#005EFF"></path><circle cx="295.16" cy="317.73" r="3.85" style="fill:#005EFF"></circle><circle cx="331.69" cy="356.06" r="3.85" style="fill:#005EFF"></circle><path d="M372.08,394.39a3.85,3.85,0,1,1-3.85-3.86A3.85,3.85,0,0,1,372.08,394.39Z" style="fill:#005EFF"></path><g style="opacity:0.2"><circle cx="185.56" cy="202.76" r="3.85" style="fill:#fff"></circle><path d="M226,241.08a3.86,3.86,0,1,1-3.86-3.85A3.86,3.86,0,0,1,226,241.08Z" style="fill:#fff"></path><path d="M262.48,279.41a3.85,3.85,0,1,1-3.85-3.85A3.85,3.85,0,0,1,262.48,279.41Z" style="fill:#fff"></path><circle cx="295.16" cy="317.73" r="3.85" style="fill:#fff"></circle><circle cx="331.69" cy="356.06" r="3.85" style="fill:#fff"></circle><path d="M372.08,394.39a3.85,3.85,0,1,1-3.85-3.86A3.85,3.85,0,0,1,372.08,394.39Z" style="fill:#fff"></path></g><rect x="376.05" y="392.18" width="65.5" height="0.93" style="opacity:0.2"></rect><path d="M188.49,193.33h-3.26V194a8.22,8.22,0,0,0-5,7.55V414h16.45V201.56A8.23,8.23,0,0,0,188.49,193.33Z" style="fill:#263238"></path><path d="M188.49,193.33h-3.26V194a8.22,8.22,0,0,0-5,7.55V414h16.45V201.56A8.23,8.23,0,0,0,188.49,193.33Z" style="fill:#fff;opacity:0.1"></path><path d="M184.76,193.33h.93a7.76,7.76,0,0,1,7.76,7.76V414a0,0,0,0,1,0,0H177a0,0,0,0,1,0,0V201.09a7.76,7.76,0,0,1,7.76-7.76Z" style="fill:#263238"></path><path d="M184.76,193.33h.93a7.76,7.76,0,0,1,7.76,7.76V414a0,0,0,0,1,0,0H177a0,0,0,0,1,0,0V201.09a7.76,7.76,0,0,1,7.76-7.76Z" style="fill:#fff;opacity:0.2"></path><path d="M189.41,201.91a3.85,3.85,0,1,1-3.85-3.85A3.85,3.85,0,0,1,189.41,201.91Z" style="fill:#fff;opacity:0.5"></path><path d="M375.63,416.69V393a8.22,8.22,0,0,0-8.22-8.22h-3.27v.67a8.25,8.25,0,0,0-5,7.55v23.73Z" style="fill:#263238"></path><path d="M375.63,416.69V393a8.22,8.22,0,0,0-8.22-8.22h-3.27v.67a8.25,8.25,0,0,0-5,7.55v23.73Z" style="fill:#fff;opacity:0.1"></path><path d="M372.37,416.69V393a8.23,8.23,0,0,0-16.45,0v23.73Z" style="fill:#263238"></path><path d="M372.37,416.69V393a8.23,8.23,0,0,0-16.45,0v23.73Z" style="fill:#fff;opacity:0.2"></path><circle cx="364.47" cy="393.32" r="3.85" style="fill:#fff;opacity:0.5"></circle></g><g id="freepik--Trash--inject-1"><path d="M342.28,273.49c0-3.29-.07-4.94-.09-6.07,0-.79,0-3,0-3a2.77,2.77,0,0,0-.84-2c-1.38-1.31-4-1.25-4.07-1.25s-13.93.27-15.63.21c-1.31,0-7.11,1.43-10.45,2.32a12.53,12.53,0,0,1-3.11.42l-3,0a7,7,0,0,1-2.57-.42l-.81-.28a12.58,12.58,0,0,0-4.12-.72c-5.08,0-13.77,0-15,.26-1.55.34-7.34,5.93-8.38,6.94l-1.84,0,.12,8.9,1.85,0c1.06,1,7,6.41,8.55,6.71,1.21.24,9.9,0,15-.15a12.85,12.85,0,0,0,4.1-.83l.8-.31a7.46,7.46,0,0,1,2.56-.49l3,0a13.09,13.09,0,0,1,3.12.34c3.36.8,9.2,2.11,10.51,2,1.7-.1,15.49-.21,15.63-.21s2.69,0,4-1.36a2.7,2.7,0,0,0,.78-2s0-1.74,0-2.64Z" style="fill:#005EFF"></path><path d="M342.28,273.49c0-3.29-.07-4.94-.09-6.07,0-.79,0-3,0-3a2.77,2.77,0,0,0-.84-2c-1.38-1.31-4-1.25-4.07-1.25s-13.93.27-15.63.21c-1.31,0-7.11,1.43-10.45,2.32a12.53,12.53,0,0,1-3.11.42l-3,0a7,7,0,0,1-2.57-.42l-.81-.28a12.58,12.58,0,0,0-4.12-.72c-5.08,0-13.77,0-15,.26-1.55.34-7.34,5.93-8.38,6.94l-1.84,0,.12,8.9,1.85,0c1.06,1,7,6.41,8.55,6.71,1.21.24,9.9,0,15-.15a12.85,12.85,0,0,0,4.1-.83l.8-.31a7.46,7.46,0,0,1,2.56-.49l3,0a13.09,13.09,0,0,1,3.12.34c3.36.8,9.2,2.11,10.51,2,1.7-.1,15.49-.21,15.63-.21s2.69,0,4-1.36a2.7,2.7,0,0,0,.78-2s0-1.74,0-2.64Z" style="fill:#fff;opacity:0.8"></path><path d="M272.84,278.55l-.06-4.11-.06-4.12,1.65,0s6.75-6.6,8.31-6.95c1.2-.27,10.63-.26,14.89-.25a12.22,12.22,0,0,1,4,.7l.81.28a7.45,7.45,0,0,0,2.69.44l3,0a13.33,13.33,0,0,0,3.2-.43c2.91-.78,9-2.35,10.35-2.31,1.73.06,15.65-.21,15.65-.21s4.52-.14,4.57,2.9h0c0,1.23,0,1.85,0,3s0,2.77.09,6.06c0,0,0,3.22.09,6.44,0,.89,0,1.79,0,2.62h0c0,3-4.49,3-4.49,3s-13.91.11-15.64.21c-1.31.08-7.48-1.33-10.41-2a13.85,13.85,0,0,0-3.21-.35l-3,0a7.92,7.92,0,0,0-2.67.52l-.8.3a12.44,12.44,0,0,1-4,.81c-4.26.13-13.68.4-14.89.16-1.57-.31-8.5-6.72-8.5-6.72l-1.64,0m-.65.67h.66l1.38,0c1.53,1.41,7,6.39,8.62,6.71,1.18.23,8.83,0,15-.15a12.94,12.94,0,0,0,4.21-.85l.8-.31a7,7,0,0,1,2.44-.47l3,0a12.93,12.93,0,0,1,3,.33c4.13,1,9.32,2.12,10.61,2,1.69-.1,15.47-.21,15.6-.21s2.84,0,4.27-1.46a3,3,0,0,0,.88-2.24c0-.83,0-1.72,0-2.62l-.08-6.44c-.05-3.29-.07-4.93-.09-6.06,0-.79,0-1.32,0-2l0-1a2.94,2.94,0,0,0-.94-2.2c-1.47-1.42-4.19-1.35-4.3-1.35s-13.91.27-15.61.22c-1.28,0-6.44,1.23-10.54,2.32a12.43,12.43,0,0,1-3,.41l-3,.05a7.1,7.1,0,0,1-2.46-.41l-.81-.28a12.71,12.71,0,0,0-4.23-.73c-6.22,0-13.87,0-15,.25-1.58.36-6.94,5.49-8.43,6.94l-1.38,0h-.66v.66l.05,4.11.06,4.12v.66Z" style="fill:#005EFF"></path><path d="M272.84,278.55l-.06-4.11-.06-4.12,1.65,0s6.75-6.6,8.31-6.95c1.2-.27,10.63-.26,14.89-.25a12.22,12.22,0,0,1,4,.7l.81.28a7.45,7.45,0,0,0,2.69.44l3,0a13.33,13.33,0,0,0,3.2-.43c2.91-.78,9-2.35,10.35-2.31,1.73.06,15.65-.21,15.65-.21s4.52-.14,4.57,2.9h0c0,1.23,0,1.85,0,3s0,2.77.09,6.06c0,0,0,3.22.09,6.44,0,.89,0,1.79,0,2.62h0c0,3-4.49,3-4.49,3s-13.91.11-15.64.21c-1.31.08-7.48-1.33-10.41-2a13.85,13.85,0,0,0-3.21-.35l-3,0a7.92,7.92,0,0,0-2.67.52l-.8.3a12.44,12.44,0,0,1-4,.81c-4.26.13-13.68.4-14.89.16-1.57-.31-8.5-6.72-8.5-6.72l-1.64,0m-.65.67h.66l1.38,0c1.53,1.41,7,6.39,8.62,6.71,1.18.23,8.83,0,15-.15a12.94,12.94,0,0,0,4.21-.85l.8-.31a7,7,0,0,1,2.44-.47l3,0a12.93,12.93,0,0,1,3,.33c4.13,1,9.32,2.12,10.61,2,1.69-.1,15.47-.21,15.6-.21s2.84,0,4.27-1.46a3,3,0,0,0,.88-2.24c0-.83,0-1.72,0-2.62l-.08-6.44c-.05-3.29-.07-4.93-.09-6.06,0-.79,0-1.32,0-2l0-1a2.94,2.94,0,0,0-.94-2.2c-1.47-1.42-4.19-1.35-4.3-1.35s-13.91.27-15.61.22c-1.28,0-6.44,1.23-10.54,2.32a12.43,12.43,0,0,1-3,.41l-3,.05a7.1,7.1,0,0,1-2.46-.41l-.81-.28a12.71,12.71,0,0,0-4.23-.73c-6.22,0-13.87,0-15,.25-1.58.36-6.94,5.49-8.43,6.94l-1.38,0h-.66v.66l.05,4.11.06,4.12v.66Z" style="fill:#fff;opacity:0.5"></path><path d="M341.83,264.83c0,2.09,0,2.4,0,2.4s0,1,0,2.48C341.87,268,341.86,266.88,341.83,264.83Z" style="fill:#c1dee1"></path><path d="M342,277.61h0c0-.14,0-.27,0-.4C342,277.35,342,277.48,342,277.61Z" style="fill:#c1dee1"></path><path d="M337.58,285.58s-13.91.11-15.64.21c-1.31.08-7.48-1.33-10.41-2a13.85,13.85,0,0,0-3.21-.35l-3,0a7.92,7.92,0,0,0-2.67.52l-.8.3a12.44,12.44,0,0,1-4,.81c-4.26.13-13.68.4-14.89.16-1.57-.31-8.5-6.72-8.5-6.72l-1.64,0,0-1.48s8.54,4.25,10.11,4.56c1.21.23,10.63,0,14.89-.17a12.17,12.17,0,0,0,4-.8l.8-.31a7.91,7.91,0,0,1,2.67-.51l3,0a12.84,12.84,0,0,1,3.21.35c2.93.69,9.1,2.1,10.41,2,1.73-.11,15.65-.21,15.65-.21s4.52,0,4.48-3c0,1.58,0,2.06.05,3.61C342.12,285.59,337.58,285.58,337.58,285.58Z" style="fill:#263238;opacity:0.1"></path><path d="M341.83,264.44v0Z" style="fill:#c1dee1"></path><path d="M341.9,269.71c0,1.45.05,3.78.05,3.78s0,1.63.05,3.73C342,275.17,341.92,271.46,341.9,269.71Z" style="fill:#c1dee1"></path><path d="M341.88,268.06v.39c0-.13,0-.26,0-.4Z" style="fill:#c1dee1"></path><path d="M342,276c0,1.46,0,2.47,0,2.47s0,1.63.05,3.73C342,280.11,342,277.72,342,276Z" style="fill:#c1dee1"></path><path d="M342.07,282.55h0v0Z" style="fill:#c1dee1"></path><path d="M337.31,265.15s-13.92.28-15.65.22c-1.31-.05-7.44,1.53-10.35,2.3a13.86,13.86,0,0,1-3.2.44l-3,0a7.89,7.89,0,0,1-2.68-.44l-.81-.29a12.21,12.21,0,0,0-4-.69c-4.26,0-13.69,0-14.89.24-1.56.35-10,6.15-10,6.15l0-2.8,1.65,0s6.75-6.6,8.31-6.95c1.2-.27,10.63-.26,14.89-.25a12.22,12.22,0,0,1,4,.7l.81.28a7.45,7.45,0,0,0,2.69.44l3,0a13.33,13.33,0,0,0,3.2-.43c2.91-.78,9-2.35,10.35-2.31,1.73.06,15.65-.21,15.65-.21s4.53-.14,4.57,2.91c0,1.55,0,2,0,3.61C341.83,265,337.31,265.15,337.31,265.15Z" style="fill:#fff"></path><path d="M271.17,279.33l-2.69,0a2.69,2.69,0,0,1-2.73-2.66l-.06-4.36a2.69,2.69,0,0,1,2.66-2.73l2.69,0v-1H272l.15,11.71h-.93Z" style="fill:#005EFF"></path><path d="M271.17,279.33l-2.69,0a2.69,2.69,0,0,1-2.73-2.66l-.06-4.36a2.69,2.69,0,0,1,2.66-2.73l2.69,0v-1H272l.15,11.71h-.93Z" style="fill:#fff;opacity:0.5"></path><rect x="286.17" y="263.15" width="1.55" height="22.19" transform="translate(-3.71 3.93) rotate(-0.78)" style="fill:#fff"></rect><rect x="290.53" y="263.09" width="1.55" height="22.19" transform="translate(-3.7 3.99) rotate(-0.78)" style="fill:#fff"></rect><rect x="294.9" y="263.03" width="1.55" height="22.19" transform="translate(-3.71 4.05) rotate(-0.78)" style="fill:#fff"></rect><path d="M272.52,215.52l-36,7.53c-.84.1-1.19,3.15-.62,8.25s1.59,8,2.43,7.91l36.81-.61Z" style="fill:#005EFF"></path><path d="M272.52,215.52l-36,7.53c-.84.1-1.19,3.15-.62,8.25s1.59,8,2.43,7.91l36.81-.61Z" style="fill:#fff;opacity:0.8"></path><polygon points="262.15 238.78 262.15 238.78 262.99 238.77 262.99 238.77 262.15 238.78" style="fill:#acb9ba"></polygon><polygon points="260.67 218.03 259.85 218.2 259.85 218.2 260.67 218.03 260.67 218.03" style="fill:#acb9ba"></polygon><polygon points="262.3 238.78 262.15 238.78 262.15 238.78 262.3 238.78" style="fill:#acb9ba"></polygon><path d="M263,238.77a55.29,55.29,0,0,1-2.29-10.24,66.37,66.37,0,0,1,0-10.5l-.82.17a64.44,64.44,0,0,0,0,10.42,51.76,51.76,0,0,0,2.28,10.16H263Z" style="fill:#fff"></path><path d="M257.54,228.88a65.8,65.8,0,0,1-.05-10.19l-.82.17a63.08,63.08,0,0,0,0,10.11,53.29,53.29,0,0,0,2.18,9.87h.84A56.13,56.13,0,0,1,257.54,228.88Z" style="fill:#fff"></path><path d="M254.23,229.25a65.4,65.4,0,0,1-.07-9.87l-.82.17a60.57,60.57,0,0,0,.07,9.79,51,51,0,0,0,2.08,9.56h.84A55.13,55.13,0,0,1,254.23,229.25Z" style="fill:#fff"></path><polygon points="259.64 238.83 259.04 238.84 259.64 238.83 259.64 238.83" style="fill:#acb9ba"></polygon><path d="M272.17,215c-.24,0-.44.3-.6.78l1.29-.27C272.62,215.15,272.39,215,272.17,215Z" style="fill:#d0dfe1"></path><path d="M274.88,239.2c.21,0,.4-.26.55-.65l-1.31,0C274.38,239,274.64,239.22,274.88,239.2Z" style="fill:#d0dfe1"></path><path d="M275.55,238.2c.52-1.9.56-6.28,0-11.33s-1.56-9.32-2.5-11.06c-.06-.11-.12-.22-.18-.31l-1.29.27c-.59,1.76-.65,6.29-.06,11.55s1.64,9.67,2.61,11.25l1.31,0C275.47,238.44,275.51,238.33,275.55,238.2Z" style="fill:#005EFF"></path><path d="M275.55,238.2c.52-1.9.56-6.28,0-11.33s-1.56-9.32-2.5-11.06c-.06-.11-.12-.22-.18-.31l-1.29.27c-.59,1.76-.65,6.29-.06,11.55s1.64,9.67,2.61,11.25l1.31,0C275.47,238.44,275.51,238.33,275.55,238.2Z" style="fill:#fff;opacity:0.6000000000000001"></path><path d="M276,226.82c-.06-.51-1.41-12.39-3.82-12.12-.46.05-.79.54-1,1.28-.94,3.14-.09,11,0,11.38s.94,8.25,2.55,11.1c.38.68.81,1.07,1.27,1C277.32,239.21,276,227.33,276,226.82Zm-3.52-11.11a6.71,6.71,0,0,1,.78,1.65h0a46.68,46.68,0,0,1,1.91,9.55,45.72,45.72,0,0,1,.24,9.74,6.28,6.28,0,0,1-.39,1.78h0a.73.73,0,0,1-.16.22.61.61,0,0,1-.23-.21c-.7-.92-1.95-4.74-2.66-11.17s-.35-10.43.13-11.48a.55.55,0,0,1,.17-.26.77.77,0,0,1,.21.18" style="fill:#005EFF"></path><path d="M276,226.82c-.06-.51-1.41-12.39-3.82-12.12-.46.05-.79.54-1,1.28-.94,3.14-.09,11,0,11.38s.94,8.25,2.55,11.1c.38.68.81,1.07,1.27,1C277.32,239.21,276,227.33,276,226.82Zm-3.52-11.11a6.71,6.71,0,0,1,.78,1.65h0a46.68,46.68,0,0,1,1.91,9.55,45.72,45.72,0,0,1,.24,9.74,6.28,6.28,0,0,1-.39,1.78h0a.73.73,0,0,1-.16.22.61.61,0,0,1-.23-.21c-.7-.92-1.95-4.74-2.66-11.17s-.35-10.43.13-11.48a.55.55,0,0,1,.17-.26.77.77,0,0,1,.21.18" style="fill:#fff;opacity:0.4"></path></g><g id="freepik--character-2--inject-1"><polygon points="370.99 434.1 367.02 432.45 369.7 422.79 373.68 424.43 370.99 434.1" style="fill:#ebb376"></polygon><path d="M367.2,426.37l8,1.47s1.37-25.5,5-39.27c2-7.55,5.57-19.61,8.7-29.95,1.54-5.12,3-9.82,4.06-13.33C394.2,341.42,395,339,395,339l-14.3-5.74s-9.67,37.39-12.2,50.24C365.69,397.54,367.2,426.37,367.2,426.37Z" style="fill:#263238"></path><path d="M367.3,430.22h5.24a.38.38,0,0,1,.37.29l.89,3.82a.64.64,0,0,1-.63.77c-1.68,0-2.91-.13-5-.13-1.31,0-5.25.14-7.05.14s-2.06-1.79-1.32-1.95c3.3-.73,5.79-1.73,6.84-2.68A1,1,0,0,1,367.3,430.22Z" style="fill:#263238"></path><path d="M387.2,364.42l2.55-8.47-.58-4.08A65.73,65.73,0,0,0,387.2,364.42Z" style="opacity:0.30000000000000004"></path><polygon points="418.34 433.62 414.13 434.5 410.89 425.01 415.1 424.13 418.34 433.62" style="fill:#ebb376"></polygon><path d="M387.23,338.08s5.24,38.26,7.77,51.11c2.78,14.06,15.11,40.16,15.11,40.16l8-1.69s-8.41-24.11-10.27-38.23c-2.08-15.8-5.2-51.47-5.2-51.47Z" style="fill:#263238"></path><path d="M412.6,430.22h5.24a.38.38,0,0,1,.37.29l.89,3.82a.63.63,0,0,1-.62.77c-1.69,0-2.92-.13-5-.13-1.31,0-5.25.14-7.06.14s-2.06-1.79-1.32-1.95c3.31-.73,5.79-1.73,6.85-2.68A1,1,0,0,1,412.6,430.22Z" style="fill:#263238"></path><path d="M387.2,304.54c-5.41,1.21-16.44,13.59-16.44,13.59l-19.94,2-.21,4.71s19.51.39,22,.16,14.55-9.6,14.55-9.6Z" style="fill:#005EFF"></path><path d="M351.24,324.65l-5.93-.45,1.22-5.06s4.19-.26,5.65,2.88Z" style="fill:#ebb376"></path><polygon points="341.74 321.93 343.55 318.38 346.53 319.14 345.31 324.2 341.74 321.93" style="fill:#ebb376"></polygon><path d="M380.9,320.09c1.69-1.21,3.3-2.41,4.47-3.29a9.81,9.81,0,0,0,.45-4.25S381.71,315.76,380.9,320.09Z" style="opacity:0.1"></path><path d="M387.2,304.54s-6.6,11.79-5.2,35.65l22.07,3.07c.63-3.37.8-20.2,6.29-35.71a57.28,57.28,0,0,0-7.26-2,82.18,82.18,0,0,0-9.39-1.31A41.54,41.54,0,0,0,387.2,304.54Z" style="fill:#005EFF"></path><path d="M382,340.19l17.8,2.47,4.27.6c.39-2.06.6-9.19,2-18,0-.18.06-.38.09-.57.38-2.41.86-4.94,1.45-7.52a90.28,90.28,0,0,1,2.78-9.66,58.18,58.18,0,0,0-7.26-2,80,80,0,0,0-9.39-1.31,43,43,0,0,0-6.51.26S380.6,316.33,382,340.19Z" style="fill:#fff;opacity:0.4"></path><path d="M403.6,295.49c-1.11,2.9-2.63,8.31-.87,10.67-3.09.73-5.31,1.21-8.12,3-.56-2-1.22-4.57-1.22-4.57,3.49-.23,3.82-2.73,3.64-5.17Z" style="fill:#ebb376"></path><path d="M400.92,297.09,397,299.4a9.78,9.78,0,0,1,0,1.71c1.31,0,3.31-1.07,3.67-2.39A4.75,4.75,0,0,0,400.92,297.09Z" style="opacity:0.2"></path><polygon points="405.85 306.21 404.02 303.92 398.08 305.06 395.06 308.52 394.68 304.53 393.57 303.19 391.13 304.25 391.13 306.74 392.87 306.18 394.37 309.66 399.11 307.71 400.17 309.06 405.85 306.21" style="fill:#005EFF"></polygon><polygon points="405.85 306.21 404.02 303.92 398.08 305.06 395.06 308.52 394.68 304.53 393.57 303.19 391.13 304.25 391.13 306.74 392.87 306.18 394.37 309.66 399.11 307.71 400.17 309.06 405.85 306.21" style="fill:#fff;opacity:0.7000000000000001"></polygon><polygon points="394.37 309.66 393.79 305.49 391.13 306.74 392.87 306.18 394.37 309.66" style="opacity:0.1"></polygon><polygon points="394.37 309.66 398.77 306.43 400.17 309.06 399.11 307.71 394.37 309.66" style="opacity:0.1"></polygon><path d="M395.85,285.22c-1.26,1.1-1.48,3-1.71,4.27s-.7,2.81,1.15,1.35S399.83,282.62,395.85,285.22Z" style="fill:#263238"></path><path d="M404.89,292.44c-1.16,4.05-.71,4.84-3.25,6.47-3.82,2.45-9.06,1.94-8.89-2.38.16-3.89,1.27-10.76,5.65-11.47A5.8,5.8,0,0,1,404.89,292.44Z" style="fill:#ebb376"></path><path d="M394.3,295.14a14.3,14.3,0,0,1,.06,2l.35.07c1.58.31,2.42-.07,2.87-.58a2,2,0,0,0,.43-.89,2.14,2.14,0,0,0,.07-.56,7.71,7.71,0,0,1-3.24,0C394.51,295.19,394.3,295.14,394.3,295.14Z" style="fill:#263238"></path><path d="M394.84,295.24l0,.59c1.49.29,2.58.29,3.13-.07a2.14,2.14,0,0,0,.07-.56A7.71,7.71,0,0,1,394.84,295.24Z" style="fill:#fff"></path><path d="M394.71,297.23c1.58.31,2.42-.07,2.87-.58a5.11,5.11,0,0,0-1.83,0A2,2,0,0,0,394.71,297.23Z" style="fill:#de5753"></path><path d="M403.21,296.57c-2.17-.4-1.13-2.17-.92-2.85a4.52,4.52,0,0,0,.26-3.27c-.41-1.8,2.88-4,5.24-2.88C410,288.59,406.83,297.24,403.21,296.57Z" style="fill:#263238"></path><path d="M406.16,295.6a3.88,3.88,0,0,1-2.33,1.59c-1.2.23-1.57-1-1.05-2.15s1.67-2.46,2.79-2.16S406.87,294.57,406.16,295.6Z" style="fill:#ebb376"></path><path d="M396.19,291.08a9.8,9.8,0,0,1-1.75,2.05,1.62,1.62,0,0,0,1.25.5Z" style="fill:#d58745"></path><path d="M408.61,285.91c-1.86-5.67-11.71-3.71-11.54-7.35-1.59,1.09-2.77,3.78-2.17,5.44a4.35,4.35,0,0,0,4.18,2.77c4-.11,4.48,1.69,4.48,1.69l3.55.44S409.25,287.89,408.61,285.91Z" style="fill:#263238"></path><path d="M399.12,291.35c-.07.35-.31.59-.53.54s-.35-.37-.28-.71.31-.59.53-.54S399.19,291,399.12,291.35Z" style="fill:#263238"></path><path d="M395.22,290.51c-.07.34-.31.58-.54.54s-.35-.37-.28-.72.32-.58.54-.54S395.29,290.16,395.22,290.51Z" style="fill:#263238"></path><path d="M401.24,290.45a.21.21,0,0,1-.17-.12,1.69,1.69,0,0,0-1.16-1,.2.2,0,0,1-.17-.23A.21.21,0,0,1,400,289a2.13,2.13,0,0,1,1.48,1.2.2.2,0,0,1-.1.27A.15.15,0,0,1,401.24,290.45Z" style="fill:#263238"></path><path d="M394.48,288.9a.28.28,0,0,1-.12,0,.21.21,0,0,1,0-.29,2,2,0,0,1,1.69-.83.21.21,0,0,1,.19.22.2.2,0,0,1-.22.19,1.65,1.65,0,0,0-1.34.67A.18.18,0,0,1,394.48,288.9Z" style="fill:#263238"></path><path d="M399.8,342.66l4.27.6c.39-2.06.6-9.19,2-18-1.52-4-3-7.11-3-7.11a57.37,57.37,0,0,0-7.73,10.23C392.7,332.83,395.3,339.5,399.8,342.66Z" style="opacity:0.1"></path><path d="M343.49,299.88,349,290a2.71,2.71,0,0,1,1.91-1.43l1.39-.23-.2-1.2,11.77-2,.2,1.2,1.4-.23a2.73,2.73,0,0,1,2.27.72l8.47,7.56a6.84,6.84,0,0,1,2.12,4l7.89,47.1c.62,3.75-1.35,7.21-4.41,7.72l-24.49,4.1c-3.07.52-6.06-2.11-6.69-5.86l-7.88-47.11A6.86,6.86,0,0,1,343.49,299.88Z" style="fill:#005EFF"></path><g style="opacity:0.9"><path d="M343.49,299.88,349,290a2.71,2.71,0,0,1,1.91-1.43l1.39-.23-.2-1.2,11.77-2,.2,1.2,1.4-.23a2.73,2.73,0,0,1,2.27.72l8.47,7.56a6.84,6.84,0,0,1,2.12,4l7.89,47.1c.62,3.75-1.35,7.21-4.41,7.72l-24.49,4.1c-3.07.52-6.06-2.11-6.69-5.86l-7.88-47.11A6.86,6.86,0,0,1,343.49,299.88Z" style="fill:#fff"></path></g><path d="M383.61,345.92l-7.89-47.1a6.82,6.82,0,0,0-2.11-4l-8.48-7.57a2.74,2.74,0,0,0-2.27-.72l-1.39.23-.2-1.2,2.64-.44.2,1.2,1.4-.23a2.73,2.73,0,0,1,2.27.72l8.47,7.56a6.84,6.84,0,0,1,2.12,4l7.89,47.1c.62,3.75-1.35,7.21-4.41,7.72l-2.65.45C382.26,353.13,384.24,349.67,383.61,345.92Z" style="fill:#263238;opacity:0.1"></path><rect x="342.68" y="301.28" width="36.08" height="1.86" transform="translate(766.39 540.7) rotate(170.5)" style="fill:#005EFF"></rect><rect x="349.88" y="344.28" width="36.08" height="1.86" transform="translate(787.79 624.92) rotate(170.5)" style="fill:#005EFF"></rect><rect x="342.68" y="301.28" width="36.08" height="1.86" transform="translate(766.39 540.7) rotate(170.5)" style="fill:#fff;opacity:0.8"></rect><rect x="349.88" y="344.28" width="36.08" height="1.86" transform="translate(787.79 624.92) rotate(170.5)" style="fill:#fff;opacity:0.8"></rect><rect x="342.68" y="301.28" width="36.08" height="1.86" transform="translate(766.39 540.7) rotate(170.5)" style="fill:#263238;opacity:0.1"></rect><rect x="349.88" y="344.28" width="36.08" height="1.86" transform="translate(787.79 624.92) rotate(170.5)" style="fill:#263238;opacity:0.1"></rect><rect x="350.93" y="283.46" width="13.75" height="2.68" transform="translate(757.73 506.61) rotate(170.5)" style="fill:#005EFF"></rect><path d="M351.63,277.25h10.88a0,0,0,0,1,0,0v2.16a4.12,4.12,0,0,1-4.12,4.12h-2.64a4.12,4.12,0,0,1-4.12-4.12v-2.16A0,0,0,0,1,351.63,277.25Z" transform="translate(755.53 497.96) rotate(170.5)" style="fill:#005EFF"></path><rect x="350.93" y="283.46" width="13.75" height="2.68" transform="translate(757.73 506.61) rotate(170.5)" style="fill:#fff;opacity:0.5"></rect><rect x="350.93" y="283.46" width="13.75" height="2.68" transform="translate(757.73 506.61) rotate(170.5)" style="fill:#263238;opacity:0.1"></rect><path d="M351.63,277.25h10.88a0,0,0,0,1,0,0v2.16a4.12,4.12,0,0,1-4.12,4.12h-2.64a4.12,4.12,0,0,1-4.12-4.12v-2.16A0,0,0,0,1,351.63,277.25Z" transform="translate(755.53 497.96) rotate(170.5)" style="fill:#fff;opacity:0.5"></path><path d="M357.36,357.3l24.49-4.1c3.06-.51,5-4,4.41-7.72l-7.89-47.1a6.84,6.84,0,0,0-2.12-4l-8.47-7.56a2.73,2.73,0,0,0-2.27-.72l-1.4.23-.2-1.2-11.77,2,.2,1.2-1.39.23A2.71,2.71,0,0,0,349,290l-5.55,9.91a6.86,6.86,0,0,0-.7,4.45l7.88,47.11C351.3,355.19,354.29,357.82,357.36,357.3Zm-5.87-6-7.89-47.1a6.1,6.1,0,0,1,.61-3.92l5.55-9.91a2,2,0,0,1,1.15-1l.18,0,2.21-.37-.2-1.2,10.13-1.7.21,1.2,2.2-.37a1.91,1.91,0,0,1,1.59.53L375.7,295a6,6,0,0,1,1.85,3.5l7.89,47.1c.51,3.07-.94,6-3.31,6.68h0l-.42.1-24.49,4.1C354.61,356.92,352,354.6,351.49,351.3Z" style="fill:#005EFF"></path><path d="M357.36,357.3l24.49-4.1c3.06-.51,5-4,4.41-7.72l-7.89-47.1a6.84,6.84,0,0,0-2.12-4l-8.47-7.56a2.73,2.73,0,0,0-2.27-.72l-1.4.23-.2-1.2-11.77,2,.2,1.2-1.39.23A2.71,2.71,0,0,0,349,290l-5.55,9.91a6.86,6.86,0,0,0-.7,4.45l7.88,47.11C351.3,355.19,354.29,357.82,357.36,357.3Zm-5.87-6-7.89-47.1a6.1,6.1,0,0,1,.61-3.92l5.55-9.91a2,2,0,0,1,1.15-1l.18,0,2.21-.37-.2-1.2,10.13-1.7.21,1.2,2.2-.37a1.91,1.91,0,0,1,1.59.53L375.7,295a6,6,0,0,1,1.85,3.5l7.89,47.1c.51,3.07-.94,6-3.31,6.68h0l-.42.1-24.49,4.1C354.61,356.92,352,354.6,351.49,351.3Z" style="fill:#fff;opacity:0.5"></path><path d="M380.38,335.82l-5.3,2.69,3.06,4.2s4-1.36,4.11-4.82Z" style="fill:#ebb376"></path><polygon points="372.65 341.97 375.68 344.56 378.14 342.71 375.08 338.51 372.65 341.97" style="fill:#ebb376"></polygon><path d="M410.36,307.55c5.8,3.6-3.88,22.42-5.7,25.23s-22.41,7.41-22.41,7.41l-2.54-4.37,19.12-8.49,5.83-14.62C406.92,308,410.36,307.55,410.36,307.55Z" style="fill:#005EFF"></path></g><g id="freepik--character-1--inject-1"><path d="M76.61,273.66c4.47,0,12.62,16.22,12.62,16.22l-3,4.92-9.45-11.1Z" style="fill:#005EFF"></path><path d="M77,283.94l7.91,9.27c0-.17-.08-.36-.14-.57-2.18-7.85-7.51-11.12-7.51-11.12A8.21,8.21,0,0,0,77,283.94Z" style="opacity:0.1"></path><polygon points="89.26 412.12 84.89 413.35 83.85 406.56 83.29 402.92 87.66 401.68 88.4 406.56 89.26 412.12" style="fill:#e4897b"></polygon><polygon points="64.14 412.47 59.64 413.07 59.6 406.56 59.57 402.51 64.08 401.92 64.11 406.56 64.14 412.47" style="fill:#e4897b"></polygon><polygon points="64.08 401.92 64.11 406.56 59.6 406.56 59.57 402.51 64.08 401.92" style="opacity:0.2"></polygon><polygon points="88.4 406.56 83.85 406.56 83.29 402.92 87.66 401.68 88.4 406.56" style="opacity:0.2"></polygon><path d="M89.21,411.44l-5-.14a.4.4,0,0,0-.4.3l-1,4a.65.65,0,0,0,.62.82c1.79,0,4.38,0,6.63,0,2.63.07,4.3-.06,7.39,0,1.86.05,2.45-1.82,1.67-2-3.53-.87-5.83-.69-8.83-2.66A2,2,0,0,0,89.21,411.44Z" style="fill:#263238"></path><path d="M89.56,412a.11.11,0,0,1,.06-.1c.21-.1,2.07-1,2.61-.66a.34.34,0,0,1,.17.29.62.62,0,0,1-.22.52c-.51.42-1.81.21-2.54.05h0A.11.11,0,0,1,89.56,412Zm.45-.05a2.94,2.94,0,0,0,2-.06.44.44,0,0,0,.15-.35.14.14,0,0,0-.07-.11l0,0A4.46,4.46,0,0,0,90,411.93Z" style="fill:#005EFF"></path><path d="M89.6,412.06a.13.13,0,0,1,0-.1,3.13,3.13,0,0,1,.77-1.72.78.78,0,0,1,.6-.17c.3,0,.38.19.39.31.07.51-1,1.46-1.61,1.69H89.6Zm1.3-1.78a.56.56,0,0,0-.44.13,2.52,2.52,0,0,0-.65,1.37c.57-.32,1.34-1.06,1.3-1.37,0,0,0-.07-.1-.1Z" style="fill:#005EFF"></path><path d="M64,411.44l-5-.14a.4.4,0,0,0-.39.3l-1,4a.66.66,0,0,0,.63.82c1.79,0,4.38,0,6.63,0,2.63.07,4.3-.06,7.38,0,1.87.05,2.45-1.82,1.68-2-3.53-.87-5.83-.69-8.83-2.66A2,2,0,0,0,64,411.44Z" style="fill:#263238"></path><path d="M64.32,412a.11.11,0,0,1,.06-.1c.21-.1,2.07-1,2.61-.66a.36.36,0,0,1,.17.29.62.62,0,0,1-.22.52c-.51.42-1.81.21-2.54.05h0A.11.11,0,0,1,64.32,412Zm.45-.05a2.94,2.94,0,0,0,2-.06.44.44,0,0,0,.15-.35.14.14,0,0,0-.07-.11l0,0A4.46,4.46,0,0,0,64.77,411.93Z" style="fill:#005EFF"></path><path d="M64.36,412.06a.13.13,0,0,1,0-.1,3.05,3.05,0,0,1,.77-1.72.78.78,0,0,1,.6-.17c.3,0,.38.19.39.31.07.51-1,1.46-1.61,1.69h-.11Zm1.3-1.78a.56.56,0,0,0-.44.13,2.52,2.52,0,0,0-.65,1.37c.57-.32,1.34-1.06,1.3-1.37,0,0,0-.07-.1-.1Z" style="fill:#005EFF"></path><path d="M54.85,313.46c-2.38,10.34,1.71,91.71,1.71,91.71h7.92l3.38-67.81,12.46,67.81,8.46-.62C83.25,352,78.36,320.66,78.36,320.66l-.68-7.2Z" style="fill:#263238"></path><path d="M50,275.18c1.32,4.9,3.28,9.8,3.81,14.5.38,3.43.6,6.71.73,9.69.3,7,.1,12.29.28,14.09,3.48-.24,15.7.5,22.83,0,3.48-25.23-1.07-39.8-1.07-39.8l-6.28-.78-1.23-.05a88.13,88.13,0,0,0-10.07.7c-.63.08-1.27.17-1.9.27C54,274.32,50,275.18,50,275.18Z" style="fill:#005EFF"></path><g style="opacity:0.4"><path d="M50,275.18c1.32,4.9,3.28,9.8,3.81,14.5.38,3.43.6,6.71.73,9.69.3,7,.1,12.29.28,14.09,3.48-.24,15.7.5,22.83,0,3.48-25.23-1.07-39.8-1.07-39.8l-6.28-.78-1.23-.05a88.13,88.13,0,0,0-10.07.7c-.63.08-1.27.17-1.9.27C54,274.32,50,275.18,50,275.18Z" style="fill:#fff"></path></g><path d="M59.82,273.25S66,276.31,67.56,276c1.11-.25,2.34-2.41,2.34-2.41a4.76,4.76,0,0,1-2-1c-1.42-1.29-1.16-3.26-.62-5.12l-6-5.47a30.1,30.1,0,0,1,.38,4.79h0C61.66,269.35,61.23,272,59.82,273.25Z" style="fill:#e4897b"></path><path d="M61.65,266.73h0c1.07,2.71,3,5.7,6.21,5.79-1.42-1.29-1.16-3.26-.62-5.12l-6-5.47A30.1,30.1,0,0,1,61.65,266.73Z" style="opacity:0.2"></path><path d="M73.94,256.61c.56,1.7.29,5.21-2.1,4.09S73,253.68,73.94,256.61Z" style="fill:#263238"></path><path d="M61.66,259c-.22,4.39-.57,7,1.38,9.42,2.95,3.71,8.57,2.26,10.11-2,1.38-3.82,1.51-10.36-2.58-12.53A6.06,6.06,0,0,0,61.66,259Z" style="fill:#e4897b"></path><path d="M69.6,267.19a2.23,2.23,0,0,1-1.83-1,.22.22,0,1,1,.35-.27,1.76,1.76,0,0,0,2.25.64.23.23,0,0,1,.3.1.22.22,0,0,1-.09.3A2.37,2.37,0,0,1,69.6,267.19Z" style="fill:#263238"></path><path d="M64.79,256.26l0-4.9s-5.3,0-5,2.68c-2.88,1.46-1.71,7.86,2.19,10C64,262.35,64,256.33,64,256.33,64,255.84,64.45,256.53,64.79,256.26Z" style="fill:#263238"></path><path d="M59.57,262.48a4.11,4.11,0,0,0,1.78,2.63c1.23.79,2.29-.2,2.32-1.59s-.58-3.17-2-3.4A1.9,1.9,0,0,0,59.57,262.48Z" style="fill:#e4897b"></path><path d="M68.16,260.93c0,.35.12.66.35.69s.45-.25.49-.6-.11-.67-.35-.69S68.2,260.57,68.16,260.93Z" style="fill:#263238"></path><path d="M72.18,261.34c0,.36.12.66.35.69s.46-.25.5-.6-.12-.67-.35-.69S72.22,261,72.18,261.34Z" style="fill:#263238"></path><path d="M70.88,261.39a12.19,12.19,0,0,0,1.41,3.11,2.13,2.13,0,0,1-1.73.11Z" style="fill:#de5753"></path><path d="M67.06,259.5a.21.21,0,0,0,.21-.06,1.71,1.71,0,0,1,1.42-.56.21.21,0,1,0,.07-.41,2.1,2.1,0,0,0-1.8.69.21.21,0,0,0,0,.29A.14.14,0,0,0,67.06,259.5Z" style="fill:#263238"></path><path d="M74.07,260.14a.2.2,0,0,0,.13,0,.21.21,0,0,0,.12-.27A2.1,2.1,0,0,0,73,258.53a.22.22,0,0,0-.25.16.21.21,0,0,0,.15.25A1.64,1.64,0,0,1,73.93,260,.23.23,0,0,0,74.07,260.14Z" style="fill:#263238"></path><path d="M64,256.33a27.86,27.86,0,0,0,5,1.05,17,17,0,0,0,2.94.1,4.86,4.86,0,0,0,3-.84c1.08-.94,1.1-2.27,1-3.58a4.19,4.19,0,0,0-1-2.25c.29.4,0,1.84-.61,1.91a2.65,2.65,0,0,0,0-1.37,4.69,4.69,0,0,0-.52-.86,1.34,1.34,0,0,1-.12,1.23c-.15.16-.37.31-.53.46a1.34,1.34,0,0,0,0-1c-.25.29-.28.63-.71.81a1.67,1.67,0,0,1-1.38-.16,11.32,11.32,0,0,0-1.72-.41,26.77,26.77,0,0,0-3.1-.38c-1.91-.11-7.5.38-7,3.45.06.37,0,.34.42.44.15,0,.26,0,.4,0a5.31,5.31,0,0,1,1.58.69A23.4,23.4,0,0,0,64,256.33Z" style="fill:#263238"></path><path d="M67.56,276s-1,1.44-2.27,2.88c-2-.81-6.76-3-6.75-5.45.21-.72,2-1.33,2-1.33A16.74,16.74,0,0,0,67.56,276Z" style="fill:#005EFF"></path><path d="M67.56,276a12.93,12.93,0,0,1,2.72,2.44c1.34-1,.23-5.46-.33-5.91a5.07,5.07,0,0,0-2.5-.43A4.14,4.14,0,0,1,67.56,276Z" style="fill:#005EFF"></path><g style="opacity:0.7000000000000001"><path d="M67.56,276s-1,1.44-2.27,2.88c-2-.81-6.76-3-6.75-5.45.21-.72,2-1.33,2-1.33A16.74,16.74,0,0,0,67.56,276Z" style="fill:#fff"></path><path d="M67.56,276a12.93,12.93,0,0,1,2.72,2.44c1.34-1,.23-5.46-.33-5.91a5.07,5.07,0,0,0-2.5-.43A4.14,4.14,0,0,1,67.56,276Z" style="fill:#fff"></path></g><path d="M52.88,285.42a12.62,12.62,0,0,1-.39,5c-.26-1.69-.51-3.38-.76-5A2.59,2.59,0,0,1,52.88,285.42Z" style="opacity:0.2"></path><path d="M70.51,351.79l-2.65-14.43.51-7.63S72,343,70.51,351.79Z" style="opacity:0.2"></path><path d="M53.69,299.52c.3.05.59.08.89.11a17.7,17.7,0,0,0,4.71-.29,19.2,19.2,0,0,0,3.12-.84c10.87-4.06,10.72-6.43,10.72-6.43s-7.13,1-10.89-.31a6.2,6.2,0,0,1-2.37-1.8c-2.88-3.2-5.31-9.2-5.31-9.2s-.71.94-1.64,2.41c-.39.59-.81,1.28-1.23,2,0,.09,0,.16,0,.25.25,1.6.51,3.28.76,5h0C53,293.59,53.39,296.78,53.69,299.52Z" style="opacity:0.1"></path><path d="M73,288.24l.47,2.88c1.54,2.64,4.6.08,4.6.08l2-.63A1.55,1.55,0,0,0,81,288.8l-.31-2A1.61,1.61,0,0,0,79,285.34l-1.79.27a3.12,3.12,0,0,0-1.43.59Z" style="fill:#e4897b"></path><path d="M50,275.18c-6.33,3.28,3.56,22.76,6.17,22.93,4.93.33,18.34-5.15,18.34-5.15l-1.11-5.45s-13.15,4.13-14.38,3.86c-1.61-.34-3.95-8-5-11.6A7,7,0,0,0,50,275.18Z" style="fill:#005EFF"></path><path d="M79.63,301.92h0l13.06-1.51a1.25,1.25,0,0,0,1-1l3-19.95a.71.71,0,0,0-.22-.67.68.68,0,0,0-.54-.16l-13.07,1.52a1.26,1.26,0,0,0-1,1l-3,20A.67.67,0,0,0,79.63,301.92Z" style="fill:#263238"></path><path d="M79.63,301.92h0l13.06-1.51a1.25,1.25,0,0,0,1-1l3-19.95a.71.71,0,0,0-.22-.67.68.68,0,0,0-.54-.16l-13.07,1.52a1.26,1.26,0,0,0-1,1l-3,20A.67.67,0,0,0,79.63,301.92Z" style="fill:#fff;opacity:0.6000000000000001"></path><path d="M79.65,301.91l13.06-1.51a1.25,1.25,0,0,0,1-1l3-19.95a.71.71,0,0,0-.22-.67l-13,1.51a1.24,1.24,0,0,0-1,1l-3,19.95A.71.71,0,0,0,79.65,301.91Z" style="opacity:0.4"></path><polygon points="93.6 279.99 93.97 277.75 85.71 278.7 85.45 280.89 93.6 279.99" style="fill:#263238"></polygon><polygon points="93.6 279.99 93.97 277.75 85.71 278.7 85.45 280.89 93.6 279.99" style="fill:#fff;opacity:0.1"></polygon><path d="M96.75,288.15l-.64,2.8c-1.52,2.9-3.89,1.43-3.89,1.43l-1.62,0c-.54,0-.82-.57-.65-1.35l.44-1.95A2.41,2.41,0,0,1,92,287.21l1.49-.28a1.82,1.82,0,0,1,1.17.14Z" style="fill:#e4897b"></path></g></svg>
