<svg xmlns="http://www.w3.org/2000/svg" viewBox="0 0 750 500"><g id="freepik--background-complete--inject-4"><path d="M397,425.74a8.66,8.66,0,0,1,4.49,5.09,15.35,15.35,0,0,1,.6,6.9c-.51,4.48-3.05,9-5.79,12.58-3.77-3.29-4.64-9-4.89-12-.41-4.65,1.68-13.29,5.59-12.6" style="fill:#ebebeb"></path><path d="M400.66,457.7a7.4,7.4,0,0,1,2.4-7,9.81,9.81,0,0,1,7.25-2.26,4.17,4.17,0,0,1,3.18,1.42,3.18,3.18,0,0,1,.05,3.21,6.44,6.44,0,0,1-2.38,2.34c-3.27,2.05-6.8,3.44-10.5,2.33" style="fill:#ebebeb"></path><path d="M395.83,471.42a5.89,5.89,0,0,1,.13-.91c.12-.65.28-1.49.46-2.49a25.92,25.92,0,0,1,2.57-7.94,15.79,15.79,0,0,1,5.7-6.06,10.78,10.78,0,0,1,2.32-1c.28-.09.52-.13.67-.17a.72.72,0,0,1,.24,0,16.19,16.19,0,0,0-3.12,1.43,16.37,16.37,0,0,0-5.53,6,27.79,27.79,0,0,0-2.62,7.83c-.23,1-.42,1.88-.56,2.46A5.38,5.38,0,0,1,395.83,471.42Z" style="fill:#e0e0e0"></path><path d="M396,432.46a1.87,1.87,0,0,1,0,.4l.07,1.16c.05,1,.11,2.45.17,4.25.11,3.58.2,8.54.18,14s-.16,10.44-.31,14c-.07,1.79-.14,3.25-.2,4.25,0,.47-.06.85-.08,1.15a1.87,1.87,0,0,1-.05.4,1.79,1.79,0,0,1,0-.4c0-.3,0-.68,0-1.16,0-1,.06-2.48.1-4.25.09-3.58.19-8.54.21-14s0-10.43-.09-14c0-1.76,0-3.2-.06-4.25,0-.47,0-.85,0-1.15A1.85,1.85,0,0,1,396,432.46Z" style="fill:#e0e0e0"></path><path d="M394.14,460.42a17.32,17.32,0,0,0-9.45-12.68c-1.26-.61-2.91-1-3.94-.06s-.81,2.62-.3,3.92a14.78,14.78,0,0,0,13.6,9.19" style="fill:#ebebeb"></path><path d="M385.3,452a5.17,5.17,0,0,1,.8.35,7.76,7.76,0,0,1,.9.49,11.57,11.57,0,0,1,1.15.72,16.19,16.19,0,0,1,1.32,1,15.93,15.93,0,0,1,1.4,1.27,19.37,19.37,0,0,1,2.66,3.42,18.73,18.73,0,0,1,1.76,4,15.72,15.72,0,0,1,.44,1.84,15.52,15.52,0,0,1,.23,1.63c.06.5,0,1,.06,1.36a7.92,7.92,0,0,1,0,1,4.33,4.33,0,0,1-.1.87c-.07,0,.06-1.24-.16-3.22a15.45,15.45,0,0,0-.27-1.61,18.36,18.36,0,0,0-.46-1.8,20,20,0,0,0-1.75-3.89,19.19,19.19,0,0,0-2.6-3.38,15.79,15.79,0,0,0-1.36-1.27,14.72,14.72,0,0,0-1.27-1C386.4,452.56,385.26,452.05,385.3,452Z" style="fill:#e0e0e0"></path><path d="M676.23,243.47c0,.14-132.83.26-296.64.26s-296.67-.12-296.67-.26,132.8-.26,296.67-.26S676.23,243.33,676.23,243.47Z" style="fill:#e0e0e0"></path><rect x="24.32" y="197.08" width="47.79" height="46.39" style="fill:#e0e0e0"></rect><path d="M55,221.5a7.67,7.67,0,0,1-.76-3.26,15.44,15.44,0,0,1,.72-2.35A5.07,5.07,0,0,0,53.69,212c-.87-1.06-1.59-2-1.54-3.16H49.26c.06,1.17-.66,2.1-1.53,3.16a5,5,0,0,0-1.23,3.89,16.61,16.61,0,0,1,.72,2.35,7.79,7.79,0,0,1-.77,3.26,5.28,5.28,0,0,0-.26,1.62v9.75a1.52,1.52,0,0,0,1.66,1.31h5.72a1.51,1.51,0,0,0,1.65-1.31v-9.75A5,5,0,0,0,55,221.5Z" style="fill:#fff"></path><rect x="48.82" y="206.84" width="3.71" height="2.12" rx="0.67" style="fill:#e0e0e0"></rect><rect x="48.75" y="208.89" width="3.91" height="0.32" style="fill:#e0e0e0"></rect><path d="M54.2,218a12.46,12.46,0,0,1-3.54.26,12.5,12.5,0,0,1-3.55-.26,12.08,12.08,0,0,1,3.55-.26A12,12,0,0,1,54.2,218Z" style="fill:#e0e0e0"></path><path d="M54.2,219.44a12,12,0,0,1-3.54.26,12.08,12.08,0,0,1-3.55-.26,12.5,12.5,0,0,1,3.55-.26A12.46,12.46,0,0,1,54.2,219.44Z" style="fill:#e0e0e0"></path><rect x="46.19" y="224.23" width="9.03" height="6.71" style="fill:#fafafa"></rect><path d="M52.58,208.88c0,.15-.86.26-1.92.26s-1.92-.11-1.92-.26.86-.26,1.92-.26S52.58,208.74,52.58,208.88Z" style="fill:#ebebeb"></path><path d="M49.53,208.82c-.15,0-.26-.45-.26-1s.11-1,.26-1,.26.44.26,1S49.67,208.82,49.53,208.82Z" style="fill:#ebebeb"></path><path d="M50.67,208.82c-.14,0-.26-.45-.26-1s.12-1,.26-1,.26.44.26,1S50.82,208.82,50.67,208.82Z" style="fill:#ebebeb"></path><path d="M51.82,208.82c-.14,0-.26-.45-.26-1s.12-1,.26-1,.26.44.26,1S52,208.82,51.82,208.82Z" style="fill:#ebebeb"></path><rect x="68.58" y="178.71" width="66.72" height="64.76" style="fill:#ebebeb"></rect><path d="M111.36,212.8a10.61,10.61,0,0,1-1.07-4.55c0-.93.57-1.7,1-3.28s-.5-4-1.72-5.43-2.21-2.78-2.14-4.42h-4c.07,1.64-.93,2.94-2.14,4.42s-2.15,3.85-1.72,5.43a22.45,22.45,0,0,1,1,3.28c.14,1.87-.66,3.3-1.07,4.55a7.27,7.27,0,0,0-.36,2.26v13.61a2.12,2.12,0,0,0,2.31,1.83h8a2.12,2.12,0,0,0,2.31-1.83V215.06A7.27,7.27,0,0,0,111.36,212.8Z" style="fill:#fff"></path><rect x="102.77" y="192.33" width="5.19" height="2.96" rx="0.67" style="fill:#e0e0e0"></rect><rect x="102.68" y="195.2" width="5.46" height="0.44" style="fill:#e0e0e0"></rect><path d="M110.29,207.85a22.88,22.88,0,0,1-5,.27,22.88,22.88,0,0,1-5-.27,24.12,24.12,0,0,1,5-.26A24.12,24.12,0,0,1,110.29,207.85Z" style="fill:#e0e0e0"></path><path d="M110.29,209.93a24.12,24.12,0,0,1-5,.26,24.12,24.12,0,0,1-5-.26,23.3,23.3,0,0,1,5-.26A23.3,23.3,0,0,1,110.29,209.93Z" style="fill:#e0e0e0"></path><rect x="99.11" y="216.61" width="12.61" height="9.37" style="fill:#fafafa"></rect><path d="M108,195.18a6.87,6.87,0,0,1-2.68.27,6.9,6.9,0,0,1-2.69-.27,7.25,7.25,0,0,1,2.69-.26A7.22,7.22,0,0,1,108,195.18Z" style="fill:#ebebeb"></path><path d="M103.77,195.1c-.15,0-.26-.62-.26-1.39s.11-1.38.26-1.38.26.62.26,1.38S103.91,195.1,103.77,195.1Z" style="fill:#ebebeb"></path><path d="M105.37,195.1c-.15,0-.26-.62-.26-1.39s.11-1.38.26-1.38.26.62.26,1.38S105.51,195.1,105.37,195.1Z" style="fill:#ebebeb"></path><path d="M107,195.1c-.15,0-.26-.62-.26-1.39s.11-1.38.26-1.38.26.62.26,1.38S107.11,195.1,107,195.1Z" style="fill:#ebebeb"></path><path d="M672.85,175.68a20.57,20.57,0,0,1,5.67-5L665,159.55a6.09,6.09,0,0,1-1.82-2,2.11,2.11,0,0,1,.42-2.51,3,3,0,0,1,2.5-.18,31.12,31.12,0,0,1,8.25,3.28l-2.66-6.21c-.36-.86-.7-2-.07-2.65s1.8-.44,2.65,0a11.91,11.91,0,0,1,6.57,9.47,44.06,44.06,0,0,1,3.37-12.12c.48-1.09,1.13-2.28,2.29-2.59a2.81,2.81,0,0,1,3,1.53,7.31,7.31,0,0,1,.67,3.5,41.5,41.5,0,0,1-5.44,20.84c3,.71,5.64,2.84,7.91,5a86,86,0,0,1,19.71,28.38s8.9,23.05-8.72,32.21c-5.63,2.93-11,1.53-17.24.51s-13.13-.74-18.89-3.4c-4.6-2.13-9.46-4.53-12-8.9-3.33-5.69-1.77-12.92.51-19.1A96,96,0,0,1,672.85,175.68Z" style="fill:#ebebeb"></path><path d="M713.32,216.37a25,25,0,0,0-23.22-9.43,18,18,0,0,0-26.9-20.81c-5.87-14.31-20-25.74-35.45-25.49s-30.18,14.5-28.33,29.85c-14.14,4.3-23.77,20-21.17,34.57-13.13-3.62-28.38,4.77-32.34,17.81l170.34.32C719.87,235.2,718.62,223.36,713.32,216.37Z" style="fill:#e0e0e0"></path><path d="M415.41,49.66a27.25,27.25,0,0,1,6.68-2.91l1.38-6.61,11.17-.2,1.61,6.56A27.65,27.65,0,0,1,443,49.17l5.65-3.7,8,7.76L453.22,59a27.22,27.22,0,0,1,2.9,6.68l6.62,1.38.19,11.17-6.56,1.61a27.65,27.65,0,0,1-2.67,6.78l3.7,5.65-7.76,8-5.77-3.5a27.45,27.45,0,0,1-6.69,2.9l-1.37,6.62-11.18.19L423,100a27.65,27.65,0,0,1-6.78-2.67L410.6,101l-8.05-7.77,3.51-5.77a27.32,27.32,0,0,1-2.91-6.69l-6.61-1.37-.2-11.18,6.56-1.61a27.65,27.65,0,0,1,2.67-6.78l-3.7-5.64,7.76-8,5.78,3.5Zm5.95,14.88a12,12,0,1,0,17-.29A12,12,0,0,0,421.36,64.54Z" style="fill:#f5f5f5"></path><path d="M149.35,95.87a22.7,22.7,0,0,1,5.46-2.37l1.12-5.4,9.13-.16,1.31,5.36a22.38,22.38,0,0,1,5.54,2.17l4.61-3,6.56,6.34-2.85,4.71A22.7,22.7,0,0,1,182.6,109l5.4,1.12.16,9.13-5.36,1.31a22.41,22.41,0,0,1-2.18,5.54l3,4.61-6.33,6.57-4.72-2.86a22.47,22.47,0,0,1-5.45,2.37l-1.13,5.4-9.12.16L155.57,137a22.34,22.34,0,0,1-5.53-2.18l-4.61,3-6.57-6.34,2.86-4.72a22.47,22.47,0,0,1-2.37-5.45l-5.4-1.13-.16-9.12,5.36-1.32a22.31,22.31,0,0,1,2.17-5.53l-3-4.61L144.64,93l4.71,2.86ZM154.22,108a9.78,9.78,0,1,0,13.84-.25A9.78,9.78,0,0,0,154.22,108Z" style="fill:#f5f5f5"></path><path d="M205.18,59.82a15.21,15.21,0,0,1,3.64-1.58l.75-3.6,6.09-.11.88,3.58a14.53,14.53,0,0,1,3.69,1.45l3.08-2,4.38,4.23-1.91,3.15a14.86,14.86,0,0,1,1.59,3.64l3.6.75.11,6.09-3.58.88A15.06,15.06,0,0,1,226.05,80l2,3.08-4.23,4.38-3.14-1.91a14.82,14.82,0,0,1-3.64,1.58l-.75,3.61-6.09.1-.88-3.57a15.31,15.31,0,0,1-3.69-1.45l-3.08,2-4.38-4.23,1.91-3.14a14.76,14.76,0,0,1-1.59-3.65L194.9,76,194.79,70l3.58-.88a14.76,14.76,0,0,1,1.45-3.69l-2-3.08L202,57.92l3.15,1.9Zm3.25,8.12a6.53,6.53,0,1,0,9.23-.17A6.52,6.52,0,0,0,208.43,67.94Z" style="fill:#f5f5f5"></path><path d="M83.2,60.39a14.66,14.66,0,0,1,3.64-1.58l.75-3.61,6.09-.1.87,3.57a15,15,0,0,1,3.7,1.45l3.07-2,4.39,4.23-1.91,3.14a15.21,15.21,0,0,1,1.58,3.64l3.6.75.11,6.09-3.57.88a14.79,14.79,0,0,1-1.46,3.69l2,3.08L101.85,88l-3.15-1.9a15,15,0,0,1-3.64,1.58l-.75,3.6-6.09.11-.87-3.58a15,15,0,0,1-3.7-1.45l-3.08,2-4.38-4.23L78.1,81a14.82,14.82,0,0,1-1.58-3.64l-3.61-.75-.1-6.09,3.57-.88a14.94,14.94,0,0,1,1.46-3.69l-2-3.08,4.23-4.38,3.15,1.91Zm3.24,8.11a6.53,6.53,0,1,0,9.24-.16A6.54,6.54,0,0,0,86.44,68.5Z" style="fill:#fafafa"></path><path d="M646.73,71.07a20.4,20.4,0,0,1,4.94-2.15l1-4.88,8.26-.15,1.19,4.85a20.4,20.4,0,0,1,5,2L671.31,68l5.94,5.73L674.66,78a20.11,20.11,0,0,1,2.15,4.93l4.88,1,.15,8.25L677,93.37a20.24,20.24,0,0,1-2,5l2.73,4.17L672,108.49l-4.26-2.58a20.31,20.31,0,0,1-4.94,2.14l-1,4.89-8.25.14-1.19-4.84a20.64,20.64,0,0,1-5-2L643.18,109l-5.94-5.73L639.82,99a20.36,20.36,0,0,1-2.14-4.94l-4.89-1-.14-8.26,4.85-1.19a19.79,19.79,0,0,1,2-5l-2.74-4.18,5.74-5.94,4.26,2.59Zm4.4,11a8.86,8.86,0,1,0,12.53-.22A8.85,8.85,0,0,0,651.13,82.07Z" style="fill:#fafafa"></path><path d="M495.43,50.1a17.43,17.43,0,0,1,4.23-1.85l.87-4.19,7.09-.12,1,4.16a17.11,17.11,0,0,1,4.29,1.69l3.58-2.35,5.1,4.92L519.39,56a17.47,17.47,0,0,1,1.84,4.24l4.19.87.13,7.08-4.16,1a17.56,17.56,0,0,1-1.69,4.3L522,77.11l-4.92,5.09L513.46,80a17.4,17.4,0,0,1-4.23,1.84L508.36,86l-7.09.12-1-4.16A17.11,17.11,0,0,1,496,80.29l-3.58,2.35-5.1-4.92,2.22-3.66a17.47,17.47,0,0,1-1.84-4.24L483.47,69l-.13-7.08,4.16-1a17.72,17.72,0,0,1,1.69-4.3L486.85,53l4.92-5.09,3.66,2.22Zm3.77,9.43A7.6,7.6,0,1,0,510,59.34,7.61,7.61,0,0,0,499.2,59.53Z" style="fill:#f5f5f5"></path></g><g id="freepik--Floor--inject-4"><path d="M53.22,472.11c0-.14,144.07-.26,321.76-.26s321.8.12,321.8.26-144,.26-321.8.26S53.22,472.26,53.22,472.11Z" style="fill:#263238"></path></g><g id="freepik--Trash--inject-4"><path d="M446.85,146.6a1.77,1.77,0,0,0-1.11-1.77A1.3,1.3,0,0,0,447,143.4a2.07,2.07,0,0,0-1-1.9,1.46,1.46,0,0,0,1.21-1.55c0-1.38-1.51-1.69-1.51-1.69s1.38,0,1.49-1.27-1.33-1.67-1.33-1.67l1.32-1.33,0-4.71a1.79,1.79,0,0,0-.62-1.34l-4.12-3.59-5.51,0h-.8L432.06,128a1.74,1.74,0,0,0-.6,1.35v4.71l1.33,1.32s-1.43.41-1.31,1.67,1.5,1.26,1.5,1.26a1.87,1.87,0,0,0-1.5,1.71,1.46,1.46,0,0,0,1.22,1.53,2.06,2.06,0,0,0-.94,1.91,1.3,1.3,0,0,0,1.27,1.42,1.79,1.79,0,0,0-1.1,1.78,1.63,1.63,0,0,0,1.08,1.7L431.53,150l0,10a2.91,2.91,0,0,0,3,2,2.62,2.62,0,0,0,2.72-2.23s.05,2.18,2.07,2.21h.27c2-.05,2-2.23,2-2.23a2.62,2.62,0,0,0,2.74,2.21,2.9,2.9,0,0,0,2.95-2.07l0-10-1.5-1.61A1.62,1.62,0,0,0,446.85,146.6Z" style="fill:#f5f5f5"></path><path d="M445.9,135.34a64.64,64.64,0,0,1-6.76.21,63.93,63.93,0,0,1-6.77-.16,64.64,64.64,0,0,1,6.76-.21A63.93,63.93,0,0,1,445.9,135.34Z" style="fill:#263238"></path><path d="M447.11,134c0,.1-3.5.2-7.81.22s-7.81-.05-7.81-.15,3.49-.2,7.81-.22S447.11,133.9,447.11,134Z" style="fill:#263238"></path><path d="M446.07,138.36a60.64,60.64,0,0,1-6.71.21,61.63,61.63,0,0,1-6.72-.15,60.48,60.48,0,0,1,6.71-.21A61.63,61.63,0,0,1,446.07,138.36Z" style="fill:#263238"></path><path d="M446.08,141.4a60.64,60.64,0,0,1-6.71.21,61.63,61.63,0,0,1-6.72-.15,60.75,60.75,0,0,1,6.72-.21A61.5,61.5,0,0,1,446.08,141.4Z" style="fill:#263238"></path><path d="M446.09,144.76a63.56,63.56,0,0,1-6.71.21,62.76,62.76,0,0,1-6.71-.16,63.56,63.56,0,0,1,6.71-.21A62.76,62.76,0,0,1,446.09,144.76Z" style="fill:#263238"></path><path d="M446.11,148.11a60.75,60.75,0,0,1-6.72.21,61.5,61.5,0,0,1-6.71-.15,60.48,60.48,0,0,1,6.71-.21A61.63,61.63,0,0,1,446.11,148.11Z" style="fill:#263238"></path><path d="M447.29,150c0,.1-3.53.2-7.88.22s-7.88-.05-7.88-.15,3.53-.2,7.88-.22S447.29,149.89,447.29,150Z" style="fill:#263238"></path><rect x="435.65" y="120.91" width="7.31" height="3.45" rx="0.89" transform="translate(-0.5 1.8) rotate(-0.23)" style="fill:#455a64"></rect><path d="M436.78,124.34a3.92,3.92,0,0,1-.2-1.66,4.06,4.06,0,0,1,.16-1.68,4,4,0,0,1,.2,1.67A3.67,3.67,0,0,1,436.78,124.34Z" style="fill:#263238"></path><path d="M438,124.25a4,4,0,0,1-.2-1.67,3.84,3.84,0,0,1,.16-1.67,4,4,0,0,1,.2,1.67A3.84,3.84,0,0,1,438,124.25Z" style="fill:#263238"></path><path d="M439.28,124.31a3.76,3.76,0,0,1-.21-1.67,4.06,4.06,0,0,1,.16-1.68,4,4,0,0,1,.2,1.67A4,4,0,0,1,439.28,124.31Z" style="fill:#263238"></path><path d="M440.62,124.26a4.13,4.13,0,0,1-.21-1.67,4.06,4.06,0,0,1,.16-1.68,3.93,3.93,0,0,1,.21,1.67A4.13,4.13,0,0,1,440.62,124.26Z" style="fill:#263238"></path><path d="M441.87,124.23a3.76,3.76,0,0,1-.21-1.67,4,4,0,0,1,.16-1.67,3.92,3.92,0,0,1,.2,1.66A4,4,0,0,1,441.87,124.23Z" style="fill:#263238"></path><path d="M433.63,153.1A14,14,0,0,1,453.21,143,17.31,17.31,0,0,1,487,141.81c5.76-2.76,13.62,1.56,14.37,7.91,5.39-3.44,13.57-1,16.15,4.88a9.41,9.41,0,0,1,15.55-4.23,10.1,10.1,0,0,1,11.41-.06c3.32,2.33,5.27,8.71,4.16,12.61l-126.39-.5A10.34,10.34,0,0,1,433.63,153.1Z" style="fill:#e0e0e0"></path><polygon points="483.64 127.24 495.6 131.24 491.97 146.18 477.44 141.32 483.64 127.24" style="fill:#005EFF"></polygon><rect x="475.56" y="142.29" width="18.51" height="2.08" transform="translate(899.17 432.98) rotate(-161.52)" style="fill:#005EFF"></rect><path d="M476.48,139.32a161.88,161.88,0,0,1,17.32,5.79,80.73,80.73,0,0,1-8.74-2.64A79.59,79.59,0,0,1,476.48,139.32Z" style="fill:#263238"></path><path d="M539.94,128.17l-11.44-7.3a2.93,2.93,0,0,0-1.62-.46l-8.49.07a2.92,2.92,0,0,0-2.38,1.23l-5.92,8.21a3,3,0,0,0-.56,1.76l.23,27.61a3,3,0,0,0,3,3L538.6,162a3,3,0,0,0,2.94-3l-.23-28.38A3,3,0,0,0,539.94,128.17Zm-3.25,4.4a2.2,2.2,0,0,1-3,.67l-7.27-4.64a2.19,2.19,0,0,1-.67-3h0a2.19,2.19,0,0,1,3-.67l7.27,4.64A2.19,2.19,0,0,1,536.69,132.57Z" style="fill:#455a64"></path><rect x="518.54" y="117.62" width="8.02" height="2.82" transform="translate(-0.96 4.28) rotate(-0.47)" style="fill:#455a64"></rect><rect x="516.69" y="115.47" width="11.47" height="3.79" rx="1.09" transform="translate(-0.94 4.28) rotate(-0.47)" style="fill:#263238"></rect><path d="M466.14,160.85a1.55,1.55,0,0,0,1.55-1,1.12,1.12,0,0,0,1.23,1.1,1.76,1.76,0,0,0,1.65-.82,1.27,1.27,0,0,0,1.34,1.06c1.2,0,1.48-1.31,1.48-1.31s0,1.2,1.1,1.3,1.45-1.14,1.45-1.14l1.14,1.15h4.09a1.56,1.56,0,0,0,1.17-.52l3.14-3.57v-5.47l-3.13-3.57a1.53,1.53,0,0,0-1.17-.53H477.1L476,148.71s-.35-1.25-1.45-1.15-1.1,1.3-1.1,1.3-.27-1.31-1.47-1.31a1.27,1.27,0,0,0-1.34,1,1.8,1.8,0,0,0-1.65-.83,1.13,1.13,0,0,0-1.24,1.1,1.53,1.53,0,0,0-1.54-1,1.41,1.41,0,0,0-1.48.92l-1.41-1.29h-8.65a2.51,2.51,0,0,0-1.79,2.56,2.26,2.26,0,0,0,1.92,2.37s-1.89,0-1.93,1.78v.24c0,1.75,1.92,1.79,1.92,1.79a2.27,2.27,0,0,0-1.92,2.37,2.5,2.5,0,0,0,1.78,2.56h8.66l1.41-1.29A1.39,1.39,0,0,0,466.14,160.85Z" style="fill:#f5f5f5"></path><rect x="483.81" y="152.91" width="6.34" height="2.99" rx="0.64" transform="translate(642.07 -332.35) rotate(90.08)" style="fill:#005EFF"></rect><path d="M475.92,160.08a46.84,46.84,0,0,1-.17-5.87,46.72,46.72,0,0,1,.19-5.88,46.94,46.94,0,0,1,.17,5.88A46.62,46.62,0,0,1,475.92,160.08Z" style="fill:#263238"></path><path d="M477.08,161.13a63.73,63.73,0,0,1-.18-6.78,60.56,60.56,0,0,1,.2-6.78,65.69,65.69,0,0,1,.17,6.78A65.2,65.2,0,0,1,477.08,161.13Z" style="fill:#263238"></path><path d="M473.3,160.21a47.22,47.22,0,0,1-.18-5.83,48.31,48.31,0,0,1,.19-5.83,47.22,47.22,0,0,1,.18,5.83A48.31,48.31,0,0,1,473.3,160.21Z" style="fill:#263238"></path><path d="M470.66,160.2a47,47,0,0,1-.18-5.82,48.31,48.31,0,0,1,.19-5.83,47.22,47.22,0,0,1,.18,5.83A48.07,48.07,0,0,1,470.66,160.2Z" style="fill:#263238"></path><path d="M467.75,160.2a47.22,47.22,0,0,1-.18-5.83,48.07,48.07,0,0,1,.19-5.82,47,47,0,0,1,.18,5.82A48.31,48.31,0,0,1,467.75,160.2Z" style="fill:#263238"></path><path d="M464.84,160.2a45,45,0,0,1-.18-5.83,48.31,48.31,0,0,1,.19-5.83,47.22,47.22,0,0,1,.18,5.83A48.31,48.31,0,0,1,464.84,160.2Z" style="fill:#263238"></path><path d="M463.2,161.21a64.79,64.79,0,0,1-.18-6.83,61.53,61.53,0,0,1,.2-6.84,66.74,66.74,0,0,1,.17,6.84A66.29,66.29,0,0,1,463.2,161.21Z" style="fill:#263238"></path><path d="M254,141.45c-.43-1.49-1.23-2.95-1.13-5.43,0-1.11.61-2,1.06-3.92s-.53-4.73-1.82-6.49-2.35-3.31-2.28-5.27H245.6c.07,2-1,3.51-2.28,5.27s-2.28,4.59-1.82,6.49,1,2.69,1.06,3.92c.15,2.22-.7,3.94-1.13,5.43a9.46,9.46,0,0,0-.39,2.69V160.4a2.33,2.33,0,0,0,2.46,2.18H252a2.33,2.33,0,0,0,2.46-2.18V144.14A9.46,9.46,0,0,0,254,141.45Z" style="fill:#e0e0e0"></path><rect x="244.93" y="117" width="5.5" height="3.53" rx="0.67" style="fill:#005EFF"></rect><rect x="244.84" y="120.42" width="5.8" height="0.53" style="fill:#005EFF"></rect><path d="M252.91,135.54a26.15,26.15,0,0,1-5.25.26,26.15,26.15,0,0,1-5.25-.26,27.06,27.06,0,0,1,5.25-.26A27.06,27.06,0,0,1,252.91,135.54Z" style="fill:#263238"></path><path d="M252.91,138a27.06,27.06,0,0,1-5.25.26,27.06,27.06,0,0,1-5.25-.26,26.15,26.15,0,0,1,5.25-.26A26.15,26.15,0,0,1,252.91,138Z" style="fill:#263238"></path><rect x="241.04" y="145.99" width="13.38" height="11.19" style="fill:#ebebeb"></rect><path d="M250.51,120.41a15.75,15.75,0,0,1-5.7,0,15.75,15.75,0,0,1,5.7,0Z" style="fill:#263238"></path><path d="M246,120.3c-.15,0-.26-.73-.26-1.65s.11-1.65.26-1.65.26.74.26,1.65S246.13,120.3,246,120.3Z" style="fill:#263238"></path><path d="M247.68,120.3c-.14,0-.26-.73-.26-1.65s.12-1.65.26-1.65.26.74.26,1.65S247.83,120.3,247.68,120.3Z" style="fill:#263238"></path><path d="M249.38,120.3c-.14,0-.26-.73-.26-1.65s.12-1.65.26-1.65.26.74.26,1.65S249.53,120.3,249.38,120.3Z" style="fill:#263238"></path><path d="M274.77,141.45c-.43-1.49-1.23-2.95-1.13-5.43,0-1.11.61-2,1.06-3.92s-.53-4.73-1.82-6.49-2.35-3.31-2.28-5.27h-4.27c.07,2-1,3.51-2.28,5.27s-2.28,4.59-1.82,6.49,1,2.69,1.06,3.92c.15,2.22-.7,3.94-1.13,5.43a9.46,9.46,0,0,0-.39,2.69V160.4a2.33,2.33,0,0,0,2.46,2.18h8.47a2.33,2.33,0,0,0,2.46-2.18V144.14A9.46,9.46,0,0,0,274.77,141.45Z" style="fill:#e0e0e0"></path><rect x="265.66" y="117" width="5.5" height="3.53" rx="0.67" style="fill:#005EFF"></rect><rect x="265.57" y="120.42" width="5.8" height="0.53" style="fill:#005EFF"></rect><path d="M273.64,135.54a53.13,53.13,0,0,1-10.5,0,53.13,53.13,0,0,1,10.5,0Z" style="fill:#263238"></path><path d="M273.64,138a53.13,53.13,0,0,1-10.5,0,53.13,53.13,0,0,1,10.5,0Z" style="fill:#263238"></path><rect x="261.77" y="145.99" width="13.38" height="11.19" style="fill:#ebebeb"></rect><path d="M271.24,120.41a15.75,15.75,0,0,1-5.7,0,15.75,15.75,0,0,1,5.7,0Z" style="fill:#263238"></path><path d="M266.71,120.3c-.14,0-.26-.73-.26-1.65s.12-1.65.26-1.65.27.74.27,1.65S266.86,120.3,266.71,120.3Z" style="fill:#263238"></path><path d="M268.41,120.3c-.14,0-.26-.73-.26-1.65s.12-1.65.26-1.65.26.74.26,1.65S268.56,120.3,268.41,120.3Z" style="fill:#263238"></path><path d="M270.11,120.3c-.14,0-.26-.73-.26-1.65s.12-1.65.26-1.65.26.74.26,1.65S270.26,120.3,270.11,120.3Z" style="fill:#263238"></path><path d="M230.83,141.45c-.44-1.49-1.24-2.95-1.14-5.43.05-1.11.61-2,1.06-3.92s-.53-4.73-1.82-6.49-2.35-3.31-2.27-5.27h-4.28c.07,2-1,3.51-2.28,5.27s-2.27,4.59-1.82,6.49,1,2.69,1.06,3.92c.15,2.22-.7,3.94-1.13,5.43a9.45,9.45,0,0,0-.38,2.69V160.4a2.32,2.32,0,0,0,2.45,2.18h8.48a2.32,2.32,0,0,0,2.45-2.18V144.14A9.82,9.82,0,0,0,230.83,141.45Z" style="fill:#e0e0e0"></path><rect x="221.71" y="117" width="5.5" height="3.53" rx="0.67" style="fill:#005EFF"></rect><rect x="221.62" y="120.42" width="5.8" height="0.53" style="fill:#005EFF"></rect><path d="M229.69,135.54a26.15,26.15,0,0,1-5.25.26,26.15,26.15,0,0,1-5.25-.26,27.06,27.06,0,0,1,5.25-.26A27.06,27.06,0,0,1,229.69,135.54Z" style="fill:#263238"></path><path d="M229.69,138a27.06,27.06,0,0,1-5.25.26,27.06,27.06,0,0,1-5.25-.26,26.15,26.15,0,0,1,5.25-.26A26.15,26.15,0,0,1,229.69,138Z" style="fill:#263238"></path><rect x="217.83" y="145.99" width="13.38" height="11.19" style="fill:#ebebeb"></rect><path d="M227.3,120.41a15.75,15.75,0,0,1-5.7,0,15.75,15.75,0,0,1,5.7,0Z" style="fill:#263238"></path><path d="M222.77,120.3c-.15,0-.26-.73-.26-1.65s.11-1.65.26-1.65.26.74.26,1.65S222.91,120.3,222.77,120.3Z" style="fill:#263238"></path><path d="M224.47,120.3c-.15,0-.27-.73-.27-1.65s.12-1.65.27-1.65.26.74.26,1.65S224.61,120.3,224.47,120.3Z" style="fill:#263238"></path><path d="M226.16,120.3c-.14,0-.26-.73-.26-1.65s.12-1.65.26-1.65.26.74.26,1.65S226.31,120.3,226.16,120.3Z" style="fill:#263238"></path></g><g id="freepik--conveyor-belt--inject-4"><rect x="225.79" y="220.03" width="309.89" height="23.07" transform="translate(761.46 463.14) rotate(180)" style="fill:#455a64"></rect><rect x="215.29" y="211.12" width="330.88" height="9.29" transform="translate(761.46 431.53) rotate(180)" style="fill:#263238"></rect><path d="M200.42,210.94H549.58a24.3,24.3,0,0,0,24.31-24.31h0a24.3,24.3,0,0,0-24.31-24.3H200.42a24.3,24.3,0,0,0-24.31,24.3h0A24.3,24.3,0,0,0,200.42,210.94Z" style="fill:#e0e0e0"></path><path d="M549.58,211.44H200.42a24.81,24.81,0,1,1,0-49.61H549.58a24.81,24.81,0,1,1,0,49.61ZM200.42,162.83a23.81,23.81,0,1,0,0,47.61H549.58a23.81,23.81,0,1,0,0-47.61Z" style="fill:#263238"></path><rect x="284.2" y="64.94" width="136.51" height="179.2" transform="translate(704.91 309.08) rotate(180)" style="fill:#005EFF"></rect><path d="M361.33,209.1h34.46a1.27,1.27,0,0,0,1.26-1.26h0a1.26,1.26,0,0,0-1.26-1.26H361.33a1.25,1.25,0,0,0-1.25,1.26h0A1.26,1.26,0,0,0,361.33,209.1Z" style="fill:#263238"></path><path d="M361.33,214.56h34.46a1.26,1.26,0,0,0,1.26-1.25h0a1.26,1.26,0,0,0-1.26-1.26H361.33a1.25,1.25,0,0,0-1.25,1.26h0A1.25,1.25,0,0,0,361.33,214.56Z" style="fill:#263238"></path><path d="M361.33,220h34.46a1.26,1.26,0,0,0,1.26-1.25h0a1.26,1.26,0,0,0-1.26-1.26H361.33a1.25,1.25,0,0,0-1.25,1.26h0A1.25,1.25,0,0,0,361.33,220Z" style="fill:#263238"></path><path d="M361.33,225.5h34.46a1.26,1.26,0,0,0,1.26-1.25h0a1.26,1.26,0,0,0-1.26-1.26H361.33a1.25,1.25,0,0,0-1.25,1.26h0A1.25,1.25,0,0,0,361.33,225.5Z" style="fill:#263238"></path><path d="M329.73,122.92s-3.18,3.16-1.72,6.55,6.26,9.87,6.26,9.87a25.89,25.89,0,0,1,5.08-11l2.86,1.57-3.08-12.05-11.58,3.43Z" style="fill:#fff"></path><path d="M335.69,141.86a6.61,6.61,0,0,0,4.57,3.09c3.25.55,10.37.14,10.37.14l-.13-10.74L338,134.5A13.84,13.84,0,0,0,335.69,141.86Z" style="fill:#fff"></path><path d="M365.22,106.33s-1-4.37-4.64-4.93-11.68,0-11.68,0a25.83,25.83,0,0,1,6.57,10.13l-2.85,1.58,11.84,3.8,3.25-11.63Z" style="fill:#fff"></path><path d="M346,101.31a6.61,6.61,0,0,0-5.05,2.23c-2.19,2.46-5.63,8.71-5.63,8.71l9.16,5.6,6.5-10.64A13.72,13.72,0,0,0,346,101.31Z" style="fill:#fff"></path><path d="M363.62,145s4.36,1.05,6.48-2,5.13-10.5,5.13-10.5a25.91,25.91,0,0,1-12,1.4l-.16-3.25-8.65,8.93,9,8.07Z" style="fill:#fff"></path><path d="M376.64,130a6.63,6.63,0,0,0,.23-5.51c-1.23-3.06-5.31-8.91-5.31-8.91l-9.08,5.74,6.66,10.54A13.83,13.83,0,0,0,376.64,130Z" style="fill:#fff"></path><rect x="299.45" y="49.31" width="42.7" height="15.83" transform="translate(641.61 114.45) rotate(180)" style="fill:#005EFF"></rect><path d="M417.79,65c0,.15-29.83.26-66.62.26s-66.63-.11-66.63-.26,29.83-.26,66.63-.26S417.79,64.88,417.79,65Z" style="fill:#263238"></path><path d="M537.21,177.6l2.21-1.34,3,3.08L541,181.5a10.49,10.49,0,0,1,1,2.6l2.51.62-.07,4.28-2.53.52a10.77,10.77,0,0,1-1.12,2.56l1.34,2.22-3.08,3-2.16-1.42a10.49,10.49,0,0,1-2.6,1l-.61,2.52-4.28-.08-.53-2.53a10.34,10.34,0,0,1-2.56-1.11L524.1,197l-3-3.08,1.42-2.17a10.42,10.42,0,0,1-1-2.59l-2.52-.62.08-4.28,2.53-.53a10.77,10.77,0,0,1,1.12-2.56L521.38,179l3.09-3,2.16,1.42a10.49,10.49,0,0,1,2.6-1l.61-2.51,4.28.07.53,2.54a10.34,10.34,0,0,1,2.56,1.11Zm-8.78,5.59a4.59,4.59,0,1,0,6.5.11A4.59,4.59,0,0,0,528.43,183.19Z" style="fill:#f5f5f5"></path><path d="M492.24,183.3l2.56.41.26,4.27-2.48.73a10.44,10.44,0,0,1-.91,2.64l1.51,2.1-2.83,3.21-2.27-1.24a10.61,10.61,0,0,1-2.51,1.22l-.41,2.56-4.28.26-.72-2.48a10.7,10.7,0,0,1-2.64-.91l-2.1,1.51-3.21-2.83,1.24-2.27a10.24,10.24,0,0,1-1.22-2.51l-2.56-.41-.26-4.28,2.48-.72a10.31,10.31,0,0,1,.91-2.64l-1.52-2.1,2.84-3.21,2.27,1.24a10.64,10.64,0,0,1,2.51-1.23l.41-2.55,4.28-.26.72,2.48a9.94,9.94,0,0,1,2.64.91l2.1-1.52,3.21,2.84L491,180.79a10.61,10.61,0,0,1,1.22,2.51Zm-9.57-1.44a4.6,4.6,0,1,0,4,3.57A4.6,4.6,0,0,0,482.67,181.86Z" style="fill:#f5f5f5"></path><path d="M444.25,183.3l2.55.41.27,4.27-2.48.73a10.85,10.85,0,0,1-.91,2.64l1.51,2.1-2.83,3.21-2.27-1.24a10.61,10.61,0,0,1-2.51,1.22l-.42,2.56-4.27.26-.73-2.48a10.77,10.77,0,0,1-2.63-.91l-2.1,1.51-3.21-2.83,1.24-2.27a10.64,10.64,0,0,1-1.23-2.51l-2.55-.41-.27-4.28,2.49-.72a10.29,10.29,0,0,1,.9-2.64l-1.51-2.1,2.84-3.21,2.27,1.24a10.76,10.76,0,0,1,2.5-1.23l.42-2.55,4.27-.26.73,2.48a10.07,10.07,0,0,1,2.64.91l2.1-1.52,3.21,2.84L443,180.79a10.27,10.27,0,0,1,1.23,2.51Zm-9.57-1.44a4.6,4.6,0,1,0,4,3.57A4.6,4.6,0,0,0,434.68,181.86Z" style="fill:#f5f5f5"></path><path d="M277.28,183.3l2.56.41.26,4.27-2.48.73a10.85,10.85,0,0,1-.91,2.64l1.51,2.1-2.83,3.21-2.27-1.24a10.61,10.61,0,0,1-2.51,1.22l-.41,2.56-4.28.26L265.2,197a10.7,10.7,0,0,1-2.64-.91l-2.1,1.51-3.21-2.83,1.24-2.27a10.64,10.64,0,0,1-1.23-2.51l-2.55-.41-.26-4.28,2.48-.72a9.94,9.94,0,0,1,.91-2.64l-1.52-2.1,2.84-3.21,2.27,1.24a10.64,10.64,0,0,1,2.51-1.23l.41-2.55,4.27-.26.73,2.48a10.07,10.07,0,0,1,2.64.91l2.1-1.52,3.21,2.84-1.24,2.27a10.61,10.61,0,0,1,1.22,2.51Zm-9.57-1.44a4.6,4.6,0,1,0,4,3.57A4.6,4.6,0,0,0,267.71,181.86Z" style="fill:#f5f5f5"></path><path d="M228.52,183.3l2.55.41.27,4.27-2.49.73a10.42,10.42,0,0,1-.9,2.64l1.51,2.1-2.84,3.21-2.27-1.24a10.54,10.54,0,0,1-2.5,1.22l-.42,2.56-4.27.26-.73-2.48a10.85,10.85,0,0,1-2.64-.91l-2.1,1.51-3.21-2.83,1.25-2.27A10.27,10.27,0,0,1,208.5,190l-2.55-.41-.27-4.28,2.48-.72a10.7,10.7,0,0,1,.91-2.64l-1.51-2.1,2.83-3.21,2.27,1.24a10.64,10.64,0,0,1,2.51-1.23l.42-2.55,4.27-.26.73,2.48a10.19,10.19,0,0,1,2.64.91l2.1-1.52,3.2,2.84-1.24,2.27a10.64,10.64,0,0,1,1.23,2.51Zm-9.58-1.44a4.6,4.6,0,1,0,4,3.57A4.61,4.61,0,0,0,218.94,181.86Z" style="fill:#f5f5f5"></path></g><g id="freepik--garbage-can--inject-4"><path d="M500.2,279.13a2.11,2.11,0,0,1-1.44,2,1.54,1.54,0,0,1,1.4,1.78,2.43,2.43,0,0,1-1.25,2.18,1.75,1.75,0,0,1,1.33,1.92c-.1,1.64-1.9,1.91-1.9,1.91s1.64.09,1.68,1.6-1.68,1.89-1.68,1.89l1.48,1.66-.33,5.59a2.09,2.09,0,0,1-.81,1.55l-5.13,4-6.53-.38-.95-.06-4.62-4.56a2.18,2.18,0,0,1-.63-1.64l.33-5.59,1.66-1.48s-1.68-.57-1.45-2.07,1.86-1.39,1.86-1.39a2.23,2.23,0,0,1-1.67-2.12,1.75,1.75,0,0,1,1.55-1.75,2.45,2.45,0,0,1-1-2.32,1.53,1.53,0,0,1,1.6-1.6,2.12,2.12,0,0,1-1.19-2.19,1.91,1.91,0,0,1,1.38-1.94l-1.66-2,.7-11.82a3.44,3.44,0,0,1,3.64-2.24,3.12,3.12,0,0,1,3.09,2.82s.19-2.58,2.59-2.49l.32,0c2.39.19,2.29,2.77,2.29,2.77a3.1,3.1,0,0,1,3.39-2.44,3.45,3.45,0,0,1,3.36,2.65l-.69,11.82L499.05,277A1.94,1.94,0,0,1,500.2,279.13Z" style="fill:#e0e0e0"></path><path d="M498.34,292.42a75.68,75.68,0,0,0-8-.68,73.71,73.71,0,0,0-8-.25,79,79,0,0,0,8,.68A73.68,73.68,0,0,0,498.34,292.42Z" style="fill:#263238"></path><path d="M499.69,294.09c0-.12-4.14-.46-9.25-.76s-9.27-.45-9.28-.33,4.14.46,9.25.76S499.68,294.2,499.69,294.09Z" style="fill:#263238"></path><path d="M498.73,288.85a72.75,72.75,0,0,0-7.94-.69,74.13,74.13,0,0,0-8-.24,78.09,78.09,0,0,0,7.95.68A79.16,79.16,0,0,0,498.73,288.85Z" style="fill:#263238"></path><path d="M498.94,285.24a74.42,74.42,0,0,0-7.94-.68,72.76,72.76,0,0,0-8-.25,71.77,71.77,0,0,0,8,.68A72.62,72.62,0,0,0,498.94,285.24Z" style="fill:#263238"></path><path d="M499.18,281.26a147.81,147.81,0,0,0-15.92-.93,72.75,72.75,0,0,0,7.94.69A74.13,74.13,0,0,0,499.18,281.26Z" style="fill:#263238"></path><path d="M499.41,277.29a71.45,71.45,0,0,0-8-.68,72.62,72.62,0,0,0-8-.25,74.45,74.45,0,0,0,7.95.68A72.57,72.57,0,0,0,499.41,277.29Z" style="fill:#263238"></path><path d="M500.93,275.13c0-.12-4.17-.46-9.33-.76s-9.34-.45-9.35-.33,4.17.46,9.33.76S500.93,275.25,500.93,275.13Z" style="fill:#263238"></path><rect x="485.35" y="305.02" width="8.68" height="4.1" rx="0.89" transform="translate(18.73 -28.03) rotate(3.34)" style="fill:#455a64"></rect><path d="M486.82,304.87a4.74,4.74,0,0,0-.35,2,4.67,4.67,0,0,0,.08,2,4.74,4.74,0,0,0,.35-2A4.67,4.67,0,0,0,486.82,304.87Z" style="fill:#263238"></path><path d="M488.29,305.07a4.71,4.71,0,0,0-.36,2,4.84,4.84,0,0,0,.08,2,4.64,4.64,0,0,0,.35-2A4.89,4.89,0,0,0,488.29,305.07Z" style="fill:#263238"></path><path d="M489.77,305.08a9.26,9.26,0,0,0-.27,4,9.23,9.23,0,0,0,.27-4Z" style="fill:#263238"></path><path d="M491.36,305.23a5,5,0,0,0-.35,2,4.84,4.84,0,0,0,.08,2,9.26,9.26,0,0,0,.27-4Z" style="fill:#263238"></path><path d="M492.84,305.34a9.23,9.23,0,0,0-.27,4,9.26,9.26,0,0,0,.27-4Z" style="fill:#263238"></path><path d="M453,294.71a20.47,20.47,0,0,1,4.76-5.86l-15.17-8.74a6,6,0,0,1-2.13-1.7,2.11,2.11,0,0,1,0-2.55,3,3,0,0,1,2.44-.59,31,31,0,0,1,8.67,1.86q-1.81-2.83-3.64-5.67c-.5-.79-1-1.82-.51-2.61s1.7-.73,2.61-.47a11.89,11.89,0,0,1,8,8.26,44.36,44.36,0,0,1,1.32-12.52c.29-1.15.74-2.43,1.83-2.92a2.8,2.8,0,0,1,3.19,1,7.36,7.36,0,0,1,1.24,3.34A41.45,41.45,0,0,1,463.73,287c3,.22,6,1.87,8.64,3.63a85.76,85.76,0,0,1,24.13,24.73s12.6,21.25-3.26,33.2c-5.07,3.82-10.58,3.33-16.93,3.36s-13.07,1.44-19.19-.23c-4.89-1.34-10.08-2.9-13.33-6.79-4.23-5.06-3.89-12.45-2.66-18.92A96,96,0,0,1,453,294.71Z" style="fill:#e0e0e0"></path><path d="M493.34,279.65l-27,27.77a4.06,4.06,0,0,0,.07,5.73l25.29,24.63a4.06,4.06,0,0,0,5.73-.07l26.31-27a4,4,0,0,0,1.11-2.26l1.93-13.69a4,4,0,0,0-1.19-3.46l-8.3-8.09a4,4,0,0,0-2-1.07L497,278.51A4.05,4.05,0,0,0,493.34,279.65Zm6.25,3.92,11.55,2.3a3,3,0,0,1,2.35,3.51h0a3,3,0,0,1-3.51,2.35l-11.56-2.31a3,3,0,0,1,1.17-5.85Z" style="fill:#455a64"></path><rect x="517.33" y="284" width="10.95" height="3.86" transform="translate(697.74 855.55) rotate(-135.75)" style="fill:#455a64"></rect><rect x="516.67" y="281.81" width="15.67" height="5.17" rx="1.09" transform="translate(701.72 854.12) rotate(-135.75)" style="fill:#455a64"></rect><g style="opacity:0.30000000000000004"><path d="M495.2,322.06s.27-.32.77-.86l2.16-2.3,7.67-8v.32l-11.06-10.73h.35l0,0-.05.05-.09.09-.19.19-.36.38-.73.75q-.73.74-1.44,1.47l-2.79,2.85-5.09,5.19v-.32l7.86,7.83,2.22,2.24c.52.53.79.82.79.84a7.4,7.4,0,0,1-.79-.7l-2.27-2.12L484,311.47l-.16-.16.16-.16,5.05-5.22,2.78-2.86,1.43-1.48.73-.74.37-.38.18-.19.1-.09,0-.05,0,0h0c-.33,0,.45,0,.37,0l11,10.78.16.16-.16.16-7.93,8L496,321.34A6.32,6.32,0,0,1,495.2,322.06Z"></path></g><g style="opacity:0.30000000000000004"><path d="M513.08,310.82a12.45,12.45,0,0,1-3.55.37A12.8,12.8,0,0,1,506,311a12.52,12.52,0,0,1,3.55-.37A12.8,12.8,0,0,1,513.08,310.82Z"></path></g><g style="opacity:0.30000000000000004"><path d="M495,293.14a24.11,24.11,0,0,1,0,7.13,12.57,12.57,0,0,1-.24-3.56A12.86,12.86,0,0,1,495,293.14Z"></path></g><g style="opacity:0.30000000000000004"><path d="M477,311.52a12.21,12.21,0,0,1,3.56-.37,12,12,0,0,1,3.57.16,12.43,12.43,0,0,1-3.56.36A12.63,12.63,0,0,1,477,311.52Z"></path></g><g style="opacity:0.30000000000000004"><path d="M495.17,329.19a12.57,12.57,0,0,1-.24-3.56,12.86,12.86,0,0,1,.27-3.57,24.11,24.11,0,0,1,0,7.13Z"></path></g><rect x="439.83" y="457.53" width="92.61" height="3.27" transform="translate(972.27 918.33) rotate(180)" style="fill:#263238"></rect><polygon points="547.47 300.97 547.23 315.42 426.71 315.42 426.71 300.97 547.47 300.97" style="fill:#005EFF"></polygon><path d="M541.33,310.6l-14,148.27a6,6,0,0,1-5.94,5.34H450a5.65,5.65,0,0,1-5.65-5.39L432.84,310.6Z" style="fill:#005EFF"></path><path d="M509.11,375s3.22,3.2,1.75,6.63-6.34,10-6.34,10a26.34,26.34,0,0,0-5.15-11.09l-2.9,1.6,3.12-12.21,11.73,3.47Z" style="fill:#fff"></path><path d="M503.08,394.17a6.69,6.69,0,0,1-4.64,3.12c-3.28.56-10.49.15-10.49.15l.13-10.88,12.62.15A13.92,13.92,0,0,1,503.08,394.17Z" style="fill:#fff"></path><path d="M473.17,358.19s1-4.43,4.7-5,11.83.06,11.83.06a26.21,26.21,0,0,0-6.65,10.26l2.89,1.6-12,3.85-3.3-11.78Z" style="fill:#fff"></path><path d="M492.63,353.1a6.69,6.69,0,0,1,5.11,2.26c2.22,2.49,5.7,8.81,5.7,8.81l-9.28,5.68-6.58-10.78A13.91,13.91,0,0,1,492.63,353.1Z" style="fill:#fff"></path><path d="M474.79,397.34s-4.42,1.07-6.56-2S463,384.72,463,384.72a26.16,26.16,0,0,0,12.14,1.42l.15-3.3,8.77,9.05-9.1,8.17Z" style="fill:#fff"></path><path d="M461.61,382.16a6.68,6.68,0,0,1-.23-5.59c1.24-3.09,5.37-9,5.37-9l9.19,5.81L469.2,384A14,14,0,0,1,461.61,382.16Z" style="fill:#fff"></path><g style="opacity:0.30000000000000004"><path d="M435.2,315.42c15,1,30.42,3.52,45.39,4.51,19.64,1.3,40,2.5,58.38-4.51Z"></path></g><path d="M426.58,315.42c0-.15,27.09-.26,60.5-.26s60.52.11,60.52.26-27.09.26-60.52.26S426.58,315.56,426.58,315.42Z" style="fill:#263238"></path><path d="M532.44,473.2h0a3.75,3.75,0,0,0,3.74-3.74V448.87a3.74,3.74,0,0,0-3.74-3.74h0a3.73,3.73,0,0,0-3.74,3.74v20.59A3.74,3.74,0,0,0,532.44,473.2Z" style="fill:#263238"></path><path d="M438.7,473.2h0a3.74,3.74,0,0,0,3.74-3.74V448.87a3.73,3.73,0,0,0-3.74-3.74h0a3.73,3.73,0,0,0-3.73,3.74v20.59A3.74,3.74,0,0,0,438.7,473.2Z" style="fill:#263238"></path></g><g id="freepik--character-2--inject-4"><path d="M629.24,443.56l.72,18.83s-18.9,7.05-19.1,10.54l36.55-.08.09-29.38Z" style="fill:#263238"></path><path d="M641.26,460.78a1.47,1.47,0,0,1,1,1.7,1.43,1.43,0,0,1-1.67,1,1.58,1.58,0,0,1-1.09-1.81,1.49,1.49,0,0,1,1.86-.89" style="fill:#e0e0e0"></path><path d="M647.41,472.85l-.11-3-35,1.18s-1.63.71-1.44,1.86Z" style="fill:#455a64"></path><path d="M629.37,462.2c0,.18.9.26,1.77.83s1.35,1.32,1.52,1.25-.11-1.1-1.18-1.77S629.33,462,629.37,462.2Z" style="fill:#fff"></path><path d="M625.54,463.79c0,.18.73.48,1.34,1.23s.78,1.55,1,1.55.29-1-.49-1.94S625.54,463.62,625.54,463.79Z" style="fill:#fff"></path><path d="M623.37,468.39c.16,0,.41-.86,0-1.83s-1.3-1.37-1.38-1.22.45.67.81,1.48S623.19,468.37,623.37,468.39Z" style="fill:#fff"></path><path d="M629.68,457.89c.07.16.89-.08,1.9,0s1.8.39,1.89.23-.66-.79-1.85-.85S629.59,457.75,629.68,457.89Z" style="fill:#fff"></path><path d="M672.63,441.2l2,22.71L671,482.32a2.34,2.34,0,0,0,2,2.77h0a2.36,2.36,0,0,0,2-.73c3.26-3.56,15.18-16.68,14.94-18.33-.28-1.92-.5-24.1-.5-24.1Z" style="fill:#263238"></path><path d="M673,485.09l16.85-20.6.06,1a3.58,3.58,0,0,1-.68,2.33c-1.34,1.79-5.14,6.65-14.15,16.57a2.33,2.33,0,0,1-2.08.74Z" style="fill:#455a64"></path><g style="opacity:0.6000000000000001"><path d="M684.7,457.45a1.43,1.43,0,0,0-.27,1.87,1.36,1.36,0,0,0,1.85.28,1.49,1.49,0,0,0,.27-2,1.41,1.41,0,0,0-1.95-.08" style="fill:#fff"></path></g><path d="M677.55,474.82a6.89,6.89,0,0,0-2.11-1.64,7.12,7.12,0,0,0-2.65-.34s.26-.25.78-.36a3.73,3.73,0,0,1,3.69,1.53C677.55,474.46,677.61,474.79,677.55,474.82Z" style="fill:#fff"></path><path d="M676.13,478a17.31,17.31,0,0,0-2.08-.85,19.52,19.52,0,0,0-2.24-.15,2.6,2.6,0,0,1,2.35-.34C675.53,476.94,676.24,477.9,676.13,478Z" style="fill:#fff"></path><path d="M680.32,470.72a22.41,22.41,0,0,0-3.12-1.53,23,23,0,0,0-3.42-.57,6.42,6.42,0,0,1,6.54,2.1Z" style="fill:#fff"></path><path d="M680.29,463.77c0,.14-1.34-.31-3-.26s-2.91.52-3,.38a4.53,4.53,0,0,1,3-.88A4.47,4.47,0,0,1,680.29,463.77Z" style="fill:#fff"></path><path d="M679.88,457.09a10.91,10.91,0,0,0-3.1-.36,11.41,11.41,0,0,0-3,1c0-.05.19-.35.69-.69a5.14,5.14,0,0,1,4.56-.45C679.63,456.78,679.91,457,679.88,457.09Z" style="fill:#fff"></path><path d="M676.74,455.46a1.91,1.91,0,0,1-.08-.86,5.81,5.81,0,0,1,.54-2.29,2.62,2.62,0,0,1,1-1.34.93.93,0,0,1,1.07.14,1.49,1.49,0,0,1,.43,1,3.29,3.29,0,0,1-2.7,3.23,3.83,3.83,0,0,1-3.88-1.75,1.35,1.35,0,0,1-.13-1.1.93.93,0,0,1,.93-.55,3.36,3.36,0,0,1,1.55.68,6.59,6.59,0,0,1,1.66,1.67c.32.46.43.75.4.76a10.31,10.31,0,0,0-2.26-2.13,3.09,3.09,0,0,0-1.36-.57.5.5,0,0,0-.51.3.9.9,0,0,0,.13.72,3.42,3.42,0,0,0,3.38,1.48,2.87,2.87,0,0,0,2.33-2.71,1.11,1.11,0,0,0-.27-.71.5.5,0,0,0-.59-.09,2.39,2.39,0,0,0-.91,1.12A9,9,0,0,0,676.74,455.46Z" style="fill:#fff"></path><path d="M612.22,290.1a81,81,0,0,0-1.77,23.8c.39,5.06,17.46,145,17.46,145H651l-6.48-131.52,1.89.41S659,383.88,660,393c.93,8.17,11.54,67.48,11.54,67.48l21.07.24-6.73-78.45L678,307l-2.95-21.91Z" style="fill:#263238"></path><path d="M645.32,318.45s0,.07-.15.16a1.54,1.54,0,0,1-.56.26,2.64,2.64,0,0,1-2.19-.51,4.33,4.33,0,0,1-1.49-3c-.17-1.25-.19-2.6-.29-4-.15-2.84-.26-5.42-.33-7.29a20,20,0,0,1,0-3,20.11,20.11,0,0,1,.32,3c.14,1.86.31,4.43.46,7.28.1,1.42.11,2.79.25,4a4.16,4.16,0,0,0,1.27,2.79,2.55,2.55,0,0,0,2,.59A3.74,3.74,0,0,0,645.32,318.45Z" style="fill:#455a64"></path><path d="M621.87,152.72a4.26,4.26,0,0,1-1.38-8.36,4.44,4.44,0,0,1,4.24-7.27,5.3,5.3,0,0,1,8.2-3.93,6,6,0,0,1,7.34.22,4.24,4.24,0,0,1,3.37,7.38" style="fill:#263238"></path><path d="M641,137.63l-.93,0a18.07,18.07,0,0,0-18.82,15.7c-1.13,8.69-2.28,18.29-2.45,23-.36,9.7,9.25,11.68,9.25,11.68l-.36,12.18,22.5-.14,4.18-42.1C655.71,147.86,651,138.72,641,137.63Z" style="fill:#ae7461"></path><path d="M627.94,187.92a23.57,23.57,0,0,0,12.87-3.09s-3.33,6.82-12.95,5.47Z" style="fill:#6f4439"></path><path d="M623.57,162.22a1.38,1.38,0,0,0,1.26,1.46,1.33,1.33,0,0,0,1.49-1.18,1.38,1.38,0,0,0-1.26-1.46A1.33,1.33,0,0,0,623.57,162.22Z" style="fill:#263238"></path><path d="M623.07,158.12c.16.19,1.25-.53,2.74-.45s2.54.87,2.71.7-.08-.41-.53-.78a3.9,3.9,0,0,0-2.17-.79,3.73,3.73,0,0,0-2.19.59C623.16,157.72,623,158,623.07,158.12Z" style="fill:#263238"></path><path d="M637.35,162.59a1.37,1.37,0,0,0,1.26,1.46,1.32,1.32,0,0,0,1.49-1.17,1.4,1.4,0,0,0-1.26-1.47A1.33,1.33,0,0,0,637.35,162.59Z" style="fill:#263238"></path><path d="M637.69,159.13c.16.19,1.25-.54,2.73-.46s2.54.88,2.71.7-.07-.41-.53-.78a3.83,3.83,0,0,0-2.16-.78,3.64,3.64,0,0,0-2.19.59C637.78,158.73,637.61,159,637.69,159.13Z" style="fill:#263238"></path><path d="M631.74,169.9a9.72,9.72,0,0,0-2.4-.56c-.38-.06-.73-.15-.79-.41a2.07,2.07,0,0,1,.31-1.12c.41-.9.83-1.84,1.27-2.83,1.77-4,3.07-7.38,2.9-7.45s-1.73,3.15-3.49,7.19l-1.22,2.86a2.15,2.15,0,0,0-.27,1.48,1,1,0,0,0,.59.59,2.44,2.44,0,0,0,.65.12A9.9,9.9,0,0,0,631.74,169.9Z" style="fill:#263238"></path><path d="M636.68,153.34c.18.39,1.47,0,3,.07s2.89.35,3,0c.07-.19-.19-.54-.74-.87a4.67,4.67,0,0,0-2.33-.61,4.51,4.51,0,0,0-2.31.58C636.85,152.8,636.6,153.15,636.68,153.34Z" style="fill:#263238"></path><path d="M623.3,152c.3.36,1.54.07,3,.12s2.72.37,3,0c.14-.17,0-.52-.57-.86a5.09,5.09,0,0,0-4.87-.12C623.36,151.47,623.17,151.81,623.3,152Z" style="fill:#263238"></path><path d="M622.37,148.89s2.86-5.94,5.86-7.21c3.62-1.54,4.95,2.42,8.37,1.65s6.89-2.25,10.2.53c3.64,3,1.77,4.95,1.79,9.26.08,17.47,3,22.56,4.33,14.39.14-.89,2.67-1.48,3.23-5.26.73-4.9,1.21-10.87.29-14.42-.78-3-2.36-5.12-5.26-7.51-4.58-3.78-11.11-4.18-15.57-3.95S622.35,141.27,622.37,148.89Z" style="fill:#263238"></path><path d="M652.31,167.22a2.64,2.64,0,0,1,3-2.39c1.8.26,3.75,1.38,3.45,5.11-.54,6.61-7.07,4.71-7.06,4.52S652.06,170,652.31,167.22Z" style="fill:#ae7461"></path><path d="M653.31,172.09s.11.09.3.19a1.17,1.17,0,0,0,.86.09,2.87,2.87,0,0,0,1.52-2.45,3.8,3.8,0,0,0-.18-1.67,1.34,1.34,0,0,0-.8-1,.58.58,0,0,0-.7.26c-.11.18-.08.31-.11.32s-.14-.12-.06-.39a.74.74,0,0,1,.29-.39.89.89,0,0,1,.65-.12,1.64,1.64,0,0,1,1.12,1.12,3.88,3.88,0,0,1,.25,1.88,3,3,0,0,1-1.91,2.72,1.26,1.26,0,0,1-1-.26C653.31,172.25,653.29,172.1,653.31,172.09Z" style="fill:#6f4439"></path><path d="M652.82,154.39a6.34,6.34,0,0,1-2.87,1.15,2.17,2.17,0,0,1-2.32-1.64c0-.46.09-1-.2-1.36s-1-.35-1.57-.31c-1.94.1-4.08-2.13-4.48-4a1.72,1.72,0,0,1-2.33.36,6,6,0,0,1-1.52-1.49,2.7,2.7,0,0,0-2.22-1.25,6.74,6.74,0,0,1-1.46.24c-.86-.12-1.24-1.16-1.33-2s-.14-1.88-.85-2.39a3.5,3.5,0,0,0-2.36-.18c-.81.08-1.83-.16-2-1a1.55,1.55,0,0,1,.36-1.19,4.29,4.29,0,0,1,5.14-1.37,5.82,5.82,0,0,1,10.73-.6,5.91,5.91,0,0,1,9.33,2.62,4.28,4.28,0,0,1,4.51,6.46,4.08,4.08,0,0,1,2.07,3.35c0,1.37-1.45,2.67-2.75,2.24a2.37,2.37,0,0,1-4.21,2.16" style="fill:#263238"></path><path d="M632.22,139.87s0,0,0,.12a2.64,2.64,0,0,0,0,.36,4.32,4.32,0,0,0,.42,1.3,4.65,4.65,0,0,0,1.39,1.64,4.44,4.44,0,0,0,2.67.91l-.1-.16a2.4,2.4,0,0,0,0,1.84,6.93,6.93,0,0,0,1.05,1.68,5.14,5.14,0,0,0,.7.8,2.31,2.31,0,0,0,1,.44,2.4,2.4,0,0,0,2.17-.66l-.24-.08a5,5,0,0,0,1.93,3.54,3.65,3.65,0,0,0,2.14.82,6.72,6.72,0,0,0,2.17-.36l-.17-.09a5.14,5.14,0,0,0,1.46,2.12,2.81,2.81,0,0,0,2.28.75,3.67,3.67,0,0,0,3-2.72l-.16.06a3.36,3.36,0,0,0,2.26.45,3.76,3.76,0,0,0,1.63-.63,3.32,3.32,0,0,0,.78-.77,1.58,1.58,0,0,0,.18-.33,3.86,3.86,0,0,1-1,1,3.63,3.63,0,0,1-1.58.56,3.26,3.26,0,0,1-2.13-.46l-.12-.07,0,.14a3.46,3.46,0,0,1-2.79,2.51,2.52,2.52,0,0,1-2.06-.7,4.93,4.93,0,0,1-1.38-2l-.05-.13-.12,0a6.38,6.38,0,0,1-2.07.35,3.38,3.38,0,0,1-2-.77,4.69,4.69,0,0,1-1.83-3.33l0-.32-.21.23a2.14,2.14,0,0,1-1.92.58,2,2,0,0,1-.91-.38,4.42,4.42,0,0,1-.67-.75,6.73,6.73,0,0,1-1-1.61,2.18,2.18,0,0,1-.06-1.66l.06-.16h-.16a4.38,4.38,0,0,1-2.57-.83,4.76,4.76,0,0,1-1.38-1.56A5,5,0,0,1,632.22,139.87Z" style="fill:#455a64"></path><path d="M631.81,175c.05-.25,1.66.17,3.17-.9s1.78-2.84,2-2.8.21.47,0,1.2a4.22,4.22,0,0,1-1.59,2.35,3.64,3.64,0,0,1-2.63.66C632.12,175.4,631.77,175.11,631.81,175Z" style="fill:#263238"></path><path d="M613.15,199.51l14.68-5.9s0,5.48,5.54,5.9c9.06.68,18.14-8.48,18.14-8.48s16.21,4.31,20.5,6.82-.2,65.13-.2,65.13l1.05,18.66a13.25,13.25,0,0,1,2.68,6c.38,3.21.77,5.34.77,5.34-23.23,9.68-46.37,18.42-69.11,14.47,0,0-.76-11,.15-14.12s.65-3.37.65-3.37l-.29-32.86-.32-32Z" style="fill:#455a64"></path><path d="M613.15,199.51s-5.49,2.43-8.37,6.45-16.59,25.18-16.59,25.18L605,243.47l8.69-5.61Z" style="fill:#455a64"></path><path d="M607.48,265.52q0-27,.08-53.95" style="fill:#fafafa"></path><path d="M607.56,211.57c-.13,0-.26,12.08-.28,27s.07,27,.2,27,.25-12.08.28-27S607.69,211.57,607.56,211.57Z" style="fill:#263238"></path><path d="M683.42,210.51s-2.85-10.84-14.42-13.33c0,0-7.21,8.16-6.66,17.21s1.53,21.71,1.53,21.71l26.79-4.55Z" style="fill:#455a64"></path><path d="M595.89,231.86l-3.45-2.66-13.73,22.69-23.42,5.87v14s23.36-1.54,27.73-4.2,22.66-26.07,22.66-26.07Z" style="fill:#ae7461"></path><path d="M557.81,229.71l5.38,29.14a3.09,3.09,0,0,0,3.61,2.48l26.53-4.9a3.09,3.09,0,0,0,2.48-3.6l-5.23-28.34a3.07,3.07,0,0,0-.92-1.69L582,215.55a3.06,3.06,0,0,0-2.68-.79l-8.71,1.61a3,3,0,0,0-1.57.79l-10.28,9.74A3.1,3.1,0,0,0,557.81,229.71Zm5.21-2.17,6.53-6.19a2.29,2.29,0,0,1,3.23.09h0a2.29,2.29,0,0,1-.09,3.22l-6.54,6.19a2.28,2.28,0,1,1-3.13-3.31Z" style="fill:#455a64"></path><rect x="570.55" y="212.63" width="8.37" height="2.95" transform="translate(1178.78 320.34) rotate(169.54)" style="fill:#455a64"></rect><rect x="568.55" y="210.39" width="11.97" height="3.95" rx="1.09" transform="matrix(-0.98, 0.18, -0.18, -0.98, 1178.07, 316.94)" style="fill:#263238"></rect><path d="M596.19,250.45a1.6,1.6,0,0,1,1.25-1.42,1.18,1.18,0,0,1-.92-1.47,1.87,1.87,0,0,1,1.14-1.55,1.33,1.33,0,0,1-.86-1.56,1.68,1.68,0,0,1,1.6-1.29,1.33,1.33,0,0,1-1.14-1.36c.08-1.15,1.43-1.29,1.43-1.29l-1-1.38.71-4.21a1.61,1.61,0,0,1,.75-1.11l4.21-2.61,4.92.83.71.12,3.13,3.83a1.66,1.66,0,0,1,.35,1.3l-.71,4.21-1.38,1s1.22.58.93,1.69a1.33,1.33,0,0,1-1.53.91,1.68,1.68,0,0,1,1.09,1.74,1.32,1.32,0,0,1-1.31,1.2,1.88,1.88,0,0,1,.56,1.84,1.18,1.18,0,0,1-1.35,1.08,1.63,1.63,0,0,1,.73,1.76,1.48,1.48,0,0,1-1.21,1.36l1.09,1.67-1.5,8.91a2.64,2.64,0,0,1-2.95,1.4,2.38,2.38,0,0,1-2.11-2.39s-.36,1.94-2.17,1.67l-.24,0a2,2,0,0,1-1.5-2.29,2.37,2.37,0,0,1-2.77,1.57,2.63,2.63,0,0,1-2.34-2.28l1.5-8.91,1.57-1.23A1.46,1.46,0,0,1,596.19,250.45Z" style="fill:#e0e0e0"></path><rect x="603.13" y="228.57" width="6.62" height="3.12" rx="0.64" transform="translate(1166.44 557.46) rotate(-170.47)" style="fill:#005EFF"></rect><path d="M598.69,240.52a49,49,0,0,0,6,1.21,47.5,47.5,0,0,0,6.07.82,50.21,50.21,0,0,0-6-1.2A51.14,51.14,0,0,0,598.69,240.52Z" style="fill:#263238"></path><path d="M597.8,239.15a64.42,64.42,0,0,0,7,1.36,62.34,62.34,0,0,0,7,1,137.34,137.34,0,0,0-14-2.34Z" style="fill:#263238"></path><path d="M598.09,243.2a48.23,48.23,0,0,0,6,1.2,51.08,51.08,0,0,0,6,.82,47.24,47.24,0,0,0-6-1.2A51.08,51.08,0,0,0,598.09,243.2Z" style="fill:#263238"></path><path d="M597.64,245.92a48.48,48.48,0,0,0,6,1.19,49.18,49.18,0,0,0,6,.82,48.48,48.48,0,0,0-6-1.19A46.48,46.48,0,0,0,597.64,245.92Z" style="fill:#263238"></path><path d="M597.14,248.91a47.31,47.31,0,0,0,6,1.2,51.08,51.08,0,0,0,6,.82,47.24,47.24,0,0,0-6-1.2A51.35,51.35,0,0,0,597.14,248.91Z" style="fill:#263238"></path><path d="M596.63,251.91a49.44,49.44,0,0,0,6,1.19,46.48,46.48,0,0,0,6,.82,51.87,51.87,0,0,0-6-1.19A48.67,48.67,0,0,0,596.63,251.91Z" style="fill:#263238"></path><path d="M595.3,253.42a67.1,67.1,0,0,0,7,1.37,64.9,64.9,0,0,0,7.07,1,71.12,71.12,0,0,0-7-1.37A68.39,68.39,0,0,0,595.3,253.42Z" style="fill:#263238"></path><path d="M581,238.27a1.86,1.86,0,0,1,1.33-1.74,1.35,1.35,0,0,1-1.18-1.6,2.15,2.15,0,0,1,1.18-1.88,1.53,1.53,0,0,1-1.11-1.72c.14-1.44,1.73-1.62,1.73-1.62s-1.44-.14-1.43-1.46,1.54-1.61,1.54-1.61l-1.25-1.5.47-4.9a1.9,1.9,0,0,1,.76-1.34l4.63-3.34,5.73.54.82.08,3.91,4.16a1.86,1.86,0,0,1,.51,1.45l-.47,4.9-1.51,1.25s1.46.56,1.21,1.86a1.53,1.53,0,0,1-1.67,1.17,1.93,1.93,0,0,1,1.39,1.91,1.52,1.52,0,0,1-1.41,1.48,2.14,2.14,0,0,1,.79,2.07,1.35,1.35,0,0,1-1.45,1.36,1.86,1.86,0,0,1,1,2,1.69,1.69,0,0,1-1.27,1.66l1.38,1.83-1,10.36a3,3,0,0,1-3.27,1.85,2.73,2.73,0,0,1-2.62-2.57s-.26,2.26-2.36,2.1l-.28,0c-2.09-.24-1.92-2.5-1.92-2.5a2.72,2.72,0,0,1-3,2,3,3,0,0,1-2.87-2.43l1-10.36,1.71-1.54A1.7,1.7,0,0,1,581,238.27Z" style="fill:#e0e0e0"></path><path d="M583,226.66a67.07,67.07,0,0,0,7,.86,62.24,62.24,0,0,0,7,.47,68.38,68.38,0,0,0-7-.85A66.94,66.94,0,0,0,583,226.66Z" style="fill:#263238"></path><path d="M581.9,225.16c0,.1,3.61.53,8.09,1s8.13.68,8.14.58-3.62-.54-8.1-1S581.91,225.05,581.9,225.16Z" style="fill:#263238"></path><path d="M582.57,229.79a67.56,67.56,0,0,0,6.95.85,61.57,61.57,0,0,0,7,.47,68,68,0,0,0-7-.85A61.34,61.34,0,0,0,582.57,229.79Z" style="fill:#263238"></path><path d="M582.27,233a128.25,128.25,0,0,0,14,1.32,64.82,64.82,0,0,0-7-.85A61.34,61.34,0,0,0,582.27,233Z" style="fill:#263238"></path><path d="M581.94,236.43a64.39,64.39,0,0,0,6.95.85,61.57,61.57,0,0,0,7,.47,128.88,128.88,0,0,0-13.95-1.32Z" style="fill:#263238"></path><path d="M581.61,239.91a62.79,62.79,0,0,0,6.95.86,67.52,67.52,0,0,0,7,.47,62.31,62.31,0,0,0-7-.85A66,66,0,0,0,581.61,239.91Z" style="fill:#263238"></path><path d="M580.2,241.76c0,.1,3.64.54,8.16,1s8.2.7,8.21.59-3.65-.53-8.17-1S580.21,241.65,580.2,241.76Z" style="fill:#263238"></path><rect x="587.27" y="212.28" width="7.63" height="3.6" rx="0.89" transform="translate(1159.28 483.1) rotate(-174.57)" style="fill:#455a64"></rect><path d="M593.54,216.09a4.15,4.15,0,0,0,.37-1.71,4.08,4.08,0,0,0,0-1.76,4.28,4.28,0,0,0-.37,1.72A4,4,0,0,0,593.54,216.09Z" style="fill:#263238"></path><path d="M592.26,215.88a4.28,4.28,0,0,0,.37-1.72,4.33,4.33,0,0,0,0-1.75,4,4,0,0,0-.38,1.71A4.26,4.26,0,0,0,592.26,215.88Z" style="fill:#263238"></path><path d="M591,215.82a7.88,7.88,0,0,0,.37-3.47,4.27,4.27,0,0,0-.37,1.71A4.37,4.37,0,0,0,591,215.82Z" style="fill:#263238"></path><path d="M589.56,215.64a4.28,4.28,0,0,0,.37-1.72,4.33,4.33,0,0,0,0-1.75,4.17,4.17,0,0,0-.38,1.71A4.26,4.26,0,0,0,589.56,215.64Z" style="fill:#263238"></path><path d="M588.27,215.49a4.15,4.15,0,0,0,.37-1.71,4.37,4.37,0,0,0,0-1.76,4,4,0,0,0-.38,1.72A4.2,4.2,0,0,0,588.27,215.49Z" style="fill:#263238"></path><rect x="555.29" y="239.35" width="65.03" height="43.77" transform="translate(1175.61 522.48) rotate(180)" style="fill:#005EFF"></rect><g style="opacity:0.30000000000000004"><polygon points="555.29 283.1 583.78 283.12 583.78 239.35 555.29 239.35 555.29 283.1"></polygon></g><path d="M555.36,254s-5.06.5-4.37,7.18c0,0-2.7,5.65,0,8.14s.88,8.06,3.74,9.9a25.56,25.56,0,0,0,6.85,2.36,1.39,1.39,0,0,0,1-2.55,7.18,7.18,0,0,0-.78-.43l-3.52-2-1.75-5.72,6.61,1.44a2.32,2.32,0,0,0,2.45-.94c.46-.71.48-1.65-1.25-2.58a39.8,39.8,0,0,0-8.14-2.72l-.36-5.94s1.91,2.13,2.72,0S555.36,254,555.36,254Z" style="fill:#ae7461"></path><path d="M554,257a1.94,1.94,0,0,0,.16,1,5.77,5.77,0,0,0,1.32,2.18,3.76,3.76,0,0,0,1.16.86,1.6,1.6,0,0,0,1.21.05,1.11,1.11,0,0,0,.62-.52c.08-.18.07-.29.05-.3a1.29,1.29,0,0,1-1.74.45,3.85,3.85,0,0,1-1-.8A9.82,9.82,0,0,1,554,257Z" style="fill:#6f4439"></path><path d="M551,268.19s.07.18.31.43a5.05,5.05,0,0,0,1.15.88,18.4,18.4,0,0,0,4.49,1.48c1.78.45,3.4.83,4.58,1.09a9.73,9.73,0,0,0,1.92.34,9.86,9.86,0,0,0-1.86-.6c-1.16-.33-2.77-.75-4.55-1.2a22.52,22.52,0,0,1-4.45-1.35A10.07,10.07,0,0,1,551,268.19Z" style="fill:#6f4439"></path><polyline points="585.17 239.35 565.93 250.09 537.9 250.09 554.93 239.35" style="fill:#005EFF"></polyline><path d="M554.93,239.35a1.48,1.48,0,0,1-.3.23l-.9.62-3.46,2.25L538,250.28l-.12-.43,15,0,13.07,0-.12,0,13.9-7.64,4-2.15,1.07-.56a2,2,0,0,1,.39-.17,1.28,1.28,0,0,1-.35.24l-1,.62-3.94,2.28-13.8,7.81-.06,0h-.06l-13.07,0-15,0h-.82l.69-.43,12.35-7.68,3.53-2.14.94-.55A1.65,1.65,0,0,1,554.93,239.35Z" style="fill:#263238"></path><polygon points="623.47 239.35 637.81 249.41 594.63 249.41 583.78 239.35 623.47 239.35" style="fill:#005EFF"></polygon><path d="M623.47,239.35s-.07,0-.2,0l-.57,0-2.21,0-8.23.07-28.48.1.17-.43,10.85,10.05-.17-.07h3.11l40.07.08-.11.34-10.42-7.42-2.83-2.05-.74-.54a1.76,1.76,0,0,1-.24-.21l.26.16.75.49,2.88,2,10.56,7.3.49.34h-.6l-40.07.07h-3.21l-.08-.07-10.84-10.06-.46-.44h.63l28.54.09,8.22.07,2.18,0,.56,0Z" style="fill:#263238"></path><path d="M649.71,285.72a1.87,1.87,0,0,1,2,.79,1.34,1.34,0,0,1,1.21-1.57,2.15,2.15,0,0,1,2.14.6,1.52,1.52,0,0,1,1.34-1.55,2,2,0,0,1,2,1.21,1.53,1.53,0,0,1,1-1.78c1.28-.36,2,1,2,1l1.1-1.61,4.83-.92a1.87,1.87,0,0,1,1.5.36l4.5,3.51,1.08,5.65.15.82-2.89,4.91a1.88,1.88,0,0,1-1.27.89l-4.83.92-1.61-1.1s-.14,1.55-1.46,1.68a1.53,1.53,0,0,1-1.59-1.28,1.93,1.93,0,0,1-1.44,1.87,1.53,1.53,0,0,1-1.82-.95,2.15,2.15,0,0,1-1.77,1.35,1.34,1.34,0,0,1-1.7-1,1.86,1.86,0,0,1-1.61,1.48,1.7,1.7,0,0,1-2-.76l-1.37,1.84-10.22,2a3,3,0,0,1-2.69-2.63,2.72,2.72,0,0,1,1.74-3.23s-2.24.38-2.67-1.68l-.06-.28c-.35-2.07,1.87-2.54,1.87-2.54a2.73,2.73,0,0,1-2.8-2.37,3,3,0,0,1,1.53-3.43l10.23-1.94,1.95,1.21A1.7,1.7,0,0,1,649.71,285.72Z" style="fill:#f5f5f5"></path><path d="M661.44,284.4a62.83,62.83,0,0,0,1.13,7,63.48,63.48,0,0,0,1.51,6.9,67.58,67.58,0,0,0-1.14-7A68.16,68.16,0,0,0,661.44,284.4Z" style="fill:#263238"></path><path d="M662.56,282.89c-.1,0,.5,3.63,1.34,8.05s1.61,8,1.71,8-.49-3.62-1.34-8S662.67,282.88,662.56,282.89Z" style="fill:#263238"></path><path d="M658.3,284.83a64.77,64.77,0,0,0,1.13,6.92,66,66,0,0,0,1.49,6.85,63.1,63.1,0,0,0-1.12-6.92A61.5,61.5,0,0,0,658.3,284.83Z" style="fill:#263238"></path><path d="M655.19,285.43a66.65,66.65,0,0,0,1.12,6.91,61.5,61.5,0,0,0,1.5,6.85,64.77,64.77,0,0,0-1.13-6.92A65.36,65.36,0,0,0,655.19,285.43Z" style="fill:#263238"></path><path d="M651.75,286.08a66.14,66.14,0,0,0,1.12,6.92,66.8,66.8,0,0,0,1.5,6.84,66.2,66.2,0,0,0-1.12-6.91A67.42,67.42,0,0,0,651.75,286.08Z" style="fill:#263238"></path><path d="M648.31,286.73a66.14,66.14,0,0,0,1.12,6.92,67.42,67.42,0,0,0,1.5,6.85,66.14,66.14,0,0,0-1.12-6.92A61.5,61.5,0,0,0,648.31,286.73Z" style="fill:#263238"></path><path d="M646.15,285.9c-.1,0,.5,3.65,1.35,8.11s1.62,8.06,1.72,8-.5-3.65-1.35-8.11S646.25,285.88,646.15,285.9Z" style="fill:#263238"></path><rect x="671.95" y="286.83" width="7.63" height="3.6" rx="0.89" transform="translate(518.52 1006.43) rotate(-100.77)" style="fill:#455a64"></rect><path d="M674.51,291.55a4.27,4.27,0,0,0,1.76-.12,4.21,4.21,0,0,0,1.68-.5,4.22,4.22,0,0,0-1.75.12A4.11,4.11,0,0,0,674.51,291.55Z" style="fill:#263238"></path><path d="M674.36,290.26a4.23,4.23,0,0,0,1.75-.12,4,4,0,0,0,1.69-.5,4.22,4.22,0,0,0-1.75.12A4.29,4.29,0,0,0,674.36,290.26Z" style="fill:#263238"></path><path d="M674.06,289a4.22,4.22,0,0,0,1.75-.12,4,4,0,0,0,1.68-.5,4.22,4.22,0,0,0-1.75.12A4.13,4.13,0,0,0,674.06,289Z" style="fill:#263238"></path><path d="M673.84,287.6a4.22,4.22,0,0,0,1.75-.12,4.11,4.11,0,0,0,1.69-.5,8.46,8.46,0,0,0-3.44.62Z" style="fill:#263238"></path><path d="M673.62,286.32a4.22,4.22,0,0,0,1.75-.12,4.11,4.11,0,0,0,1.69-.5,4.39,4.39,0,0,0-1.76.13A4.29,4.29,0,0,0,673.62,286.32Z" style="fill:#263238"></path><path d="M638.92,274.24a1.85,1.85,0,0,1-1.37,1.71,1.35,1.35,0,0,1,1.14,1.63,2.15,2.15,0,0,1-1.21,1.86,1.51,1.51,0,0,1,1.06,1.74,1.94,1.94,0,0,1-1.76,1.58s1.43.17,1.39,1.5-1.57,1.56-1.57,1.56l1.21,1.54-.58,4.88a1.82,1.82,0,0,1-.8,1.32l-4.7,3.24-5.71-.68-.82-.1-3.82-4.24a1.88,1.88,0,0,1-.47-1.47l.58-4.88,1.53-1.21s-1.44-.6-1.16-1.89a1.53,1.53,0,0,1,1.7-1.13,2,2,0,0,1-1.35-1.95,1.53,1.53,0,0,1,1.45-1.45,2.16,2.16,0,0,1-.75-2.08,1.35,1.35,0,0,1,1.49-1.32,1.87,1.87,0,0,1-.93-2,1.69,1.69,0,0,1,1.31-1.63l-1.34-1.86,1.22-10.34a3,3,0,0,1,3.31-1.77,2.72,2.72,0,0,1,2.56,2.63s.31-2.25,2.41-2l.28,0c2.08.29,1.86,2.55,1.86,2.55a2.73,2.73,0,0,1,3.1-2,3,3,0,0,1,2.81,2.49l-1.22,10.34-1.75,1.5A1.69,1.69,0,0,1,638.92,274.24Z" style="fill:#e0e0e0"></path><path d="M636.65,285.82a65.17,65.17,0,0,0-7-1,68.14,68.14,0,0,0-7-.65,64.55,64.55,0,0,0,7,1A63.29,63.29,0,0,0,636.65,285.82Z" style="fill:#263238"></path><path d="M637.75,287.35c0-.1-3.6-.61-8.07-1.14s-8.11-.88-8.12-.77,3.6.61,8.07,1.14S637.74,287.46,637.75,287.35Z" style="fill:#263238"></path><path d="M637.18,282.71a61.55,61.55,0,0,0-6.93-1,65.34,65.34,0,0,0-7-.64,131.49,131.49,0,0,0,13.91,1.65Z" style="fill:#263238"></path><path d="M637.56,279.56a62.45,62.45,0,0,0-6.94-1,65.34,65.34,0,0,0-7-.64,132.09,132.09,0,0,0,13.92,1.65Z" style="fill:#263238"></path><path d="M638,276.08a132.09,132.09,0,0,0-13.92-1.65A125.41,125.41,0,0,0,638,276.08Z" style="fill:#263238"></path><path d="M638.38,272.61a63.28,63.28,0,0,0-6.94-1,66.53,66.53,0,0,0-7-.63,132.09,132.09,0,0,0,13.92,1.65Z" style="fill:#263238"></path><path d="M639.83,270.79c0-.1-3.63-.62-8.14-1.15s-8.18-.88-8.19-.78,3.63.62,8.14,1.16S639.82,270.9,639.83,270.79Z" style="fill:#263238"></path><rect x="624.49" y="296.42" width="7.63" height="3.6" rx="0.89" transform="translate(39.39 -71.76) rotate(6.75)" style="fill:#455a64"></rect><path d="M625.9,296.14a4.22,4.22,0,0,0-.41,1.71,4.34,4.34,0,0,0,0,1.75,4.06,4.06,0,0,0,.42-1.7A4.3,4.3,0,0,0,625.9,296.14Z" style="fill:#263238"></path><path d="M627.17,296.39a4.34,4.34,0,0,0-.41,1.7,4.09,4.09,0,0,0,0,1.76,4.22,4.22,0,0,0,.41-1.71A4,4,0,0,0,627.17,296.39Z" style="fill:#263238"></path><path d="M628.48,296.48a4,4,0,0,0-.41,1.7,4.19,4.19,0,0,0,0,1.76,4,4,0,0,0,.41-1.71A4.15,4.15,0,0,0,628.48,296.48Z" style="fill:#263238"></path><path d="M629.87,296.69a4.14,4.14,0,0,0-.42,1.71,4.24,4.24,0,0,0,0,1.75,4.22,4.22,0,0,0,.41-1.71A4.35,4.35,0,0,0,629.87,296.69Z" style="fill:#263238"></path><path d="M631.15,296.86a4.49,4.49,0,0,0-.41,1.71,4.1,4.1,0,0,0,0,1.76,4.22,4.22,0,0,0,.41-1.71A4.1,4.1,0,0,0,631.15,296.86Z" style="fill:#263238"></path><polygon points="638.98 280.32 647.73 285.6 655.05 275.5 644.41 269.08 638.98 280.32" style="fill:#005EFF"></polygon><rect x="642.03" y="271.73" width="15.01" height="1.69" transform="matrix(-0.86, -0.52, 0.52, -0.86, 1064.94, 841.45)" style="fill:#005EFF"></rect><path d="M642.68,269.54a53.32,53.32,0,0,1,6.47,3.61,54.53,54.53,0,0,1,6.21,4,51.22,51.22,0,0,1-6.48-3.6A50.58,50.58,0,0,1,642.68,269.54Z" style="fill:#263238"></path><polygon points="647.84 236.07 635.1 241.15 639.97 257.14 655.45 250.97 647.84 236.07" style="fill:#f5f5f5"></polygon><rect x="637.51" y="252.49" width="20.13" height="2.27" transform="translate(-47.88 257.93) rotate(-21.74)" style="fill:#f5f5f5"></rect><path d="M656.36,248.75a94.53,94.53,0,0,1-9.12,3.92,98.21,98.21,0,0,1-9.32,3.44,93,93,0,0,1,9.12-3.93A96.34,96.34,0,0,1,656.36,248.75Z" style="fill:#263238"></path><polygon points="662.49 249.19 669.15 270.62 658.49 276 645.34 257.83 662.49 249.19" style="fill:#ebebeb"></polygon><path d="M661.51,272.89h8.08a1.9,1.9,0,0,1,1.9,1.9v5.67a0,0,0,0,1,0,0H659.61a0,0,0,0,1,0,0v-5.67a1.9,1.9,0,0,1,1.9-1.9Z" transform="translate(1384.38 223.96) rotate(153.23)" style="fill:#005EFF"></path><path d="M654.55,265.59a4.83,4.83,0,1,0,2.14-6.48A4.83,4.83,0,0,0,654.55,265.59Z" style="fill:#005EFF"></path><path d="M646.37,259.05a80.8,80.8,0,0,1,8.17-4.42,83.17,83.17,0,0,1,8.41-3.95,80.8,80.8,0,0,1-8.17,4.42A83.17,83.17,0,0,1,646.37,259.05Z" style="fill:#263238"></path><path d="M659.23,277.53a68.1,68.1,0,0,1,10.65-5.37,35.82,35.82,0,0,1-5.21,2.91A34.76,34.76,0,0,1,659.23,277.53Z" style="fill:#263238"></path><g style="opacity:0.6000000000000001"><path d="M641.91,227.26c1.75-1.9-1.57-10.94-1.57-10.94l-13.48-12a6.3,6.3,0,0,1-1.8-2.15,2.17,2.17,0,0,1,.53-2.57,3,3,0,0,1,2.58-.1,32.47,32.47,0,0,1,8.37,3.7l-2.49-6.49c-.35-.9-.65-2,0-2.73s1.86-.39,2.73.06a12.29,12.29,0,0,1,6.39,10,45.48,45.48,0,0,1,3.94-12.36c.54-1.1,1.26-2.3,2.46-2.57a2.9,2.9,0,0,1,3,1.69,7.53,7.53,0,0,1,.56,3.62,42.85,42.85,0,0,1-6.42,21.25c3,.85,1.41,10.28,3.66,12.59,8.34,8.56,21.6,34.08,25.87,45.24,0,0,8.28,24.08-10.22,32.83-5.91,2.8-11.37,1.15-17.78-.14S634.78,304.94,629,302c-4.65-2.37-9.56-5-12-9.63-3.21-6-1.33-13.37,1.26-19.65C622.59,262,634.09,235.77,641.91,227.26Z" style="fill:#fff"></path></g><path d="M641.91,227.26l-.56.71c-.37.46-1,1.12-1.61,2.08a84.45,84.45,0,0,0-5.35,8.58,339.84,339.84,0,0,0-15.84,33.67,36.15,36.15,0,0,0-3.09,11.81,16.05,16.05,0,0,0,.88,6.38,14.15,14.15,0,0,0,3.71,5.52,29,29,0,0,0,5.71,4,37.06,37.06,0,0,0,6.53,3.06c4.67,1.53,9.77,1.78,14.91,2.68,2.56.46,5.12,1.11,7.73,1.51a20.55,20.55,0,0,0,7.93-.07,19.75,19.75,0,0,0,12.45-10c2.56-5,2.94-11,2.22-16.7-.19-1.44-.45-2.88-.78-4.3-.17-.71-.35-1.42-.57-2.12s-.52-1.37-.78-2.05c-1.12-2.73-2.34-5.45-3.63-8.15a241.34,241.34,0,0,0-13.63-24.83,75.46,75.46,0,0,0-8.15-10.9,8,8,0,0,1-1-3.28c-.16-1.11-.24-2.22-.34-3.31a26.42,26.42,0,0,0-.44-3.23,6.45,6.45,0,0,0-.5-1.48,1.74,1.74,0,0,0-1-.95l-.31-.09.17-.28a41.61,41.61,0,0,0,6.34-23,4,4,0,0,0-1.07-2.47,2.32,2.32,0,0,0-2.38-.69,3.69,3.69,0,0,0-1.81,1.86c-.43.82-.82,1.67-1.18,2.52a45.31,45.31,0,0,0-3,10.29l-.32,1.85-.1-1.87a11.92,11.92,0,0,0-7-10.14,2.13,2.13,0,0,0-1.4-.08,1.15,1.15,0,0,0-.76,1,7,7,0,0,0,.74,2.83c.71,1.86,1.41,3.68,2.08,5.46l.19.49-.45-.28a32,32,0,0,0-5-2.57c-.85-.35-1.7-.65-2.55-.91a5.89,5.89,0,0,0-2.5-.41,1.6,1.6,0,0,0-1.33,1.66,3.06,3.06,0,0,0,.91,2.1c1.1,1.13,2.32,2.12,3.41,3.13l11.06,9.89,0,0v0a35,35,0,0,1,2,8.23,5.36,5.36,0,0,1-.17,2.13,1.48,1.48,0,0,1-.35.61,2.46,2.46,0,0,0,.31-.63,5.81,5.81,0,0,0,.12-2.1,36.21,36.21,0,0,0-2.08-8.18l0,0-11.12-9.83c-1.1-1-2.3-2-3.45-3.13a3.38,3.38,0,0,1-1-2.3,2.24,2.24,0,0,1,.41-1.28,1.84,1.84,0,0,1,1.17-.7,6.31,6.31,0,0,1,2.66.42c.85.26,1.72.56,2.58.91a31.73,31.73,0,0,1,5.1,2.58l-.26.21-2.1-5.45a7.2,7.2,0,0,1-.77-3,1.53,1.53,0,0,1,1-1.33,2.61,2.61,0,0,1,1.66.08,12.31,12.31,0,0,1,7.24,10.49l-.42,0a46.21,46.21,0,0,1,3-10.4c.37-.86.75-1.7,1.19-2.55a4.13,4.13,0,0,1,2.06-2.08,2.78,2.78,0,0,1,2.85.79,4.54,4.54,0,0,1,1.21,2.74,42,42,0,0,1-6.38,23.3l-.15-.37a2.27,2.27,0,0,1,1.32,1.2,7.39,7.39,0,0,1,.55,1.6,28.26,28.26,0,0,1,.45,3.29c.1,1.1.18,2.2.34,3.29a7.61,7.61,0,0,0,.94,3.06,74.68,74.68,0,0,1,8.17,10.92,241.36,241.36,0,0,1,13.67,24.87q1.95,4.06,3.65,8.18c.26.71.58,1.36.79,2.1s.4,1.43.57,2.15a43.13,43.13,0,0,1,.79,4.35c.73,5.79.35,11.85-2.27,17A20.3,20.3,0,0,1,663,307.7a21.09,21.09,0,0,1-8.11.07c-2.65-.42-5.2-1.06-7.75-1.53-5.09-.9-10.22-1.16-15-2.71a38.15,38.15,0,0,1-6.61-3.11,29.22,29.22,0,0,1-5.79-4.1,14.76,14.76,0,0,1-3.81-5.69,16.52,16.52,0,0,1-.88-6.54,36.19,36.19,0,0,1,3.15-11.93,328.28,328.28,0,0,1,16-33.63,78,78,0,0,1,5.44-8.54,24.07,24.07,0,0,1,1.65-2.06C641.7,227.48,641.91,227.26,641.91,227.26Z" style="fill:#263238"></path><path d="M653.56,211.63s3.41,1.52,3.41,3.15,2.57,12.28,2.57,12.28l13.94,8.71,0-1.31,14.73-2.5s4.11,16.67,4.75,21c.49,3.33-.7,13.9-5.11,14.5-9.07,1.25-13-5.23-17.18-9.78-7.05-7.72-17.89-22.13-19-24.33a26.56,26.56,0,0,1-2.46-8.83Z" style="fill:#ae7461"></path><path d="M669.38,233.46a24.43,24.43,0,0,0,2.74,1.81l6.7,4.22,6.63,4.32a22.17,22.17,0,0,0,2.79,1.74,18.58,18.58,0,0,0-2.59-2c-1.64-1.19-3.95-2.78-6.56-4.45s-5-3.11-6.78-4.11A19.51,19.51,0,0,0,669.38,233.46Z" style="fill:#6f4439"></path><path d="M653.56,211.63s-8.48-2.76-9.12-2.38-4.6,4.41-4.66,5.22a8,8,0,0,0,.88,2.61s-1.52,3.69,1.34,5.24c0,0-2.32,1.41-1.7,3.39a5.39,5.39,0,0,0,1.45,2.08l.72-2.39,4.61-1.08h0l2.3.87,4.15-5.52Z" style="fill:#ae7461"></path><path d="M642.28,222.35a2.87,2.87,0,0,1,.55-1.17,4.57,4.57,0,0,1,2.91-1.12,22,22,0,0,0,4.61-1.05,22.23,22.23,0,0,0-4.7.55,9.42,9.42,0,0,0-1.83.44,2.9,2.9,0,0,0-1.27.95C642,221.74,642.23,222.39,642.28,222.35Z" style="fill:#6f4439"></path><path d="M641.59,221.77a7,7,0,0,0,.25-1.85,5.84,5.84,0,0,1,.28-1.88c.29-.57,1.17-.61,2-.73a39.12,39.12,0,0,0,6.25-1.11,42,42,0,0,0-6.31.61c-.44.07-.86.1-1.29.21a1.65,1.65,0,0,0-1.09.8,2.61,2.61,0,0,0-.23,1.14v.94A6.83,6.83,0,0,0,641.59,221.77Z" style="fill:#6f4439"></path><path d="M640.56,217.06c.07.05.48-.51.79-1.52a5.56,5.56,0,0,1,.73-1.58,2,2,0,0,1,1.77-.78,36.93,36.93,0,0,0,5.74.15,30.12,30.12,0,0,0-5.75-.66,3.27,3.27,0,0,0-1.23.23,2.3,2.3,0,0,0-.9.78,5.15,5.15,0,0,0-.71,1.76C640.79,216.46,640.51,217,640.56,217.06Z" style="fill:#6f4439"></path></g><g id="freepik--character-1--inject-4"><polygon points="334.71 273.77 339.26 287.95 221.63 327.79 216.86 313.69 334.71 273.77" style="fill:#455a64"></polygon><path d="M331.91,285.2l35.33,149.34a6.16,6.16,0,0,1-4,7.18l-69.67,23.6a5.84,5.84,0,0,1-7.3-3.4L226,321.07Z" style="fill:#455a64"></path><path d="M326.74,338s-.49-4.65,2.92-6.43,11.57-3.85,11.57-3.85a26.93,26.93,0,0,0-3.11,12.2l3.35.61L331,348.21l-7.11-10.4Z" style="fill:#fff"></path><path d="M341.25,375.64s-3.95,2.5-7.06.23-8.58-8.66-8.58-8.66a27,27,0,0,0,12.32-2.63l-.94-3.27,11.55,5.93-6.18,11Z" style="fill:#fff"></path><path d="M323.37,365.18a6.89,6.89,0,0,1-2.07-5.37c.19-3.43,2.26-10.58,2.26-10.58l10.89,2.63L331.4,364.5A14.38,14.38,0,0,1,323.37,365.18Z" style="fill:#fff"></path><g style="opacity:0.30000000000000004"><path d="M229.93,325c14.93-4,30.84-6.62,45.78-10.6,19.6-5.22,39.86-10.78,55.48-23.7Z"></path></g><path d="M221.51,327.84c0-.14,26.35-9.21,59-20.25s59.1-19.9,59.14-19.76-26.35,9.2-59,20.25S221.55,328,221.51,327.84Z" style="fill:#263238"></path><circle cx="288.66" cy="457.54" r="17.71" transform="translate(-249.22 515.46) rotate(-63.9)" style="fill:#263238"></circle><circle cx="288.66" cy="457.54" r="10.52" transform="translate(-85.47 66.77) rotate(-11.51)" style="fill:#455a64"></circle><polygon points="223.21 311.54 249 286.54 294.49 271.13 330.09 275.34 223.21 311.54" style="fill:#455a64"></polygon><path d="M334.71,273.77c.05.14-26.3,9.18-58.84,20.21s-59,19.85-59,19.71,26.3-9.18,58.84-20.21S334.66,273.63,334.71,273.77Z" style="fill:#263238"></path><path d="M122.36,443.18,118.75,462s-20.89,6.69-21,10.58l39.66.72,3.12-30Z" style="fill:#455a64"></path><g style="opacity:0.6000000000000001"><path d="M134.16,461.5a1.65,1.65,0,0,1,1.18,1.87,1.59,1.59,0,0,1-1.85,1.19,1.74,1.74,0,0,1-1.24-2,1.66,1.66,0,0,1,2.06-1" style="fill:#fff"></path></g><g style="opacity:0.6000000000000001"><path d="M137.36,473.28l.64-2.88-39,.26a2.8,2.8,0,0,0-1.54,2.19Z" style="fill:#fff"></path></g><path d="M118.08,461.79c0,.2,1,.27,2,.89s1.52,1.44,1.7,1.36-.13-1.22-1.34-2S118,461.61,118.08,461.79Z" style="fill:#263238"></path><path d="M113.85,463.64c0,.19.83.51,1.52,1.34s.9,1.71,1.1,1.7.3-1.14-.58-2.15S113.85,463.45,113.85,463.64Z" style="fill:#263238"></path><path d="M111.53,468.79c.18,0,.44-1-.09-2s-1.47-1.49-1.55-1.32.51.73.93,1.63S111.33,468.77,111.53,468.79Z" style="fill:#263238"></path><path d="M119.76,457.41c.09.18,1-.11,2.12-.05s2,.39,2.1.21-.75-.86-2.08-.9S119.66,457.26,119.76,457.41Z" style="fill:#263238"></path><path d="M218.88,438.67l16.57,11.5s-11.79,18.49-9.43,21.58l31.73-25.43-25.26-20.91Z" style="fill:#455a64"></path><g style="opacity:0.6000000000000001"><path d="M243.8,440.61a1.66,1.66,0,0,1,2.11.68,1.6,1.6,0,0,1-.66,2.1,1.75,1.75,0,0,1-2.22-.73,1.66,1.66,0,0,1,.92-2.11" style="fill:#fff"></path></g><g style="opacity:0.6000000000000001"><path d="M257.75,446.32l-2.57-2.13-29.36,25.25a2.84,2.84,0,0,0,.22,2.67Z" style="fill:#fff"></path></g><path d="M234.81,450.44c.14.15.95-.43,2.1-.59s2.1.14,2.19,0-.89-.86-2.29-.64S234.66,450.33,234.81,450.44Z" style="fill:#263238"></path><path d="M232.74,454.57c.09.17,1-.13,2,.06s1.79.74,1.93.6-.49-1.07-1.81-1.28S232.62,454.42,232.74,454.57Z" style="fill:#263238"></path><path d="M234.25,460c.16-.08-.28-1-1.38-1.5s-2.08-.21-2,0,.86.24,1.75.66S234.09,460.13,234.25,460Z" style="fill:#263238"></path><path d="M232,446.58c.18.09.69-.72,1.59-1.39s1.79-1,1.76-1.18-1.13-.18-2.18.63S231.77,446.53,232,446.58Z" style="fill:#263238"></path><path d="M199.49,307.52a17.16,17.16,0,0,1-.21,4.54c-.85,4.62-.07,12.11-4,17.83-6,8.75-16.23,19.42-16.23,19.42l-20,48.78-17.75,63.67-24.4-3.61,12.63-77.83,20.27-73.16Z" style="fill:#263238"></path><path d="M247.36,432.94l-43.31-55.37L195.43,326l-33.34,15.33L172.74,387a29.15,29.15,0,0,0,8.49,14.7l47.32,49.43Z" style="fill:#263238"></path><path d="M164.71,384.23a.88.88,0,0,0,.12-.21l.31-.63c.26-.56.66-1.37,1.12-2.44,1-2.13,2.2-5.28,3.6-9.21s2.91-8.67,4.94-13.78,4.78-10.62,9.3-15.1c2.2-2.3,4.44-4.46,6.45-6.7.51-.56,1-1.14,1.44-1.72s.86-1.2,1.29-1.79.79-1.2,1.18-1.8L195,330l.5-.91a30.1,30.1,0,0,0,3-7.28,24.69,24.69,0,0,0,.7-6.81c0-1-.16-2-.25-3s-.29-1.81-.5-2.62-.37-1.56-.59-2.24-.38-1.3-.58-1.85c-.37-1.11-.69-2-.93-2.53l-.26-.65a.93.93,0,0,0-.1-.21.7.7,0,0,0,.06.23c.06.17.13.39.22.66.21.58.51,1.44.85,2.55.18.55.36,1.18.54,1.86s.37,1.43.55,2.24.3,1.68.46,2.6.22,1.91.22,3a24.41,24.41,0,0,1-.74,6.71,30,30,0,0,1-3,7.17l-.5.9-.57.89c-.38.58-.74,1.2-1.18,1.77l-1.27,1.77c-.45.57-.93,1.14-1.43,1.69-2,2.22-4.24,4.38-6.44,6.69-4.58,4.53-7.36,10.13-9.36,15.25s-3.48,9.9-4.86,13.83-2.57,7.09-3.46,9.24c-.44,1.09-.82,1.91-1.05,2.48l-.27.64A2,2,0,0,0,164.71,384.23Z" style="fill:#455a64"></path><path d="M90.11,297.17l31.27-20.07,5.53-38.76,12.43,16.23-1,29.45a9,9,0,0,1-5.2,7.82L96,308.94Z" style="fill:#ffbf9d"></path><path d="M85.46,314.79c-.27.2-3.32,2.67-4.66,2.42A2.72,2.72,0,0,1,79,315.45a4.46,4.46,0,0,1-2.82-.71,4.78,4.78,0,0,1-1.34-2.62l-1.15-.64c-1.67-.93-1.61-2.16-1.61-2.16a4.67,4.67,0,0,0-.33-2.85c-.68-1.26,2-4.65,3.23-6.4s2.81-4.11,6.15-3.73c4.48.51,9.21.55,9.21.55l6.44-5.05,8.89,14.3-7.8,2.79s-.69,1.43-4.34,3.52A20.78,20.78,0,0,1,85.46,314.79Z" style="fill:#e0e0e0"></path><path d="M82.17,311.3a20.59,20.59,0,0,0-5.53,5.1,95.54,95.54,0,0,0-16.23,29.1c-2.14,6.21-3.54,13.44-.1,19,2.65,4.3,7.54,6.59,12.16,8.61,5.8,2.53,11.7,5,18,5.92s12.55-.77,18.09-3.8c17.36-9.5,8-32.26,8-32.26a85.37,85.37,0,0,0-20.23-27.85c-2.31-2.11-5-4.17-8-4.82l-4.61-9.63s-5.53-.35-5.79-.35-2.79,5.35-2.79,5.35Z" style="fill:#263238"></path><path d="M74.2,309.75a18.66,18.66,0,0,0,3.93-1.94c.57-.37,1.13-.78,1.73-1.1a4.35,4.35,0,0,1,2-.56,2.38,2.38,0,0,1,1.82.77,1.66,1.66,0,0,1,.19,1.91,1.54,1.54,0,0,1,1.74.92,2.42,2.42,0,0,1-.19,2.06,5.84,5.84,0,0,1-1.42,1.6,13.26,13.26,0,0,1-2.6,1.8,4.13,4.13,0,0,1-2.64.57,2,2,0,0,1-1.66-1.89,2.92,2.92,0,0,1-2-.77" style="fill:#e0e0e0"></path><path d="M81.4,304.79a2.07,2.07,0,0,0-.31-2.31,2.75,2.75,0,0,0-2.73-.25,19.59,19.59,0,0,0-5.85,3.52L72.06,307a5.11,5.11,0,0,0,.49,1.44,1.71,1.71,0,0,0,1.18.9,2.61,2.61,0,0,0,1.4-.33,21,21,0,0,0,4-2A7.79,7.79,0,0,0,81.4,304.79Z" style="fill:#e0e0e0"></path><path d="M77,314a10.89,10.89,0,0,1,1.73-1.54c1.12-.91,2.67-2.13,4.4-3.46.22-.16.44-.32.65-.49a1.21,1.21,0,0,1,.2-.14.7.7,0,0,1,.31,0,.9.9,0,0,1,.48.19,3.33,3.33,0,0,1,.93,1.28,2,2,0,0,1,.12,1.45,3.54,3.54,0,0,1-.55,1.1,6.69,6.69,0,0,1-1.21,1.23c-.32.24-.52.35-.54.32s.68-.59,1.46-1.75a2.14,2.14,0,0,0,.32-2.15,3.18,3.18,0,0,0-.8-1.09.47.47,0,0,0-.24-.1c-.08,0,0,0-.19.1l-.64.49c-1.74,1.33-3.32,2.51-4.49,3.34A11.55,11.55,0,0,1,77,314Z" style="fill:#263238"></path><path d="M73.16,310.3a7.7,7.7,0,0,1,1.62-1.08c1-.62,2.47-1.45,4.09-2.35l0,0,.17-.13a5.27,5.27,0,0,1,2.54-1.08,2.28,2.28,0,0,1,2.08.9,2.84,2.84,0,0,1,.51,1.44c0,.36,0,.55-.06.55a2.39,2.39,0,0,1-.13-.52,3,3,0,0,0-.59-1.26,2,2,0,0,0-1.77-.66,5.17,5.17,0,0,0-2.29,1l-.15.11,0,0h0c-1.62.89-3.09,1.67-4.17,2.21A7.37,7.37,0,0,1,73.16,310.3Z" style="fill:#263238"></path><path d="M70.65,307.28a16.53,16.53,0,0,1,2.78-.9l-.07,0c1.19-1,2.82-2.33,4.63-3.77l1.17-.92.08-.07.1,0a4.28,4.28,0,0,1,1.52.52,2.22,2.22,0,0,1,1,1.13,1.62,1.62,0,0,1-.09,1.37,3.7,3.7,0,0,1-.7.9,6.32,6.32,0,0,1-1.27.95,1.46,1.46,0,0,1-.52.23c0-.06.67-.46,1.56-1.4.41-.45,1-1.16.63-1.9a2.77,2.77,0,0,0-2.2-1.33l.18,0-1.17.93c-1.8,1.44-3.46,2.73-4.71,3.67l0,0h0A17.86,17.86,0,0,1,70.65,307.28Z" style="fill:#263238"></path><path d="M75.49,302.11,61.8,291.31a6.06,6.06,0,0,1-1.86-2,2.1,2.1,0,0,1,.36-2.51,2.94,2.94,0,0,1,2.49-.23,30.63,30.63,0,0,1,8.28,3.09c-.92-2.05-1.85-4.09-2.77-6.13-.38-.85-.74-1.93-.13-2.63s1.78-.49,2.64-.1a11.88,11.88,0,0,1,6.74,9.3A43.9,43.9,0,0,1,80.65,278c.45-1.1,1.08-2.3,2.22-2.62a2.8,2.8,0,0,1,3,1.45,7.21,7.21,0,0,1,.74,3.47,41.39,41.39,0,0,1-5,20.87" style="fill:#263238"></path><path d="M91.49,297.08s-11-1-11.29-.92-7.45,4.51-8.4,6.37-2,4.28-2,4.28,1.15,1.84,3.83-.14,5.31-4.23,5.31-4.23l3.1.91s3.92,6,10.09,3.57" style="fill:#e0e0e0"></path><path d="M92.13,306.92a3.83,3.83,0,0,1-.77.31,4.51,4.51,0,0,1-1,.25,7.66,7.66,0,0,1-1.36.13,8,8,0,0,1-3.57-.95,11,11,0,0,1-3.58-3.2l.1.08-3.1-.9.19,0c-1.22,1-2.54,2.13-3.95,3.22a17.62,17.62,0,0,1-2.25,1.59,3.63,3.63,0,0,1-1.43.4,2.15,2.15,0,0,1-1.47-.49,2.22,2.22,0,0,1-.36-.39l-.07-.1,0-.11,1.09-2.33.54-1.14a6.29,6.29,0,0,1,.58-1.12,10.12,10.12,0,0,1,1.76-1.71c.61-.51,1.23-1,1.84-1.4,1.22-.86,2.41-1.64,3.55-2.34l.85-.51.22-.12.14-.06h.18l.48.12,1.71.49c2.16.65,3.9,1.21,5.1,1.6l1.37.46a2.39,2.39,0,0,1,.47.19,2,2,0,0,1-.5-.1l-1.4-.39-5.13-1.45-1.71-.47-.43-.1h0s0,.05,0-.09c0,.12,0,.09,0,.1h-.06l-.19.12-.83.5c-1.12.71-2.3,1.5-3.51,2.37-.6.44-1.21.89-1.81,1.39a10.32,10.32,0,0,0-1.67,1.63,6.68,6.68,0,0,0-.54,1.07c-.18.37-.35.75-.53,1.13-.36.76-.72,1.53-1.08,2.32l0-.21a1.75,1.75,0,0,0,.27.28,2.16,2.16,0,0,0,2.4,0,17.29,17.29,0,0,0,2.19-1.54c1.41-1.08,2.73-2.16,4-3.18l.09-.08.11,0,3.09.93.07,0,0,.06a10.89,10.89,0,0,0,3.41,3.14,7.88,7.88,0,0,0,3.42,1A11.66,11.66,0,0,0,92.13,306.92Z" style="fill:#263238"></path><path d="M155.05,210l-8.35-40.75c-1.74-10.21-9.14-17.7-19.29-15.67l-.93.24A18.52,18.52,0,0,0,112.93,175c1.56,8.83,3.4,18.58,4.67,23.21,2.63,9.58,12.64,8.56,12.64,8.56s1.34,5.89,2,8.74l-.83,7.15,7.55-3.68Z" style="fill:#ffbf9d"></path><path d="M130.24,206.76a24,24,0,0,0,11.55-7s-1.13,8-10.95,9.65Z" style="fill:#ff9a6c"></path><path d="M119.61,182.39a1.42,1.42,0,0,0,1.69,1,1.37,1.37,0,0,0,1.09-1.61,1.42,1.42,0,0,0-1.68-1A1.37,1.37,0,0,0,119.61,182.39Z" style="fill:#263238"></path><path d="M116.08,178.7c.22.13,1.06-.91,2.53-1.29s2.76.07,2.87-.15-.2-.38-.76-.6a3.85,3.85,0,0,0-2.35-.1,3.65,3.65,0,0,0-2,1.25C116,178.27,116,178.64,116.08,178.7Z" style="fill:#263238"></path><path d="M134.37,178.76a1.42,1.42,0,0,0,1.69,1,1.35,1.35,0,0,0,1.09-1.6,1.41,1.41,0,0,0-1.68-1A1.36,1.36,0,0,0,134.37,178.76Z" style="fill:#263238"></path><path d="M130.65,175.26c.22.13,1.06-.91,2.53-1.29s2.76.07,2.87-.15-.2-.38-.76-.6a3.85,3.85,0,0,0-2.35-.1,3.65,3.65,0,0,0-2,1.25C130.62,174.83,130.55,175.2,130.65,175.26Z" style="fill:#263238"></path><path d="M128.32,188a10.27,10.27,0,0,0-2.52.19c-.38.06-.76.08-.89-.16a2,2,0,0,1,0-1.18c.11-1,.24-2.06.36-3.17.48-4.49.73-8.15.55-8.16s-.72,3.61-1.2,8.1c-.11,1.11-.22,2.16-.32,3.17a2.25,2.25,0,0,0,.19,1.53,1,1,0,0,0,.77.39,2.54,2.54,0,0,0,.66-.08A9.93,9.93,0,0,0,128.32,188Z" style="fill:#263238"></path><path d="M129,170.76c.3.32,1.63-.45,3.37-.94s3.26-.6,3.33-1c0-.2-.35-.47-1-.61a6,6,0,0,0-5.11,1.51C129,170.17,128.83,170.6,129,170.76Z" style="fill:#263238"></path><path d="M114.88,174.37c.39.26,1.51-.38,3-.76s2.73-.43,2.93-.85c.08-.2-.19-.49-.81-.68a4.8,4.8,0,0,0-2.55,0,4.71,4.71,0,0,0-2.2,1.26C114.78,173.85,114.7,174.24,114.88,174.37Z" style="fill:#263238"></path><path d="M147.78,176.6c.14-.11,6.09-3.68,7.6,3s-5.46,6.77-5.51,6.58S147.78,176.6,147.78,176.6Z" style="fill:#ffbf9d"></path><path d="M151.32,183.16s.13.06.35.1a1.16,1.16,0,0,0,.87-.18,3,3,0,0,0,.74-2.86,4.08,4.08,0,0,0-.7-1.58,1.41,1.41,0,0,0-1.07-.69.61.61,0,0,0-.61.48c-.05.2,0,.32,0,.34s-.17-.08-.18-.36a.78.78,0,0,1,.17-.48.92.92,0,0,1,.6-.31,1.65,1.65,0,0,1,1.44.75,4.16,4.16,0,0,1,.82,1.76,3.08,3.08,0,0,1-1,3.24,1.28,1.28,0,0,1-1.1.07C151.37,183.32,151.3,183.18,151.32,183.16Z" style="fill:#ff9a6c"></path><path d="M133.2,187.89c-.23,0,.09,1.57-1,2.93s-2.73,1.54-2.7,1.75.43.22,1.12.1a3.89,3.89,0,0,0,2.27-1.38,3.39,3.39,0,0,0,.73-2.43C133.55,188.21,133.3,187.86,133.2,187.89Z" style="fill:#263238"></path><path d="M97.62,169.17a1.64,1.64,0,0,1,.53-1.09,5,5,0,0,1,2.39-1,14.42,14.42,0,0,0,5.71-2.91,7.23,7.23,0,0,1-2.07-.85,4.26,4.26,0,0,1-2.15-3.86,1,1,0,0,1,.38-.75c.4-.23.87.11,1.25.37a3.67,3.67,0,0,0,3.69.66,6,6,0,0,0,2.35-1.33l.06-.11c.27-.43.52-.85.78-1.25h0c1.93-3.05,3.68-5.25,5.68-6.65a23.11,23.11,0,0,1,11.79-3.7c3.58.11,7.24,2.15,8.5,5.5,1.52-2,4.36-2.67,6.88-2.28l.05,0c2.78.32,4.85,2.7,6.21,5.14.08.13.15.27.22.4a10.31,10.31,0,0,0,4.22,2.58c.28.09.61.2.7.48a.83.83,0,0,1-.28.78,5,5,0,0,1-1.88,1.34,11.52,11.52,0,0,0,1.27,1.61c.4.42.88.93.74,1.5a1.09,1.09,0,0,1-1,.75,3.21,3.21,0,0,1-1.32-.26l1.33,1.85a6.08,6.08,0,0,1-2.83.46c0,2.57.65,7.19.4,9-1.75.43-2.22.34-3,.84-1.06.64-.16,2.57-1.78,2.33-.83-.11-2.66-2.73-3.09-3.44A38.68,38.68,0,0,1,138,159.64a12.46,12.46,0,0,0-4.38-1.84l.14.07c-2.92-.31-6.2-.54-8.48,1.32-1.76,1.45-2.46,3.79-3.57,5.78a14.26,14.26,0,0,1-9.09,7.33c.29,3,1.28,7.81,1.76,10.58L110.78,178v0c-.26-.28-.49-.56-.72-.85L110,177h0c-.36-.46-.71-.93-1.13-1.38l0,0a1.74,1.74,0,0,1-3-1.7,4,4,0,0,1,.63-1A2.76,2.76,0,0,1,104,174.2a2.16,2.16,0,0,1-2-1.75,1.83,1.83,0,0,1,.74-1.68,6.32,6.32,0,0,1-3.63,0C98.41,170.56,97.59,170.08,97.62,169.17Z" style="fill:#263238"></path><path d="M133.71,154a7.68,7.68,0,0,1,1.18.67,7.17,7.17,0,0,1,2.23,2.87,13.34,13.34,0,0,1,.81,2.41c.21.89.36,1.87.52,2.89a26.57,26.57,0,0,0,.65,3.19,11.08,11.08,0,0,0,.61,1.63,3.54,3.54,0,0,0,1.06,1.47,1.49,1.49,0,0,0,1.47.15,2.27,2.27,0,0,0,1.07-1,5.14,5.14,0,0,0,.37-2.68l-.2.07a8.16,8.16,0,0,0,1.65,1.76,2.92,2.92,0,0,0,2.12.59,1.87,1.87,0,0,0,1-.4,1.72,1.72,0,0,0,.53-1.73,1.25,1.25,0,0,0-.48-.68l-.08.11a6.41,6.41,0,0,0,2.44,1.09,5.48,5.48,0,0,0,.7.1.73.73,0,0,0,.24,0l-.24,0c-.15,0-.39-.06-.69-.14a6.61,6.61,0,0,1-2.37-1.12l-.08.11a1.29,1.29,0,0,1,.39,1.43,1.45,1.45,0,0,1-.47.73,1.77,1.77,0,0,1-.88.36,2.77,2.77,0,0,1-2-.58,8.23,8.23,0,0,1-1.59-1.72l-.21-.28v.35a5,5,0,0,1-.35,2.56,2,2,0,0,1-1,.87,1.27,1.27,0,0,1-1.25-.12,3.35,3.35,0,0,1-1-1.38,10.57,10.57,0,0,1-.6-1.59,27.56,27.56,0,0,1-.66-3.17c-.17-1-.32-2-.54-2.89a12.66,12.66,0,0,0-.86-2.44,7.06,7.06,0,0,0-2.32-2.88A3.94,3.94,0,0,0,133.71,154Z" style="fill:#455a64"></path><path d="M105.89,170.36l.09,0,.28.12c.13.05.28.11.48.17a5.68,5.68,0,0,0,.66.17,8.83,8.83,0,0,0,4.32-.2,11.34,11.34,0,0,0,5.35-3.51,19.49,19.49,0,0,0,3.7-6.95c.43-1.33.73-2.67,1.11-3.92a12.81,12.81,0,0,1,1.49-3.45,6.78,6.78,0,0,1,2.4-2.34,5.07,5.07,0,0,1,1.44-.51,5.6,5.6,0,0,1,1.41-.05,5.73,5.73,0,0,1,2.3.76,6.05,6.05,0,0,1,1.42,1.16,7,7,0,0,1,.83,1.34l0-.1-.12-.28a4.68,4.68,0,0,0-.61-1,6,6,0,0,0-1.43-1.23,5.88,5.88,0,0,0-2.35-.8,5.07,5.07,0,0,0-2.95.55,7,7,0,0,0-2.49,2.39,13.32,13.32,0,0,0-1.53,3.5c-.38,1.27-.68,2.6-1.11,3.92a19.71,19.71,0,0,1-3.64,6.88,11.25,11.25,0,0,1-5.24,3.49,9,9,0,0,1-4.26.27A12.35,12.35,0,0,1,105.89,170.36Z" style="fill:#455a64"></path><path d="M104,166.3s.14.07.4.16a7.27,7.27,0,0,0,1.15.29,10.79,10.79,0,0,0,1.75.16,10.68,10.68,0,0,0,4.22-.83,9.75,9.75,0,0,0,1.56-.81,7.83,7.83,0,0,0,1-.7,1.56,1.56,0,0,0,.31-.3s-.5.37-1.36.86a12.49,12.49,0,0,1-1.55.76,11.85,11.85,0,0,1-4.14.81,12.33,12.33,0,0,1-1.72-.11C104.63,166.45,104,166.26,104,166.3Z" style="fill:#455a64"></path><path d="M118.7,264.17c.51.35,14.9,2.38,14.9,2.38l-9.16-43.3a42.42,42.42,0,0,0-4.72,14.83C119,245.92,118.7,264.17,118.7,264.17Z" style="fill:#e0e0e0"></path><path d="M196.21,291.15c-.9-5-5.69-17-5.14-18.27L185,254.06l-.25-4.66-13-42.6-15.66-3.93h-2.42c-9.2,10.69-18.14,18.19-21.57,12.15l-2.87,2.79s-2.85,8.72-2.86,9c-.2,4.41-.52,4,.51,11.79.62,4.7,6.09,37.1,6.09,37.1s5.68,25.48,7.78,29.44c.34.66,1.67,14.29,1.67,14.29,18.4,4.21,38,3.34,58.48-1.75C200.89,317.66,197.11,296.13,196.21,291.15Z" style="fill:#e0e0e0"></path><g style="opacity:0.30000000000000004"><polygon points="161.96 236.29 189.53 264.72 185.54 254.41 161.96 236.29"></polygon></g><path d="M154.49,202.42a52.61,52.61,0,0,0-10.25,20.23c-1,4.47-4.25,27.85-4.25,27.85l-10.9-33.1s-7.55,7.24-7.55,9.82c0,0,9.33,35,9.55,36.41.67,4.34,6.08,34.22,6.37,35.6S140,323.09,140,323.09l8.6-.28,1.15-8,1.84,8c20.88-1.12,36.78-4.15,51.72-9.85-1.41-9.48-5.17-22.23-9.2-35.37l-9.85-49-13.56-22.7C166.42,204,159.62,202.78,154.49,202.42Z" style="fill:#005EFF"></path><g style="opacity:0.6000000000000001"><path d="M141.8,298.62l-11.09-51,7.52-2.51-1.75-5.31-7.74,2.29-5-18.87s-2.6,2.4-2.18,4c.35,1.3,3.23,12.15,4.2,15.79l-.13,0,1.57,5.79h0l10.24,50.41,1.21,9.9,61.8-9.23-2.53-9.24-30.07,4.26-12.43-53.43,18.13-3.38c.52,0-5.18-5.74-5.18-5.74l-14.76,3.19c-.63-3.79-1.66-11.94-.27-18.24,1.87-8.52,9.32-13.76,9.32-13.76a35.75,35.75,0,0,0-4.78-.8s-5.15,5.07-8.16,15.32a49.08,49.08,0,0,0-1.41,18.63l-6.51,1.41-.91,6.08,8-1.49,10.53,53.41" style="fill:#fff"></path></g><path d="M140,323.09a2.28,2.28,0,0,1-.08-.44c0-.32-.1-.74-.17-1.27-.14-1.16-.33-2.79-.58-4.84-.47-4.22-1.13-10.17-1.93-17.28v0c-1.38-6.77-3-14.73-4.74-23.22-1.31-6.46-2.55-12.6-3.68-18.2-.28-1.4-.55-2.76-.82-4.09s-.51-2.61-.85-3.84c-.61-2.46-1.19-4.75-1.71-6.84-1-4.16-1.86-7.54-2.45-9.93-.27-1.14-.48-2-.64-2.7l-.15-.71a1.12,1.12,0,0,1,0-.24.92.92,0,0,1,.09.23c.05.19.12.41.2.69.18.66.43,1.55.74,2.69.62,2.37,1.51,5.74,2.61,9.88.54,2.09,1.14,4.38,1.77,6.83.35,1.23.62,2.51.88,3.84s.55,2.69.84,4.08c1.14,5.6,2.4,11.74,3.71,18.2,1.72,8.5,3.32,16.46,4.69,23.24h0c.72,7.12,1.32,13.08,1.75,17.3.19,2.06.34,3.69.45,4.85,0,.53.07,1,.1,1.28A2.2,2.2,0,0,1,140,323.09Z" style="fill:#263238"></path><path d="M176.53,268.6a7.83,7.83,0,0,1-.9,1c-.6.62-1.5,1.5-2.61,2.56-2.24,2.14-5.39,5-9,8.08s-7,5.7-9.43,7.56c-1.24.92-2.25,1.66-3,2.16a6.8,6.8,0,0,1-1.13.72,7.06,7.06,0,0,1,1-.89l2.85-2.29c2.42-1.92,5.73-4.61,9.32-7.66s6.78-5.88,9.08-7.95l2.72-2.44A6,6,0,0,1,176.53,268.6Z" style="fill:#263238"></path><path d="M149.74,315.47a6.33,6.33,0,0,1-.15-1c-.08-.68-.18-1.59-.31-2.73-.24-2.42-.59-5.8-1-9.88v0c-.19-2.59-.72-5.6-1.21-8.78s-1.1-6.61-1.68-10.15c-1.52-8.93-2.89-17-3.89-22.92-.48-2.88-.87-5.24-1.15-6.95-.12-.78-.22-1.4-.29-1.89a3.27,3.27,0,0,1-.07-.67,2.82,2.82,0,0,1,.17.65l.39,1.88c.32,1.7.76,4,1.31,6.92,1.08,5.85,2.53,13.94,4,22.89.6,3.55,1.16,7,1.66,10.16.23,1.6.46,3.15.68,4.62.11.74.21,1.47.28,2.17l.12,1,.06,1.05v0c.34,4.09.62,7.47.82,9.9.08,1.14.15,2.05.2,2.74A4.21,4.21,0,0,1,149.74,315.47Z" style="fill:#263238"></path><path d="M128.91,217.65c.11.12-1.78,1.79-3.81,4.11s-3.34,4.46-3.47,4.39a14.43,14.43,0,0,1,3.08-4.73A17.6,17.6,0,0,1,128.91,217.65Z" style="fill:#263238"></path><path d="M220.68,258.59a43.44,43.44,0,0,0-10.31-17.78l-27.49-28.7a17.91,17.91,0,0,0-14.73-6c-2.84.24-6.65,2.12-8.32,4.45-4.08,5.69-2.82,12.37-2.38,14.4l9.21,9,33.86,28.76,14.63,41.58,13.66-2.46Z" style="fill:#ffbf9d"></path><path d="M157.45,225a17.34,17.34,0,0,1,2.38-14.4c1.67-2.33,5.48-4.21,8.32-4.45a17.91,17.91,0,0,1,14.73,6l20.42,19.94-17.88,20.89S159.74,231.76,157.45,225Z" style="fill:#e0e0e0"></path><path d="M217.28,311.49s3.5,2.26,4.22,5.37a3.92,3.92,0,0,1-1.58,4.41s1,4.08,3.7,4.65a3.17,3.17,0,0,0,3.7-1.68s.79.28,1.14.36c3,.63,3.31-4,3.31-4,2.06,0,2.78-2.91,2.78-2.91a26.72,26.72,0,0,0-.41-5.19c-.48-2-4.85-9.27-4.85-9.27s-.78-11.74-.89-12.6L210.19,294s3.82,10,3.93,10.91c0,0-1.19,2.65-1.42,3.43-.51,1.73-1.35,5,.16,8.18,0,0,.74,1.07,1.47,0S217.28,311.49,217.28,311.49Z" style="fill:#e0e0e0"></path><path d="M226.83,320.87c.12-.08.72.7.79,1.86s-.41,2-.54,1.94,0-.89,0-1.9S226.68,321,226.83,320.87Z" style="fill:#263238"></path><path d="M231.36,318c.15,0,.35.61.43,1.42s0,1.47-.14,1.48-.35-.64-.43-1.42S231.2,318,231.36,318Z" style="fill:#263238"></path><circle cx="217.85" cy="317.95" r="6.02" style="fill:#263238"></circle></g><g id="freepik--speech-bubble--inject-4"><path d="M97.45,197.16l-5.4,5.21a25.22,25.22,0,1,1-.59-9h0Z" style="fill:#fff"></path><path d="M97.45,197.16a3.31,3.31,0,0,0-.36-.26L96,196.16l-4.44-2.9a.11.11,0,0,0-.15,0s0,0,0,.05v0l.2,0a25.2,25.2,0,0,0-5.69-10.85,26.1,26.1,0,0,0-2.83-2.7c-.52-.44-1.11-.81-1.67-1.22-.29-.2-.57-.43-.88-.61l-.94-.54a25.2,25.2,0,0,0-18.85-2.53A25.22,25.22,0,0,0,43.81,189.2a25.57,25.57,0,0,0-.92,18.17,25.38,25.38,0,0,0,2.58,5.5,25.06,25.06,0,0,0,8.22,8.2,25.37,25.37,0,0,0,34.19-7.18,25.13,25.13,0,0,0,4.28-11.5l0,.06c1.74-1.71,3.08-3,4-3.95l1-1a4.31,4.31,0,0,0,.32-.33s-.14.11-.38.34l-1.06,1-4,3.81a.11.11,0,0,0,0,.06,25,25,0,0,1-27.86,21.83A24.92,24.92,0,0,1,54,220.65a25.27,25.27,0,0,1-10.58-13.44,25.87,25.87,0,0,1-1.15-6,24.23,24.23,0,0,1,2.05-11.84,25,25,0,0,1,6.91-9.17,25.25,25.25,0,0,1,9.63-4.9,24.9,24.9,0,0,1,18.54,2.42l.93.53a10.06,10.06,0,0,1,.86.59c.56.4,1.14.77,1.66,1.19a24.61,24.61,0,0,1,2.81,2.65,25.32,25.32,0,0,1,5.74,10.67.1.1,0,0,0,.13.07.11.11,0,0,0,.08-.1h0l-.16.09,4.45,2.76,1.17.71Z" style="fill:#263238"></path><polygon points="57.79 200.19 60.56 197.41 65.92 202.17 76.44 192.05 79.02 194.83 65.53 207.53 57.79 200.19" style="fill:#005EFF"></polygon></g></svg>
