<svg xmlns="http://www.w3.org/2000/svg" xmlns:xlink="http://www.w3.org/1999/xlink" viewBox="0 0 500 500"><defs><clipPath id="freepik--clip-path--inject-47"><polygon points="232.17 119.31 244.51 121.87 248.72 126.23 254.2 127.07 255.94 132.27 254.66 135.79 250.93 137.51 241.77 136.01 241.52 134.89 245.85 131.87 242.86 126.35 234.66 125.23 230.3 121.49 232.17 119.31" style="fill:none;stroke:#263238;stroke-linecap:round;stroke-linejoin:round"></polygon></clipPath><clipPath id="freepik--clip-path-2--inject-47"><path d="M331.6,233.16l-9.79-1.66L310,230l-8.69,1.93-8.51.12-8.53,4-5,1.4-3.08.68-5.14,4.67L266,246.26l-8.63-3.08.22-8.29-5.21-.9-5.6,1.24-1.4-2.34-.56-5.17-2.59-2.37-3.8,1.44-.5,3.05-4.7,1.34-5.33-4.11-3.18-6.36,2.47-8.78,8.25-1.25,2.68,1.47,3.36-.75,3.65-3.46,3.89.31,7,7.57,1.9-.71-2-6.33-2.43-3-.62-5.45,9.37-6.79-.9-10.68,3.68-4.65,2.21-7.25,2.68-1.19,5.52-5.63-.22-2.31-4.43,1.28-1.33-2.06-3.09.69-4.52,2.18,1.44-4.15,9.19-5,1.68-3,5.3,5.29,3.08,2,3.68-2-2.5-3.27-6.82-2.9-8.41-6.07-8.07-3.21-7,.37-4.12-2.62-4.73-.12-.31,1.25,1.24,8.25,1.75,2.56-.53,9.53-6.61-3.24,0-4.12L233.54,152l-3.21-2.52-.15-7.33,6.82-7.69-.93-6.85-3,1-2.52-2.09-1.77-4-2,.15-.12,4.74-3,1.24-3.58-9.5-2.56-.9-4.3-.81-4,3.24,6.8,4.08,2.18,4.51-11.78-5.32-8.69-6-2.24-7.44-7.79-.63-4.8,4.89a43.61,43.61,0,0,1-3.71,3.18,48.05,48.05,0,0,1-6.48,2.62l-.06,5-6.39,1.71,1.25,3,10.75-.62,6.63,4.71,2.18,9.81-1.15,9.38,2.61,9.12L183.72,178l2.87,20.84,5.14,11.21,5.63,8.17,4.33-.38-2.4-4.17-3-2.87L193.53,205l2.4-1.12,6.17,9.23,4.8,8.35,1.61,7.28,6.76,5.27,11.09,4.89,15.45.69,5.42,3.21,4.36,3.74,5.74,2,6.54.31,6.1-1.65s.35,2.87.66,4.27-2.56,7-2.56,7l-1.84,6.29,3.62,5.68,6.73,1.15,10.68,7,4.3.81.93,4.21.93,1.85a120.66,120.66,0,0,0,52.66-40.75l-.31-2.06,4.52-15.42-4.21-1.71Z" style="fill:none;stroke:#263238;stroke-linecap:round;stroke-linejoin:round;clip-path:url(#freepik--clip-path--inject-47)"></path></clipPath><clipPath id="freepik--clip-path-3--inject-47"><path d="M336.16,115.93l-4.27-4.64L326.6,106l-3-8.16,5.23-.28-.34-2.87-3.71.53,2.78-2.08,2.92-2.71-.62-2.81-4.36-3.74L323.45,78a121.05,121.05,0,0,0-146.1-2.8l7.48,3.14L182,84.26,177,86.56l1.12,7.7L176,95.6l-2.12,3.7,1.4,5,4.89-.5-.9,5.2,4.77-1.06,5.82-12.18-.15-4.67,7.72-2.3,1.22-3.8,7.94-2.65-.21-5,5.82-1.59s3.71-3.18,4.55-3.37a35.93,35.93,0,0,1,5.08.35l4.95,2.43,5.89-1.31,4.36-4.2,6.57-.88a7.13,7.13,0,0,0,3.34.44c1.4-.31,5.17-3.21,5.17-3.21l9.25,3.24,3.93,1.78.93,4.21,4.33-.38.84-2.83,4,.87.22,2.31-7.92,4.11,6.14,5.11,11.34,3.36,5.45,4.68,6.29-.81.78-3.12,2.12-1.06-8.53-4L286.7,84,290.09,82l-4.42-4,4.7-1.34,6.92,2,2.89,6.41,3.9,3,4.33,7.57,7.16,3.12,2.06,9.25,7.38,2.78.4,3.14,0,3.84,2.81,4.67,1.12,2.4,4.95-.22,1.18-5.26Z" style="fill:none;stroke:#263238;stroke-linecap:round;stroke-linejoin:round;clip-path:url(#freepik--clip-path-2--inject-47)"></path></clipPath><clipPath id="freepik--clip-path-4--inject-47"><path d="M333.53,86.87l.36,1.61-.4,4.8L335.2,97l3.33.44,1.18,5.32-3.67-.65,2.52,15.33-2,6.91,4,7.36,4.39,2.55,3.37,15.14,6.26,11,5.91,8.1,6.83.25,1-6.11.76-.92a121.41,121.41,0,0,0-35.53-74.84Z" style="fill:none;stroke:#263238;stroke-linecap:round;stroke-linejoin:round;clip-path:url(#freepik--clip-path-3--inject-47)"></path></clipPath><clipPath id="freepik--clip-path-5--inject-47"><polygon points="268.38 99.5 248.06 95.48 240 97.57 239.22 103.33 235.04 100.43 229.19 103.2 230.68 112.58 236.54 115.11 239 108.97 244.14 112.24 254.51 117.88 258 125.64 267.34 133.27 278.68 128.69 277.47 124.55 273.89 120.34 270.83 109.25 272.58 103.86 268.38 99.5" style="fill:none;stroke:#263238;stroke-linecap:round;stroke-linejoin:round;clip-path:url(#freepik--clip-path-4--inject-47)"></polygon></clipPath><clipPath id="freepik--clip-path-6--inject-47"><polygon points="284.89 102.31 280.43 102.12 277.47 106.02 281.24 113.71 284.88 112.9 284.89 102.31" style="fill:none;stroke:#263238;stroke-linecap:round;stroke-linejoin:round;clip-path:url(#freepik--clip-path-5--inject-47)"></polygon></clipPath><clipPath id="freepik--clip-path-7--inject-47"><polygon points="312.14 101.85 301.49 98.92 298.78 95.99 296.72 97.33 299.93 102.5 303.23 109.42 307.81 110.16 308.4 108.86 304.95 105.21 312.86 106.39 312.14 101.85" style="fill:none;stroke:#263238;stroke-linecap:round;stroke-linejoin:round;clip-path:url(#freepik--clip-path-6--inject-47)"></polygon></clipPath></defs><g id="freepik--background-simple--inject-47"><path d="M386,129.18a202.44,202.44,0,0,0-10.49-18.34C331,42.89,211.63,5.9,152.5,76.14c-14.09,16.73-19,37-28.49,56.16C102.44,176,62.13,202.07,36.85,242.5c-19.59,31.34-17,71.51-6.05,105.39C42.68,384.7,63.58,410.41,97,430c37.48,21.91,77.57,15.83,118.08,8.2,18.22-3.43,37-6.93,55.63-5.62,23.33,1.64,46.36,8.24,69.5,11.45,24.06,3.34,49,4.13,72.21-3.14,74.25-23.29,91.83-132.42,61.3-194.94-10.8-22.13-29.12-39.2-46.13-56.52C409.25,170.69,398,152.39,386,129.18Z" style="fill:#407BFF"></path><path d="M386,129.18a202.44,202.44,0,0,0-10.49-18.34C331,42.89,211.63,5.9,152.5,76.14c-14.09,16.73-19,37-28.49,56.16C102.44,176,62.13,202.07,36.85,242.5c-19.59,31.34-17,71.51-6.05,105.39C42.68,384.7,63.58,410.41,97,430c37.48,21.91,77.57,15.83,118.08,8.2,18.22-3.43,37-6.93,55.63-5.62,23.33,1.64,46.36,8.24,69.5,11.45,24.06,3.34,49,4.13,72.21-3.14,74.25-23.29,91.83-132.42,61.3-194.94-10.8-22.13-29.12-39.2-46.13-56.52C409.25,170.69,398,152.39,386,129.18Z" style="fill:#fff;opacity:0.8"></path></g><g id="freepik--Plants--inject-47"><path d="M467.6,257.76c-3.94-.66-11.33-5.74-11.34-5.74s4.83-3.86,5.16-4.06c3.9-2.37,12.82-4.65,16.68-1.31a6.06,6.06,0,0,1-.08,9C475.39,258.12,471,258.33,467.6,257.76Z" style="fill:#407BFF"></path><path d="M450.8,277.8c-3.48-1.62-8.91-7.94-9.34-8.44a108.44,108.44,0,0,1-11.4,8.58c-2.32,1.53-4.7,3-7.1,4.44,1.19-.5,2.27-.93,2.42-1,4.39-1.25,13.6-1.09,16.43,3.15a6,6,0,0,1-2.45,8.65c-3.18,1.69-7.52.73-10.61-.71s-7.86-6.75-9.1-8.17L416.87,286c-4.46,2.59-8.92,5.16-13.23,7.81-1.51.94-3,1.91-4.44,2.88,1.07-.44,2-.8,2.11-.84,4.38-1.25,13.59-1.09,16.43,3.15a6,6,0,0,1-2.46,8.65c-3.18,1.69-7.51.73-10.6-.71s-7.41-6.23-8.88-7.91c-1.47,1-2.94,2.08-4.32,3.15-.92.75-1.86,1.41-2.75,2.22l-2.65,2.33c-1.63,1.54-3.33,3.12-4.88,4.66-1.09,1.06-2.11,2.1-3.14,3.13,1.5-.94,4.47-2.74,4.74-2.86,4.14-1.9,13.27-3.14,16.72.62a6.05,6.05,0,0,1-1.12,8.93c-2.89,2.15-7.32,1.85-10.59.9-3.6-1-9.7-6.23-10.45-6.88-1.7,1.73-3.33,3.42-4.85,5q-2,2.17-3.84,4.18L366,322.66c1.35-1.44,2.79-2.94,4.34-4.52,1.71-1.76,3.58-3.6,5.52-5.48a63.69,63.69,0,0,1-4.05-6.57c-3.74.94-11.16.05-12.11-.08-.47,2.38-.89,4.69-1.26,6.88-.26,1.51-.49,3-.71,4.36l-2.84-1.86c.18-1,.37-2,.57-3,.46-2.41,1-5,1.58-7.61-.91-.36-8.36-3.33-11-6-2.36-2.45-4.7-6.22-4.15-9.79a6,6,0,0,1,7.36-5.16c4.94,1.29,8.12,9.93,8.37,14.48,0,.27-.14,3.21-.27,5.05.24-1.07.46-2.12.73-3.22.5-2.19,1.07-4.35,1.68-6.68.33-1.12.66-2.25,1-3.39s.78-2.29,1.17-3.45c1-2.68,2.07-5.34,3.24-8-1.91-.44-8.68-2.13-11.4-4.2s-5.6-5.44-5.59-9a6,6,0,0,1,6.5-6.22c5.07.52,9.52,8.59,10.47,13,.06.28.37,3.55.51,5.36.72-1.59,1.43-3.19,2.21-4.77,2.24-4.58,4.66-9.15,7-13.72.74-1.4,1.45-2.8,2.17-4.2-.68-.15-8.77-2-11.82-4.3-2.71-2.06-5.6-5.44-5.59-9a6,6,0,0,1,6.49-6.22c5.08.52,9.53,8.59,10.47,13.05.08.33.53,5.05.58,6.25,1.58-3.08,3.13-6.17,4.54-9.28a105.64,105.64,0,0,0,4.91-12.9c-.31-.07-8.76-1.94-11.89-4.31-2.71-2.06-5.6-5.44-5.59-9a6.06,6.06,0,0,1,6.5-6.22c5.08.53,9.52,8.59,10.47,13,.07.35.55,5.43.57,6.35.08-.25.19-.51.26-.76a77.85,77.85,0,0,0,2.52-13.61c.27-2.53.39-5,.45-7.35-1.61-.19-9-1.13-12-2.95s-6.16-4.79-6.54-8.38a6,6,0,0,1,5.77-6.89c5.1,0,10.41,7.49,11.84,11.82.07.23.6,2.72,1,4.53,0-1.08,0-2.18,0-3.21,0-3.86-.29-7.4-.55-10.52-.16-1.78-.34-3.39-.53-4.89-1.48-1-7.41-5.14-9.24-8.11s-3.26-7.09-1.95-10.45A6,6,0,0,1,386,168c4.55,2.32,5.79,11.45,5.06,15.95-.06.39-1.74,6.36-1.82,6.31l-.09-.06c.21,1.43.41,3,.6,4.67.33,3.13.67,6.67.78,10.54a109.11,109.11,0,0,1-.23,12.53,79.42,79.42,0,0,1-2.25,13.83.75.75,0,0,0,0,.16c.79-1.27,3.14-4.74,3.35-5,3-3.46,10.73-8.42,15.44-6.44a6,6,0,0,1,2.72,8.57c-1.72,3.17-5.86,4.75-9.23,5.26-3.8.57-11.81-1.71-12.45-1.89a107.12,107.12,0,0,1-4.78,13.45c-1.09,2.55-2.26,5.09-3.47,7.62.72-1.08,1.38-2,1.49-2.15,3-3.47,10.73-8.41,15.44-6.44a6,6,0,0,1,2.72,8.57c-1.72,3.17-5.87,4.75-9.24,5.26s-10.28-1.29-12.09-1.79c-.48,1-.94,1.93-1.42,2.89-2.29,4.63-4.6,9.23-6.72,13.82-.75,1.61-1.43,3.23-2.12,4.85.65-.95,1.2-1.75,1.29-1.86,3-3.47,10.74-8.41,15.45-6.44a6,6,0,0,1,2.72,8.57c-1.72,3.17-5.87,4.75-9.24,5.26s-9.61-1.12-11.77-1.71c-.65,1.68-1.31,3.36-1.86,5-.36,1.14-.77,2.21-1.07,3.38s-.62,2.28-.93,3.4c-.51,2.18-1,4.43-1.5,6.58-.32,1.49-.6,2.91-.88,4.34.72-1.61,2.22-4.75,2.37-5a23.5,23.5,0,0,1,8.88-7.83,6.93,6.93,0,0,1,.8-1.07,6,6,0,0,1,9-.24c3.41,3.8,1.29,12.76-1,16.7-.13.23-1.88,2.59-3,4.05.79-.76,1.56-1.51,2.38-2.28,1.63-1.54,3.3-3,5.09-4.65l2.7-2.27c.89-.77,1.93-1.48,2.89-2.23,2.28-1.7,4.67-3.31,7.11-4.88-1.35-1.43-6.06-6.57-7.19-9.8s-1.67-7.62.33-10.62a6,6,0,0,1,8.84-1.61c3.95,3.24,3.21,12.42,1.54,16.66-.11.27-1.65,3.17-2.53,4.76,1.48-.94,2.95-1.87,4.47-2.77,4.4-2.58,8.94-5.06,13.45-7.55,1.38-.76,2.75-1.54,4.12-2.31-.48-.5-6.22-6.49-7.49-10.11-1.12-3.21-1.66-7.62.33-10.62a6,6,0,0,1,8.85-1.61c3.95,3.24,3.21,12.42,1.53,16.66-.12.32-2.35,4.51-3,5.54,3-1.7,6-3.42,8.91-5.24a108.07,108.07,0,0,0,11.21-8c-.22-.24-6.24-6.46-7.53-10.17-1.13-3.21-1.67-7.62.32-10.62a6,6,0,0,1,8.85-1.61c3.95,3.24,3.21,12.42,1.53,16.66-.13.34-2.53,4.84-3,5.62.21-.17.44-.33.64-.5a77.19,77.19,0,0,0,9.6-10c1.63-2,3.07-3.93,4.44-5.88-1.24-1.05-6.85-5.88-8.39-9.09s-2.49-7.39-.84-10.59A6,6,0,0,1,454.7,230c4.28,2.79,4.55,12,3.35,16.39-.06.24-1,2.6-1.7,4.31.6-.89,1.24-1.8,1.8-2.66,2.11-3.24,3.84-6.33,5.35-9.08.85-1.57,1.58-3,2.25-4.36-.68-1.66-3.34-8.38-3.23-11.87s1.19-7.71,4.14-9.79a6,6,0,0,1,8.83,1.69c2.51,4.45-1.49,12.74-4.58,16.1-.26.28-5,4.34-5,4.25l0-.1c-.62,1.31-1.3,2.72-2.08,4.23-1.45,2.79-3.12,5.93-5.16,9.23a107.23,107.23,0,0,1-7.11,10.31,78.92,78.92,0,0,1-9.5,10.3l-.13.1c1.36-.62,5.23-2.21,5.54-2.3,4.39-1.25,13.59-1.1,16.43,3.14a6.05,6.05,0,0,1-2.45,8.66C458.22,280.2,453.89,279.23,450.8,277.8Z" style="fill:#407BFF"></path><path d="M390.65,209.79c-.09,0,1.9-5.87,2.07-6.23,1.94-4.12,8.12-10.95,13.19-10.29a6,6,0,0,1,4.89,7.55c-.83,3.51-4.41,6.13-7.52,7.51C399.62,210,390.66,209.79,390.65,209.79Z" style="fill:#407BFF"></path><path d="M429.54,383.06c-1.05-1.63-1.66-5.94-1.66-5.94s3,.46,3.14.51c2.13.62,5.87,3.06,5.94,5.54a2.94,2.94,0,0,1-3.24,2.92C432,386,430.44,384.44,429.54,383.06Z" style="fill:#407BFF"></path><path d="M416.87,383.62c-.56-1.78-.08-5.79,0-6.11a52.12,52.12,0,0,1-6.81-1.27c-1.3-.33-2.61-.7-3.91-1.08.56.26,1.07.5,1.14.55,1.88,1.15,4.85,4.5,4.26,6.9a2.93,2.93,0,0,1-3.9,2c-1.65-.58-2.72-2.45-3.22-4s-.17-5-.06-5.94l-1.5-.45c-2.39-.75-4.77-1.51-7.13-2.17-.83-.24-1.66-.44-2.49-.65.51.24.93.44,1,.48,1.89,1.16,4.85,4.5,4.26,6.91a2.92,2.92,0,0,1-3.89,1.95c-1.65-.58-2.73-2.45-3.23-4s-.19-4.69-.08-5.77c-.85-.19-1.71-.37-2.54-.51-.57-.09-1.12-.21-1.7-.26l-1.7-.18c-1.08-.08-2.2-.17-3.26-.22l-2.16-.09c.83.22,2.45.7,2.58.75,2,.86,5.47,3.72,5.26,6.19a2.93,2.93,0,0,1-3.56,2.52c-1.72-.33-3.06-2-3.79-3.49-.81-1.63-.95-5.51-1-6-1.17,0-2.31-.07-3.39-.08h-2.75L373,368c1,0,2,0,3,.07s2.46.1,3.77.18a33.77,33.77,0,0,1,1-3.61,21.27,21.27,0,0,1-3.94-4.35c-1,.61-2,1.22-2.87,1.8-.63.4-1.22.79-1.79,1.18l-.27-1.63,1.28-.79c1-.63,2.11-1.28,3.24-1.93-.17-.45-1.56-4.08-1.45-5.9.1-1.65.68-3.72,2.14-4.69a2.93,2.93,0,0,1,4.26.94c1.16,2.19-.89,6.15-2.44,7.74-.09.09-1.19,1-1.89,1.56l1.39-.8c.95-.54,1.91-1,2.94-1.59l1.54-.75c.51-.26,1.08-.47,1.62-.71,1.27-.54,2.59-1,3.92-1.47-.47-.83-2.08-3.8-2.23-5.45s.11-3.79,1.4-5a2.93,2.93,0,0,1,4.35.29c1.48,2,.05,6.22-1.23,8-.08.11-1.15,1.3-1.75,1.94.8-.26,1.6-.53,2.43-.77,2.37-.7,4.8-1.34,7.21-2l2.22-.6c-.17-.3-2.17-3.79-2.34-5.64-.15-1.64.11-3.78,1.4-5a2.93,2.93,0,0,1,4.35.28c1.48,2,.05,6.22-1.23,8-.1.14-1.64,1.85-2.05,2.26,1.62-.44,3.24-.9,4.81-1.42a51.3,51.3,0,0,0,6.22-2.47c-.08-.13-2.18-3.77-2.35-5.67-.16-1.64.11-3.78,1.4-5a2.93,2.93,0,0,1,4.35.28c1.48,2,.05,6.23-1.23,8-.1.14-1.76,2-2.08,2.28l.36-.15a39.17,39.17,0,0,0,5.68-3.56c1-.74,1.91-1.5,2.78-2.25-.46-.64-2.53-3.58-2.88-5.27s-.3-3.77.85-5.08a2.93,2.93,0,0,1,4.36-.2c1.69,1.82.73,6.18-.35,8.11-.06.11-.77,1.11-1.3,1.83l1.16-1c1.37-1.28,2.55-2.53,3.58-3.65.58-.64,1.1-1.23,1.57-1.79-.12-.86-.59-4.33-.12-6s1.46-3.49,3.09-4.12a2.92,2.92,0,0,1,4,1.83c.66,2.39-2.19,5.82-4,7-.16.1-2.85,1.46-2.86,1.41v0c-.45.55-.94,1.13-1.48,1.75-1,1.14-2.17,2.42-3.52,3.73a50.18,50.18,0,0,1-4.55,4,38.73,38.73,0,0,1-5.68,3.73l-.08,0c.72-.13,2.73-.43,2.88-.43,2.21-.08,6.53,1.08,7.37,3.41a2.93,2.93,0,0,1-2.17,3.78c-1.7.42-3.63-.54-4.91-1.58-1.45-1.17-3.26-4.78-3.41-5.07a51.17,51.17,0,0,1-6.37,2.7c-1.27.45-2.57.86-3.87,1.26.62-.1,1.18-.17,1.26-.18,2.21-.07,6.52,1.08,7.36,3.42a2.93,2.93,0,0,1-2.17,3.78c-1.7.42-3.62-.54-4.91-1.58s-2.91-4.1-3.32-4.91l-1.5.44c-2.41.7-4.81,1.38-7.15,2.12-.82.26-1.62.55-2.43.84l1.09-.15c2.21-.08,6.53,1.08,7.37,3.41a2.93,2.93,0,0,1-2.18,3.78c-1.69.43-3.62-.54-4.9-1.58s-2.76-3.8-3.25-4.76c-.82.31-1.63.63-2.41,1-.52.25-1,.45-1.55.73l-1.52.78c-.95.53-1.94,1.08-2.85,1.62-.64.37-1.24.74-1.84,1.11.81-.27,2.42-.77,2.56-.79a11.3,11.3,0,0,1,5.71.61,2.88,2.88,0,0,1,.65-.07,2.94,2.94,0,0,1,3,3.14c-.25,2.46-4.15,4.64-6.31,5.11-.13,0-1.54.17-2.44.25.54,0,1,.06,1.6.11,1.09.07,2.17.18,3.33.29l1.7.23c.57.06,1.16.2,1.75.3,1.35.25,2.71.58,4.07.94.07-.95.36-4.32,1.15-5.79s2.18-3.09,3.9-3.36a2.93,2.93,0,0,1,3.48,2.64c.13,2.47-3.39,5.21-5.46,6-.13.05-1.67.45-2.52.65.81.22,1.63.44,2.45.7,2.36.72,4.74,1.53,7.11,2.33l2.17.72c0-.34.29-4.36,1.17-6,.78-1.45,2.17-3.09,3.9-3.36a2.93,2.93,0,0,1,3.48,2.64c.13,2.47-3.39,5.22-5.46,6-.15.06-2.38.63-2.95.75,1.6.52,3.2,1,4.79,1.47a52.71,52.71,0,0,0,6.55,1.37c0-.16.27-4.35,1.17-6,.78-1.45,2.18-3.09,3.91-3.36a2.92,2.92,0,0,1,3.47,2.64c.13,2.47-3.39,5.21-5.46,6-.16.06-2.55.68-3,.76.12,0,.25.05.38.06a38,38,0,0,0,6.71.17c1.24-.06,2.42-.19,3.56-.34,0-.79-.14-4.38.5-6s1.83-3.32,3.51-3.77a2.93,2.93,0,0,1,3.75,2.24c.4,2.44-2.8,5.56-4.76,6.57l-2.1.8,1.54-.22c1.85-.31,3.52-.71,5-1.07.84-.21,1.59-.42,2.3-.62.37-.79,1.9-3.94,3.18-5.05s3.15-2.1,4.86-1.73a2.93,2.93,0,0,1,2.29,3.71c-.77,2.36-5,3.65-7.26,3.64-.19,0-3.18-.35-3.16-.39l0-.05c-.67.21-1.39.43-2.19.65-1.47.39-3.14.82-5,1.17a51.4,51.4,0,0,1-6,.84,38.65,38.65,0,0,1-6.8,0h-.08c.67.28,2.51,1.14,2.64,1.22,1.89,1.16,4.85,4.51,4.26,6.91a2.93,2.93,0,0,1-3.9,2C418.45,387.06,417.37,385.19,416.87,383.62Z" style="fill:#407BFF"></path><path d="M421.47,339.81s2.73-1.25,2.91-1.31c2.11-.65,6.58-.68,8,1.35a2.94,2.94,0,0,1-1.1,4.22c-1.53.86-3.64.44-5.15-.22C424.36,343.07,421.48,339.81,421.47,339.81Z" style="fill:#407BFF"></path><path d="M27.47,257.76C31.41,257.1,38.8,252,38.81,252S34,248.16,33.65,248c-3.9-2.37-12.82-4.65-16.68-1.31a6,6,0,0,0,.08,9C19.67,258.12,24.11,258.33,27.47,257.76Z" style="fill:#407BFF"></path><path d="M44.27,277.8c3.48-1.62,8.9-7.94,9.33-8.44A109.63,109.63,0,0,0,65,277.94c2.32,1.53,4.7,3,7.1,4.44-1.2-.5-2.27-.93-2.43-1-4.38-1.25-13.59-1.09-16.43,3.15a6,6,0,0,0,2.46,8.65c3.18,1.69,7.52.73,10.6-.71s7.87-6.75,9.11-8.17L78.2,286c4.46,2.59,8.92,5.16,13.22,7.81,1.52.94,3,1.91,4.44,2.88-1.06-.44-2-.8-2.1-.84-4.38-1.25-13.59-1.09-16.43,3.15a6,6,0,0,0,2.45,8.65c3.19,1.69,7.52.73,10.61-.71s7.4-6.23,8.88-7.91c1.47,1,2.94,2.08,4.32,3.15.92.75,1.86,1.41,2.75,2.22l2.65,2.33c1.63,1.54,3.32,3.12,4.88,4.66,1.09,1.06,2.11,2.1,3.14,3.13-1.5-.94-4.48-2.74-4.74-2.86-4.14-1.9-13.27-3.14-16.72.62a6,6,0,0,0,1.12,8.93c2.89,2.15,7.32,1.85,10.59.9,3.6-1,9.69-6.23,10.45-6.88,1.7,1.73,3.33,3.42,4.85,5,1.36,1.45,2.63,2.84,3.84,4.18l2.68-1.75c-1.36-1.44-2.79-2.94-4.34-4.52-1.71-1.76-3.58-3.6-5.52-5.48a63.69,63.69,0,0,0,4-6.57c3.74.94,11.15.05,12.11-.08.46,2.38.89,4.69,1.26,6.88.26,1.51.49,3,.71,4.36l2.84-1.86c-.19-1-.37-2-.57-3-.46-2.41-1-5-1.58-7.61.91-.36,8.36-3.33,11-6,2.37-2.45,4.71-6.22,4.16-9.79a6,6,0,0,0-7.36-5.16c-4.94,1.29-8.12,9.93-8.38,14.48,0,.27.15,3.21.28,5.05-.24-1.07-.47-2.12-.73-3.22-.5-2.19-1.07-4.35-1.68-6.68-.33-1.12-.66-2.25-1-3.39s-.79-2.29-1.18-3.45c-1-2.68-2.06-5.34-3.24-8,1.92-.44,8.68-2.13,11.41-4.2s5.59-5.44,5.59-9a6,6,0,0,0-6.5-6.22c-5.08.52-9.52,8.59-10.47,13-.06.28-.37,3.55-.51,5.36-.72-1.59-1.43-3.19-2.21-4.77-2.24-4.58-4.66-9.15-7-13.72-.73-1.4-1.44-2.8-2.16-4.2.68-.15,8.77-2,11.82-4.3,2.71-2.06,5.6-5.44,5.59-9a6,6,0,0,0-6.5-6.22c-5.08.52-9.52,8.59-10.47,13.05-.07.33-.52,5.05-.57,6.25-1.59-3.08-3.14-6.17-4.54-9.28a107.39,107.39,0,0,1-4.92-12.9c.32-.07,8.77-1.94,11.9-4.31,2.71-2.06,5.59-5.44,5.59-9a6.06,6.06,0,0,0-6.5-6.22c-5.08.53-9.52,8.59-10.47,13-.07.35-.56,5.43-.58,6.35-.07-.25-.18-.51-.26-.76a78.74,78.74,0,0,1-2.51-13.61c-.27-2.53-.39-5-.45-7.35,1.61-.19,9-1.13,12-2.95s6.16-4.79,6.55-8.38a6,6,0,0,0-5.77-6.89c-5.11,0-10.41,7.49-11.84,11.82-.08.23-.6,2.72-1,4.53,0-1.08,0-2.18,0-3.21,0-3.86.29-7.4.55-10.52.16-1.78.34-3.39.52-4.89,1.49-1,7.41-5.14,9.25-8.11s3.25-7.09,2-10.45A6,6,0,0,0,109,168c-4.55,2.32-5.79,11.45-5.06,15.95.06.39,1.74,6.36,1.82,6.31l.09-.06c-.21,1.43-.41,3-.6,4.67-.33,3.13-.67,6.67-.78,10.54a109.11,109.11,0,0,0,.23,12.53A78.49,78.49,0,0,0,107,231.74s0,.1,0,.16c-.8-1.27-3.14-4.74-3.35-5-3-3.46-10.73-8.42-15.45-6.44a6,6,0,0,0-2.72,8.57c1.72,3.17,5.87,4.75,9.24,5.26,3.8.57,11.81-1.71,12.44-1.89A107.19,107.19,0,0,0,112,245.87c1.08,2.55,2.26,5.09,3.47,7.62-.73-1.08-1.38-2-1.49-2.15-3-3.47-10.73-8.41-15.44-6.44a6,6,0,0,0-2.72,8.57c1.72,3.17,5.87,4.75,9.23,5.26s10.29-1.29,12.1-1.79c.47,1,.94,1.93,1.42,2.89,2.29,4.63,4.6,9.23,6.72,13.82.75,1.61,1.43,3.23,2.11,4.85-.64-.95-1.19-1.75-1.29-1.86-3-3.47-10.73-8.41-15.44-6.44a6,6,0,0,0-2.72,8.57c1.72,3.17,5.87,4.75,9.24,5.26s9.61-1.12,11.77-1.71c.65,1.68,1.3,3.36,1.86,5,.35,1.14.77,2.21,1.06,3.38s.63,2.28.94,3.4c.51,2.18,1,4.43,1.5,6.58.32,1.49.6,2.91.88,4.34-.73-1.61-2.22-4.75-2.37-5a23.58,23.58,0,0,0-8.88-7.83,7.64,7.64,0,0,0-.8-1.07,6,6,0,0,0-9-.24c-3.41,3.8-1.29,12.76,1,16.7.14.23,1.89,2.59,3,4.05-.8-.76-1.56-1.51-2.39-2.28-1.62-1.54-3.29-3-5.08-4.65L108,302.44c-.88-.77-1.92-1.48-2.88-2.23-2.28-1.7-4.67-3.31-7.12-4.88,1.35-1.43,6.07-6.57,7.2-9.8s1.67-7.62-.33-10.62A6,6,0,0,0,96,273.3c-3.94,3.24-3.2,12.42-1.53,16.66.1.27,1.65,3.17,2.52,4.76-1.47-.94-2.94-1.87-4.47-2.77-4.4-2.58-8.93-5.06-13.44-7.55-1.38-.76-2.75-1.54-4.13-2.31.49-.5,6.22-6.49,7.49-10.11,1.13-3.21,1.67-7.62-.32-10.62a6.05,6.05,0,0,0-8.85-1.61c-4,3.24-3.21,12.42-1.54,16.66.13.32,2.36,4.51,3,5.54-3-1.7-6-3.42-8.9-5.24a109.3,109.3,0,0,1-11.22-8c.23-.24,6.24-6.46,7.54-10.17,1.13-3.21,1.67-7.62-.32-10.62A6.05,6.05,0,0,0,53,246.27c-4,3.24-3.21,12.42-1.54,16.66.14.34,2.53,4.84,3,5.62-.21-.17-.44-.33-.64-.5a78,78,0,0,1-9.61-10c-1.62-2-3.07-3.93-4.43-5.88,1.24-1.05,6.85-5.88,8.39-9.09s2.49-7.39.84-10.59A6,6,0,0,0,40.37,230c-4.28,2.79-4.55,12-3.35,16.39.06.24,1,2.6,1.69,4.31-.6-.89-1.23-1.8-1.79-2.66-2.11-3.24-3.84-6.33-5.35-9.08-.85-1.57-1.58-3-2.25-4.36.68-1.66,3.34-8.38,3.23-11.87s-1.2-7.71-4.14-9.79a6,6,0,0,0-8.83,1.69c-2.51,4.45,1.49,12.74,4.57,16.1.27.28,5,4.34,5,4.25l0-.1c.62,1.31,1.3,2.72,2.07,4.23,1.46,2.79,3.13,5.93,5.17,9.23a108.89,108.89,0,0,0,7.1,10.31,79.72,79.72,0,0,0,9.51,10.3l.13.1c-1.36-.62-5.23-2.21-5.54-2.3-4.39-1.25-13.6-1.1-16.44,3.14a6.06,6.06,0,0,0,2.46,8.66C36.84,280.2,41.18,279.23,44.27,277.8Z" style="fill:#407BFF"></path><path d="M104.42,209.79c.09,0-1.9-5.87-2.07-6.23-1.94-4.12-8.13-10.95-13.19-10.29a6,6,0,0,0-4.89,7.55c.82,3.51,4.41,6.13,7.52,7.51C95.45,210,104.41,209.79,104.42,209.79Z" style="fill:#407BFF"></path><path d="M65.52,383.06c1.06-1.63,1.67-5.94,1.67-5.94s-3,.46-3.15.51c-2.12.62-5.86,3.06-5.93,5.54a2.93,2.93,0,0,0,3.24,2.92C63.1,386,64.63,384.44,65.52,383.06Z" style="fill:#407BFF"></path><path d="M78.2,383.62c.56-1.78.08-5.79,0-6.11a52.43,52.43,0,0,0,6.81-1.27c1.3-.33,2.61-.7,3.91-1.08-.57.26-1.07.5-1.14.55-1.89,1.15-4.85,4.5-4.26,6.9a2.93,2.93,0,0,0,3.9,2c1.65-.58,2.72-2.45,3.22-4s.17-5,.06-5.94l1.5-.45c2.39-.75,4.77-1.51,7.13-2.17.83-.24,1.66-.44,2.48-.65l-1,.48C99,373,96,376.32,96.6,378.73a2.94,2.94,0,0,0,3.9,1.95c1.65-.58,2.73-2.45,3.23-4s.19-4.69.08-5.77c.85-.19,1.7-.37,2.54-.51.57-.09,1.12-.21,1.7-.26l1.7-.18c1.08-.08,2.2-.17,3.26-.22l2.15-.09c-.83.22-2.44.7-2.57.75-2,.86-5.48,3.72-5.26,6.19a2.93,2.93,0,0,0,3.56,2.52c1.71-.33,3.06-2,3.79-3.49.81-1.63.95-5.51,1-6,1.17,0,2.31-.07,3.39-.08h2.75L122,368c-1,0-2,0-3,.07s-2.47.1-3.77.18a32.27,32.27,0,0,0-1-3.61,21.39,21.39,0,0,0,4-4.35c1,.61,2,1.22,2.87,1.8.62.4,1.22.79,1.79,1.18l.27-1.63-1.28-.79c-1-.63-2.11-1.28-3.24-1.93.17-.45,1.55-4.08,1.45-5.9-.1-1.65-.69-3.72-2.14-4.69a2.93,2.93,0,0,0-4.26.94c-1.16,2.19.89,6.15,2.43,7.74.1.09,1.2,1,1.9,1.56l-1.39-.8c-1-.54-1.91-1-2.94-1.59l-1.54-.75c-.51-.26-1.08-.47-1.62-.71-1.27-.54-2.59-1-3.92-1.47.46-.83,2.08-3.8,2.23-5.45s-.11-3.79-1.4-5a2.93,2.93,0,0,0-4.35.29c-1.48,2,0,6.22,1.23,8,.08.11,1.15,1.3,1.75,1.94-.81-.26-1.61-.53-2.43-.77-2.37-.7-4.8-1.34-7.22-2-.74-.19-1.47-.4-2.21-.6.17-.3,2.17-3.79,2.34-5.64.15-1.64-.11-3.78-1.4-5a2.94,2.94,0,0,0-4.36.28c-1.47,2,0,6.22,1.24,8,.1.14,1.63,1.85,2.05,2.26-1.63-.44-3.24-.9-4.81-1.42A51.3,51.3,0,0,1,83,345.79c.07-.13,2.17-3.77,2.35-5.67.15-1.64-.11-3.78-1.4-5a2.94,2.94,0,0,0-4.36.28c-1.47,2,0,6.23,1.24,8,.1.14,1.76,2,2.08,2.28l-.36-.15A39.84,39.84,0,0,1,76.84,342c-1-.74-1.91-1.5-2.78-2.25.47-.64,2.54-3.58,2.88-5.27s.31-3.77-.84-5.08a2.93,2.93,0,0,0-4.36-.2c-1.69,1.82-.74,6.18.34,8.11.06.11.78,1.11,1.31,1.83l-1.16-1c-1.37-1.28-2.55-2.53-3.58-3.65-.59-.64-1.1-1.23-1.58-1.79.13-.86.59-4.33.13-6s-1.47-3.49-3.1-4.12a2.91,2.91,0,0,0-3.95,1.83c-.66,2.39,2.19,5.82,4,7,.16.1,2.85,1.46,2.85,1.41v0c.45.55.93,1.13,1.48,1.75,1,1.14,2.16,2.42,3.51,3.73a51.77,51.77,0,0,0,4.56,4,38.73,38.73,0,0,0,5.68,3.73l.07,0c-.71-.13-2.72-.43-2.87-.43-2.22-.08-6.53,1.08-7.37,3.41a2.92,2.92,0,0,0,2.17,3.78c1.7.42,3.63-.54,4.91-1.58,1.45-1.17,3.26-4.78,3.41-5.07a51.17,51.17,0,0,0,6.37,2.7c1.27.45,2.56.86,3.87,1.26L91.58,350c-2.21-.07-6.53,1.08-7.37,3.42a2.94,2.94,0,0,0,2.18,3.78c1.69.42,3.62-.54,4.91-1.58s2.91-4.1,3.32-4.91l1.5.44c2.41.7,4.81,1.38,7.15,2.12.82.26,1.62.55,2.42.84l-1.08-.15c-2.22-.08-6.53,1.08-7.37,3.41a2.93,2.93,0,0,0,2.17,3.78c1.7.43,3.63-.54,4.91-1.58s2.75-3.8,3.25-4.76c.81.31,1.63.63,2.4,1,.53.25,1,.45,1.56.73l1.52.78c1,.53,1.93,1.08,2.85,1.62.63.37,1.23.74,1.84,1.11-.82-.27-2.43-.77-2.56-.79a11.35,11.35,0,0,0-5.72.61,2.79,2.79,0,0,0-.64-.07,2.94,2.94,0,0,0-3,3.14c.24,2.46,4.14,4.64,6.31,5.11.12,0,1.54.17,2.44.25-.54,0-1.06.06-1.6.11-1.09.07-2.17.18-3.33.29l-1.7.23c-.57.06-1.16.2-1.75.3-1.35.25-2.71.58-4.07.94-.07-.95-.37-4.32-1.15-5.79S98.75,361.27,97,361a2.92,2.92,0,0,0-3.47,2.64c-.14,2.47,3.39,5.21,5.45,6,.13.05,1.68.45,2.53.65-.81.22-1.63.44-2.45.7-2.37.72-4.74,1.53-7.11,2.33l-2.18.72c0-.34-.28-4.36-1.16-6-.78-1.45-2.18-3.09-3.91-3.36a2.92,2.92,0,0,0-3.47,2.64c-.13,2.47,3.39,5.22,5.46,6,.15.06,2.38.63,3,.75-1.6.52-3.2,1-4.79,1.47a52.86,52.86,0,0,1-6.56,1.37c0-.16-.26-4.35-1.16-6-.78-1.45-2.18-3.09-3.91-3.36a2.92,2.92,0,0,0-3.47,2.64c-.14,2.47,3.39,5.21,5.45,6,.17.06,2.56.68,3,.76l-.39.06a37.93,37.93,0,0,1-6.7.17c-1.24-.06-2.42-.19-3.56-.34,0-.79.14-4.38-.5-6s-1.83-3.32-3.52-3.77a2.93,2.93,0,0,0-3.74,2.24c-.41,2.44,2.8,5.56,4.76,6.57l2.1.8-1.54-.22c-1.85-.31-3.52-.71-5-1.07-.84-.21-1.6-.42-2.3-.62-.37-.79-1.9-3.94-3.19-5.05s-3.14-2.1-4.85-1.73a2.93,2.93,0,0,0-2.29,3.71c.76,2.36,5,3.65,7.25,3.64.19,0,3.18-.35,3.17-.39l0-.05c.68.21,1.4.43,2.2.65,1.47.39,3.14.82,5,1.17a51.1,51.1,0,0,0,6,.84,38.53,38.53,0,0,0,6.79,0H78c-.67.28-2.51,1.14-2.64,1.22-1.89,1.16-4.85,4.51-4.27,6.91a2.93,2.93,0,0,0,3.9,2C76.62,387.06,77.7,385.19,78.2,383.62Z" style="fill:#407BFF"></path><path d="M73.59,339.81s-2.72-1.25-2.9-1.31c-2.12-.65-6.58-.68-8,1.35a2.94,2.94,0,0,0,1.1,4.22c1.52.86,3.64.44,5.15-.22C70.71,343.07,73.59,339.81,73.59,339.81Z" style="fill:#407BFF"></path></g><g id="freepik--earth-globe--inject-47"><circle cx="248.57" cy="173.06" r="121.01" transform="translate(-7.31 11.01) rotate(-2.5)" style="fill:none;stroke:#263238;stroke-linecap:round;stroke-linejoin:round"></circle><path d="M224.27,285A114.39,114.39,0,0,0,244,287.54" style="fill:none;stroke:#263238;stroke-linecap:round;stroke-linejoin:round"></path><path d="M209.43,280.72q4.92,1.8,10,3.14" style="fill:none;stroke:#263238;stroke-linecap:round;stroke-linejoin:round"></path><path d="M138.38,141.71a114.61,114.61,0,0,0,66.91,137.41" style="fill:none;stroke:#263238;stroke-linecap:round;stroke-linejoin:round"></path><path d="M153.78,108.76a115.32,115.32,0,0,0-10.58,19.36" style="fill:none;stroke:#263238;stroke-linecap:round;stroke-linejoin:round"></path><polygon points="232.17 119.31 244.51 121.87 248.72 126.23 254.2 127.07 255.94 132.27 254.66 135.79 250.93 137.51 241.77 136.01 241.52 134.89 245.85 131.87 242.86 126.35 234.66 125.23 230.3 121.49 232.17 119.31" style="fill:none;stroke:#263238;stroke-linecap:round;stroke-linejoin:round"></polygon><path d="M331.6,233.16l-9.79-1.66L310,230l-8.69,1.93-8.51.12-8.53,4-5,1.4-3.08.68-5.14,4.67L266,246.26l-8.63-3.08.22-8.29-5.21-.9-5.6,1.24-1.4-2.34-.56-5.17-2.59-2.37-3.8,1.44-.5,3.05-4.7,1.34-5.33-4.11-3.18-6.36,2.47-8.78,8.25-1.25,2.68,1.47,3.36-.75,3.65-3.46,3.89.31,7,7.57,1.9-.71-2-6.33-2.43-3-.62-5.45,9.37-6.79-.9-10.68,3.68-4.65,2.21-7.25,2.68-1.19,5.52-5.63-.22-2.31-4.43,1.28-1.33-2.06-3.09.69-4.52,2.18,1.44-4.15,9.19-5,1.68-3,5.3,5.29,3.08,2,3.68-2-2.5-3.27-6.82-2.9-8.41-6.07-8.07-3.21-7,.37-4.12-2.62-4.73-.12-.31,1.25,1.24,8.25,1.75,2.56-.53,9.53-6.61-3.24,0-4.12L233.54,152l-3.21-2.52-.15-7.33,6.82-7.69-.93-6.85-3,1-2.52-2.09-1.77-4-2,.15-.12,4.74-3,1.24-3.58-9.5-2.56-.9-4.3-.81-4,3.24,6.8,4.08,2.18,4.51-11.78-5.32-8.69-6-2.24-7.44-7.79-.63-4.8,4.89a43.61,43.61,0,0,1-3.71,3.18,48.05,48.05,0,0,1-6.48,2.62l-.06,5-6.39,1.71,1.25,3,10.75-.62,6.63,4.71,2.18,9.81-1.15,9.38,2.61,9.12L183.72,178l2.87,20.84,5.14,11.21,5.63,8.17,4.33-.38-2.4-4.17-3-2.87L193.53,205l2.4-1.12,6.17,9.23,4.8,8.35,1.61,7.28,6.76,5.27,11.09,4.89,15.45.69,5.42,3.21,4.36,3.74,5.74,2,6.54.31,6.1-1.65s.35,2.87.66,4.27-2.56,7-2.56,7l-1.84,6.29,3.62,5.68,6.73,1.15,10.68,7,4.3.81.93,4.21.93,1.85a120.66,120.66,0,0,0,52.66-40.75l-.31-2.06,4.52-15.42-4.21-1.71Z" style="fill:none;stroke:#263238;stroke-linecap:round;stroke-linejoin:round"></path><path d="M336.16,115.93l-4.27-4.64L326.6,106l-3-8.16,5.23-.28-.34-2.87-3.71.53,2.78-2.08,2.92-2.71-.62-2.81-4.36-3.74L323.45,78a121.05,121.05,0,0,0-146.1-2.8l7.48,3.14L182,84.26,177,86.56l1.12,7.7L176,95.6l-2.12,3.7,1.4,5,4.89-.5-.9,5.2,4.77-1.06,5.82-12.18-.15-4.67,7.72-2.3,1.22-3.8,7.94-2.65-.21-5,5.82-1.59s3.71-3.18,4.55-3.37a35.93,35.93,0,0,1,5.08.35l4.95,2.43,5.89-1.31,4.36-4.2,6.57-.88a7.13,7.13,0,0,0,3.34.44c1.4-.31,5.17-3.21,5.17-3.21l9.25,3.24,3.93,1.78.93,4.21,4.33-.38.84-2.83,4,.87.22,2.31-7.92,4.11,6.14,5.11,11.34,3.36,5.45,4.68,6.29-.81.78-3.12,2.12-1.06-8.53-4L286.7,84,290.09,82l-4.42-4,4.7-1.34,6.92,2,2.89,6.41,3.9,3,4.33,7.57,7.16,3.12,2.06,9.25,7.38,2.78.4,3.14,0,3.84,2.81,4.67,1.12,2.4,4.95-.22,1.18-5.26Z" style="fill:none;stroke:#263238;stroke-linecap:round;stroke-linejoin:round"></path><path d="M333.53,86.87l.36,1.61-.4,4.8L335.2,97l3.33.44,1.18,5.32-3.67-.65,2.52,15.33-2,6.91,4,7.36,4.39,2.55,3.37,15.14,6.26,11,5.91,8.1,6.83.25,1-6.11.76-.92a121.41,121.41,0,0,0-35.53-74.84Z" style="fill:none;stroke:#263238;stroke-linecap:round;stroke-linejoin:round"></path><polygon points="268.38 99.5 248.06 95.48 240 97.57 239.22 103.33 235.04 100.43 229.19 103.2 230.68 112.58 236.54 115.11 239 108.97 244.14 112.24 254.51 117.88 258 125.64 267.34 133.27 278.68 128.69 277.47 124.55 273.89 120.34 270.83 109.25 272.58 103.86 268.38 99.5" style="fill:none;stroke:#263238;stroke-linecap:round;stroke-linejoin:round"></polygon><polygon points="284.89 102.31 280.43 102.12 277.47 106.02 281.24 113.71 284.88 112.9 284.89 102.31" style="fill:none;stroke:#263238;stroke-linecap:round;stroke-linejoin:round"></polygon><polygon points="312.14 101.85 301.49 98.92 298.78 95.99 296.72 97.33 299.93 102.5 303.23 109.42 307.81 110.16 308.4 108.86 304.95 105.21 312.86 106.39 312.14 101.85" style="fill:none;stroke:#263238;stroke-linecap:round;stroke-linejoin:round"></polygon><polygon points="252.75 221.24 251.88 222.62 260.85 223.27 265.09 226.45 270.54 225.83 271.82 222.31 265.12 222.62 252.75 221.24" style="fill:none;stroke:#263238;stroke-linecap:round;stroke-linejoin:round"></polygon><polygon points="278.89 221.03 273.37 224.02 274.71 226.08 282 224.46 282.91 221.9 280.44 222.74 278.89 221.03" style="fill:none;stroke:#263238;stroke-linecap:round;stroke-linejoin:round"></polygon></g><g id="freepik--Character--inject-47"><path d="M291.92,436.69l-2.44,12.48s-.3,3.66,1.22,4.87,28,1.22,28,0,.61-5.48-.3-7.91-3.05-10.66-3.05-10.66Z" style="fill:#fff;stroke:#263238;stroke-miterlimit:10"></path><path d="M289.7,452.22a3.32,3.32,0,0,0,1,1.82c1.52,1.22,28,1.22,28,0,0-.37.06-1,.11-1.82Z" style="fill:#fff;stroke:#263238;stroke-miterlimit:10"></path><path d="M299.83,436.38s-2.74,5.79-.3,7,9.13,1.82,10.35-.31-1.52-6.7-1.52-6.7Z" style="fill:#fff;stroke:#263238;stroke-miterlimit:10"></path><path d="M246.24,434l-6.39,7s-11,10.05-10.35,11.27a28,28,0,0,1,1.22,3h35.62s2.13-1.83,2.13-2.74-.61-12.79-.61-12.79Z" style="fill:#fff;stroke:#263238;stroke-miterlimit:10"></path><path d="M229.65,452.54c.56,1.2,1.07,2.72,1.07,2.72h35.62a8.78,8.78,0,0,0,2.07-2.49Z" style="fill:#fff;stroke:#263238;stroke-miterlimit:10"></path><path d="M247.46,436.38l-4.87,4.87c-2.13,2.14-.61,4.57,3.65,3.66s8.53-7,8.53-7Z" style="fill:none;stroke:#263238;stroke-miterlimit:10"></path><path d="M253.74,306.86s-6.59,47-6.59,52.36S252.54,428,252.54,428l-4.79,3.29.3,6s19.75,3.29,21.25,3.29a4.6,4.6,0,0,0,2.39-.6l-.6-8.68s2.09-9.87,2.09-12.26-2.39-57.75-2.39-57.75l8.08-33.21,2.69-1.79.3,35.6,11.67,64.93-1.79,7.48,2.69,4.48s6.88-.59,13.76-.59,10.17-2.4,10.17-2.4l-1.19-13.76-10.48-63.43s6.59-52.36,6.59-53.85-1.5-3.6-1.5-3.6Z" style="fill:#263238;stroke:#263238;stroke-miterlimit:10"></path><path d="M250.07,211.56l1,4.42s-15.73,10.57-17.2,13.51,10.56,34.15,14.74,46.68,4.91,18.91,4.91,18.91l-1.23,14.74s9.59,3.93,23.83,4.18,24.57-3.2,28.5-4.18,9.58-4.91,9.58-4.91-.49-3.44-4.18-18.67a272.44,272.44,0,0,1-5.16-27s-6.38-32.43-9.82-37.1-5.41-10.31-9.34-11.3-18.17-.49-18.17-.49L262.11,202Z" style="fill:#fff;stroke:#263238;stroke-miterlimit:10"></path><path d="M262.85,229.25c7.35-2.1,7.84-12.94,7.52-19-1.72,0-2.85.07-2.85.07L262.11,202l-12,9.58,1,4.42s-1.55,1-3.72,2.56C249.18,222.35,254.6,231.6,262.85,229.25Z" style="fill:#fff;stroke:#263238;stroke-miterlimit:10"></path><path d="M251.06,216a5.63,5.63,0,0,0,5.77,1.85c3.48-1,8.87-16.6,8.87-16.6Z" style="fill:#263238;stroke:#263238;stroke-miterlimit:10"></path><path d="M235.47,227.63s-2.75.51-4,9-4.51,35.6-3.26,39.61,7.78,4.76,10.28,2S242,253.46,242,253.46l-1-5.52" style="fill:#fff;stroke:#263238;stroke-miterlimit:10"></path><path d="M229.21,255c-1,9.44-1.71,19-1,21.25,1.26,4,7.78,4.76,10.28,2,1.55-1.7,2.53-10.81,3.05-17.49Z" style="fill:#fff;stroke:#263238;stroke-miterlimit:10"></path><path d="M291.88,235.41s15.29,20.55,19.3,23.06,13.79-2,12.29-8.27-28.83-34.35-32.09-37.86-14-2-14-2" style="fill:#fff;stroke:#263238;stroke-miterlimit:10"></path><path d="M309.76,232.11,299.08,244.8c4.54,5.77,9.95,12.32,12.1,13.67,4,2.51,13.79-2,12.29-8.27C322.77,247.3,316.56,239.74,309.76,232.11Z" style="fill:#fff;stroke:#263238;stroke-miterlimit:10"></path><rect x="265.06" y="250.95" width="9.02" height="6.77" transform="translate(-87.14 153.79) rotate(-27.59)" style="fill:#fff;stroke:#263238;stroke-miterlimit:10"></rect><path d="M289.87,258s-5.51-5-11-4.51-15.29,4.51-16.54,9,4,30.84,11.78,33.34,22.06-4.51,24.32-11.78S296.89,265.24,289.87,258ZM295.64,280c-1.25,3.51-14.79-14-14.54-19s3.76-1.51,3.76-1.51C291.38,266.24,296.89,276.52,295.64,280Z" style="fill:#407BFF;stroke:#263238;stroke-miterlimit:10"></path><path d="M281.75,273.06c2.07,6.67.37,13.13-3.8,14.42s-9.22-3.07-11.29-9.75-.37-13.14,3.8-14.43S279.68,266.38,281.75,273.06Z" style="fill:#fff;stroke:#263238;stroke-miterlimit:10"></path><path d="M315.45,247.94s-6.52,4.51-7.27,5.77-3.76,2.5-3.76,2.5a48.32,48.32,0,0,1-7.28-2.5c-3.25-1.51-4-2.76-5-2s-8,8.78-8,10,6.52,8,7.27,8.52,5.76-1.5,7.27-2.25,3.51-1.51,3.51-1.51,9.53.5,14.79-.75,10.53-4.51,10.53-9.53-7.77-11-7.77-11" style="fill:#fff;stroke:#263238;stroke-miterlimit:10"></path><line x1="286.11" y1="263.99" x2="293.38" y2="255.71" style="fill:none;stroke:#263238;stroke-miterlimit:10"></line><line x1="288.37" y1="266.99" x2="295.39" y2="258.97" style="fill:none;stroke:#263238;stroke-miterlimit:10"></line><line x1="290.63" y1="268.75" x2="297.65" y2="262.48" style="fill:#fff;stroke:#263238;stroke-miterlimit:10"></line><path d="M241,293.39H249a2.68,2.68,0,0,1,2.68,2.68v24.6a2.81,2.81,0,0,1-2.81,2.81h-7.67a2.81,2.81,0,0,1-2.81-2.81v-24.6A2.68,2.68,0,0,1,241,293.39Z" transform="translate(546.18 54.56) rotate(88.33)" style="fill:#fff;stroke:#263238;stroke-miterlimit:10"></path><rect x="259.79" y="305.93" width="4.51" height="4.01" transform="translate(562.23 37.04) rotate(88.33)" style="fill:#fff;stroke:#263238;stroke-miterlimit:10"></rect><path d="M239.52,274.76s2.25,3,1.67,13a35.49,35.49,0,0,0,.31,4.5,48.69,48.69,0,0,0,6.41,4.24c3.18,1.67,4.64,1.5,4.65,2.75s-2.07,11.71-3.06,12.48-10.33-.28-11.19-.57-2.32-5.49-2.64-7.14a71.09,71.09,0,0,1-.37-7.17,48.94,48.94,0,0,1-6.43-9.87c-2.22-4.94-4.06-11.06-.08-14.12a5.68,5.68,0,0,1,4.41-.87" style="fill:#fff;stroke:#263238;stroke-miterlimit:10"></path><line x1="246.49" y1="311.51" x2="248.62" y2="300.7" style="fill:none;stroke:#263238;stroke-miterlimit:10"></line><line x1="242.73" y1="311.56" x2="244.81" y2="301.1" style="fill:none;stroke:#263238;stroke-miterlimit:10"></line><line x1="239.96" y1="310.84" x2="240.65" y2="301.45" style="fill:none;stroke:#263238;stroke-miterlimit:10"></line><path d="M269.42,175.53s2.7-1.7,3,3.72-5.07,11.49-5.07,11.49a62.06,62.06,0,0,1-1.69,10.49c-1.35,5.07-7.61,14.18-12.34,14.52s-15.39-8.1-17.42-12.49-1-12.18-4.74-17.25,4.06-12.18,10.15-15.9,16.23-5.74,18.94-4.73S269.42,175.53,269.42,175.53Z" style="fill:#fff;stroke:#263238;stroke-miterlimit:10"></path><path d="M243.86,196.28a3.34,3.34,0,0,0,0,3.1c.83,1.85,3.72,1.23,4.34-.21" style="fill:none;stroke:#263238;stroke-miterlimit:10"></path><path d="M244.69,203.3s7.85.21,10.95-5.58" style="fill:none;stroke:#263238;stroke-miterlimit:10"></path><path d="M252.27,190.35c.47,1.28.42,2.48-.12,2.68s-1.35-.69-1.82-2-.42-2.49.12-2.68S251.8,189.06,252.27,190.35Z" style="fill:#263238"></path><path d="M241.11,193.07c.45,1.29.38,2.49-.16,2.68s-1.34-.71-1.79-2-.38-2.49.16-2.68S240.66,191.78,241.11,193.07Z" style="fill:#263238"></path><path d="M236.22,189.46s0-2.48,4.13-2.27" style="fill:none;stroke:#263238;stroke-miterlimit:10"></path><path d="M247.38,186s2.47-2.48,5.16-.41" style="fill:none;stroke:#263238;stroke-miterlimit:10"></path><path d="M226.81,169.44s-10.82-2.71-11.5,2.37,7.44,7.1,7.44,7.1-10.15-.34-4.06,5.07,23.67.68,30.1-2.71a29.26,29.26,0,0,0,10.14-9.46s-2.7,4.39,1,7.44l3.72,3,.34,4.4,3-.34-1-6.43s2.36-4.39,3.38-4.39,4.73-1.36-1-12.86-16.91-12.17-27-8.11S226.81,169.44,226.81,169.44Z" style="fill:#263238;stroke:#263238;stroke-miterlimit:10"></path></g><g id="freepik--waste-bin-3--inject-47"><path d="M319.14,455.24h0a2.62,2.62,0,0,1-2.63-2.62V442.47a2.63,2.63,0,0,1,2.63-2.63h0a2.62,2.62,0,0,1,2.62,2.63v10.15A2.62,2.62,0,0,1,319.14,455.24Z" style="fill:#263238;stroke:#263238;stroke-miterlimit:10"></path><path d="M383,455.24h0a2.62,2.62,0,0,1-2.62-2.62V442.47a2.62,2.62,0,0,1,2.62-2.63h0a2.63,2.63,0,0,1,2.63,2.63v10.15A2.62,2.62,0,0,1,383,455.24Z" style="fill:#263238;stroke:#263238;stroke-miterlimit:10"></path><path d="M322.46,444.22v5.65a5.13,5.13,0,0,0,5.13,5.13h47.47a5.12,5.12,0,0,0,5.13-5.13v-5.65a4,4,0,0,1,4-4h1.38a3.25,3.25,0,0,0,3.24-3L398,324H306l9.18,113.22a3.23,3.23,0,0,0,3.23,3h0A4,4,0,0,1,322.46,444.22Z" style="fill:#81888c;stroke:#263238;stroke-miterlimit:10"></path><rect x="309.87" y="320.18" width="86.07" height="3.85" style="fill:#81888c;stroke:#263238;stroke-miterlimit:10"></rect><rect x="303.37" y="323.15" width="97.61" height="9.17" style="fill:#81888c;stroke:#263238;stroke-miterlimit:10"></rect><path d="M360.17,345.93a5.89,5.89,0,0,1,2.45,1.28A8.64,8.64,0,0,1,364,349c.82,1.39,1.56,2.84,2.36,4.31l3.26-1.68.05.05c-.51.86-1,1.72-1.55,2.58-1.29,2.13-2.58,4.24-3.86,6.37a.63.63,0,0,1-.62.37c-3.32-.05-6.64-.07-10-.11l-.33,0,2.93-1.9-1.42-2.61c-1-1.89-2-3.79-3.12-5.65a10,10,0,0,0-5.13-4.64h2.29c.35,0,.7-.05,1.05-.08Z" style="fill:#fff"></path><path d="M328.67,370.49l3.35-6.68L329,361.4l.47,0,10.16-.07a.62.62,0,0,1,.65.39c1.66,3.11,3.35,6.21,5,9.31a3.53,3.53,0,0,1,.17.39l-3.11-1.68-1.74,2.84-2.2,3.6a.58.58,0,0,1-.63.35,40.32,40.32,0,0,1-4.27-.39,6,6,0,0,1-4.73-4.26.37.37,0,0,0-.07-.12Z" style="fill:#fff"></path><path d="M375.54,371.9c-.87,2.82-3.2,3.69-5.73,4.18a24.45,24.45,0,0,1-3.63.29.71.71,0,0,1-.56-.29c-1.56-2.84-3.09-5.7-4.63-8.56a2.22,2.22,0,0,1-.11-.25l10-6.13.81,1.6c1.1,2.16,2.2,4.31,3.29,6.47.2.39.35.79.52,1.19Z" style="fill:#fff"></path><path d="M358.62,373.79c.05,1,.11,1.92.14,2.89,0,.38.09.54.53.54,2.66,0,5.33,0,8,0a11.32,11.32,0,0,0,4.88-.92c.82-.4,1.57-.94,2.32-1.4-.19.38-.43.84-.67,1.29-1.76,3.3-3.53,6.61-5.3,9.9a5.25,5.25,0,0,1-4.84,2.88c-1.63,0-3.25,0-5,0v3.68l-.17,0-1.23-2.24c-1.26-2.31-2.53-4.62-3.78-6.94a.79.79,0,0,1,0-.62c1.63-3,3.29-5.95,4.94-8.93a1.88,1.88,0,0,1,.12-.18Z" style="fill:#fff"></path><path d="M329.53,374.72a9,9,0,0,0,6.66,2.39c4.3,0,8.59,0,12.89.06a5.88,5.88,0,0,1,.68.06V389l-.28,0c-2.83,0-5.65,0-8.48,0a6.44,6.44,0,0,1-4.48-1.6,2.85,2.85,0,0,1-.54-.7c-2.11-3.87-4.21-7.76-6.32-11.64C329.61,374.91,329.57,374.81,329.53,374.72Z" style="fill:#fff"></path><path d="M346.77,361.88l-10.11-6,.92-1.43c1.42-2.19,2.83-4.38,4.26-6.56a3.7,3.7,0,0,1,4-1.36,6.91,6.91,0,0,1,2.83,1.68,15.47,15.47,0,0,1,3.34,4.6.62.62,0,0,1,0,.5q-2.54,4.17-5.11,8.34Z" style="fill:#fff"></path><path d="M343.28,402.46v.83h-1v-.89c0-.87-.35-1.4-1.14-1.4s-1.14.53-1.14,1.4v5.16c0,.87.36,1.4,1.14,1.4s1.14-.53,1.14-1.4v-1.95h-1v-1h2v2.87c0,1.48-.7,2.45-2.2,2.45s-2.19-1-2.19-2.45v-5c0-1.48.7-2.45,2.19-2.45S343.28,401,343.28,402.46Z" style="fill:#fff"></path><path d="M344.31,409.85V400.1h1.09v8.77h2.79v1Z" style="fill:#fff"></path><path d="M350.11,407.89l-.38,2h-1l1.87-9.75h1.57l1.87,9.75H353l-.38-2Zm.14-.93h2.17l-1.1-5.63Z" style="fill:#fff"></path><path d="M359.11,402.44v.27h-1v-.32c0-.88-.34-1.39-1.12-1.39s-1.11.51-1.11,1.37c0,2.19,3.27,2.4,3.27,5.14,0,1.48-.71,2.44-2.2,2.44s-2.19-1-2.19-2.44V407h1v.61c0,.88.36,1.39,1.14,1.39s1.15-.51,1.15-1.39c0-2.17-3.26-2.38-3.26-5.13,0-1.5.69-2.43,2.16-2.43S359.11,401,359.11,402.44Z" style="fill:#fff"></path><path d="M364.29,402.44v.27h-1v-.32c0-.88-.33-1.39-1.11-1.39s-1.12.51-1.12,1.37c0,2.19,3.28,2.4,3.28,5.14,0,1.48-.72,2.44-2.21,2.44s-2.18-1-2.18-2.44V407h1v.61c0,.88.37,1.39,1.15,1.39s1.14-.51,1.14-1.39c0-2.17-3.26-2.38-3.26-5.13,0-1.5.7-2.43,2.16-2.43S364.29,401,364.29,402.44Z" style="fill:#fff"></path></g><g id="freepik--waste-bin-2--inject-47"><path d="M215.64,455.24h0a2.62,2.62,0,0,1-2.63-2.62V442.47a2.63,2.63,0,0,1,2.63-2.63h0a2.63,2.63,0,0,1,2.62,2.63v10.15A2.62,2.62,0,0,1,215.64,455.24Z" style="fill:#263238;stroke:#263238;stroke-miterlimit:10"></path><path d="M279.49,455.24h0a2.62,2.62,0,0,1-2.62-2.62V442.47a2.62,2.62,0,0,1,2.62-2.63h0a2.62,2.62,0,0,1,2.62,2.63v10.15A2.62,2.62,0,0,1,279.49,455.24Z" style="fill:#263238;stroke:#263238;stroke-miterlimit:10"></path><path d="M219,444.22v5.65a5.13,5.13,0,0,0,5.13,5.13h47.47a5.13,5.13,0,0,0,5.13-5.13v-5.65a4,4,0,0,1,4-4h1.39a3.23,3.23,0,0,0,3.23-3L294.5,324h-92l9.17,113.22a3.25,3.25,0,0,0,3.24,3h0A4,4,0,0,1,219,444.22Z" style="fill:#407BFF;stroke:#263238;stroke-miterlimit:10"></path><rect x="206.36" y="320.18" width="86.07" height="3.85" style="fill:#407BFF;stroke:#263238;stroke-miterlimit:10"></rect><rect x="199.86" y="323.15" width="97.61" height="9.17" style="fill:#407BFF;stroke:#263238;stroke-miterlimit:10"></rect><path d="M256.67,345.93a6,6,0,0,1,2.45,1.28,9,9,0,0,1,1.39,1.74c.82,1.39,1.56,2.84,2.36,4.31l3.26-1.68.05.05-1.56,2.58c-1.28,2.13-2.57,4.24-3.85,6.37a.63.63,0,0,1-.62.37c-3.32-.05-6.65-.07-10-.11l-.33,0,2.93-1.9c-.49-.89-.95-1.75-1.42-2.61-1-1.89-2-3.79-3.12-5.65A10,10,0,0,0,243.1,346h2.3c.35,0,.7-.05,1-.08Z" style="fill:#fff"></path><path d="M225.17,370.49l3.34-6.68-3.07-2.41.48,0,10.16-.07a.62.62,0,0,1,.65.39q2.49,4.66,5,9.31c.05.09.08.19.17.39l-3.11-1.68-1.74,2.84c-.74,1.2-1.48,2.4-2.2,3.6a.58.58,0,0,1-.63.35,40.51,40.51,0,0,1-4.28-.39,6,6,0,0,1-4.72-4.26.37.37,0,0,0-.07-.12Z" style="fill:#fff"></path><path d="M272,371.9c-.87,2.82-3.2,3.69-5.74,4.18a24.24,24.24,0,0,1-3.63.29.71.71,0,0,1-.55-.29q-2.34-4.26-4.64-8.56l-.11-.25,10-6.13.82,1.6c1.1,2.16,2.2,4.31,3.29,6.47.19.39.35.79.52,1.19Z" style="fill:#fff"></path><path d="M255.11,373.79c0,1,.12,1.92.15,2.89,0,.38.09.54.52.54,2.67,0,5.34,0,8,0a11.32,11.32,0,0,0,4.88-.92c.82-.4,1.57-.94,2.32-1.4-.2.38-.43.84-.67,1.29-1.77,3.3-3.53,6.61-5.3,9.9a5.27,5.27,0,0,1-4.85,2.88c-1.62,0-3.24,0-5,0v3.68l-.17,0-1.23-2.24c-1.26-2.31-2.53-4.62-3.78-6.94a.75.75,0,0,1,0-.62q2.44-4.47,4.93-8.93l.13-.18Z" style="fill:#fff"></path><path d="M226,374.72a9,9,0,0,0,6.67,2.39c4.3,0,8.59,0,12.88.06a5.52,5.52,0,0,1,.68.06V389l-.27,0c-2.83,0-5.66,0-8.48,0a6.44,6.44,0,0,1-4.48-1.6,2.85,2.85,0,0,1-.54-.7c-2.11-3.87-4.21-7.76-6.32-11.64Z" style="fill:#fff"></path><path d="M243.27,361.88l-10.11-6c.32-.49.61-1,.92-1.43,1.42-2.19,2.83-4.38,4.26-6.56a3.7,3.7,0,0,1,4-1.36,6.91,6.91,0,0,1,2.83,1.68,15.47,15.47,0,0,1,3.34,4.6.62.62,0,0,1,0,.5l-5.11,8.34Z" style="fill:#fff"></path><path d="M235.4,400.1c1.54,0,2.19.91,2.19,2.39v1.17c0,1.54-.72,2.35-2.27,2.35h-1v3.84h-1.09V400.1Zm-.08,4.94c.81,0,1.2-.38,1.2-1.31v-1.3c0-.89-.32-1.34-1.12-1.34h-1v4Z" style="fill:#fff"></path><path d="M238.44,409.85V400.1h1.09v8.77h2.78v1Z" style="fill:#fff"></path><path d="M244.24,407.89l-.38,2h-1l1.87-9.75h1.57l1.87,9.75h-1.09l-.38-2Zm.14-.93h2.17l-1.1-5.63Z" style="fill:#fff"></path><path d="M253.24,402.44v.27h-1v-.32c0-.88-.34-1.39-1.12-1.39s-1.11.51-1.11,1.37c0,2.19,3.27,2.4,3.27,5.14,0,1.48-.71,2.44-2.2,2.44s-2.19-1-2.19-2.44V407h1v.61c0,.88.36,1.39,1.14,1.39s1.14-.51,1.14-1.39c0-2.17-3.25-2.38-3.25-5.13,0-1.5.69-2.43,2.15-2.43S253.24,401,253.24,402.44Z" style="fill:#fff"></path><path d="M255.61,409.85v-8.76h-1.8v-1h4.67v1h-1.8v8.76Z" style="fill:#fff"></path><path d="M260.3,400.1v9.75h-1.09V400.1Z" style="fill:#fff"></path><path d="M265.72,402.46v.88h-1v-.94c0-.87-.35-1.4-1.14-1.4s-1.14.53-1.14,1.4v5.16c0,.87.36,1.4,1.14,1.4s1.14-.53,1.14-1.4v-1.27h1v1.21c0,1.48-.7,2.45-2.2,2.45s-2.19-1-2.19-2.45v-5c0-1.48.7-2.45,2.19-2.45S265.72,401,265.72,402.46Z" style="fill:#fff"></path></g><g id="freepik--waste-bin-1--inject-47"><path d="M110.17,455.24h0a2.62,2.62,0,0,1-2.63-2.62V442.47a2.63,2.63,0,0,1,2.63-2.63h0a2.62,2.62,0,0,1,2.62,2.63v10.15A2.62,2.62,0,0,1,110.17,455.24Z" style="fill:#263238;stroke:#263238;stroke-miterlimit:10"></path><path d="M174,455.24h0a2.62,2.62,0,0,1-2.62-2.62V442.47a2.62,2.62,0,0,1,2.62-2.63h0a2.63,2.63,0,0,1,2.63,2.63v10.15A2.62,2.62,0,0,1,174,455.24Z" style="fill:#263238;stroke:#263238;stroke-miterlimit:10"></path><path d="M113.49,444.22v5.65a5.13,5.13,0,0,0,5.13,5.13h47.47a5.12,5.12,0,0,0,5.13-5.13v-5.65a4,4,0,0,1,4-4h1.38a3.25,3.25,0,0,0,3.24-3L189,324h-92l9.18,113.22a3.23,3.23,0,0,0,3.23,3h0A4,4,0,0,1,113.49,444.22Z" style="fill:#263238;stroke:#263238;stroke-miterlimit:10"></path><rect x="100.9" y="320.18" width="86.07" height="3.85" style="fill:#263238;stroke:#263238;stroke-miterlimit:10"></rect><rect x="94.4" y="323.15" width="97.61" height="9.17" style="fill:#263238;stroke:#263238;stroke-miterlimit:10"></rect><path d="M151.2,345.93a5.89,5.89,0,0,1,2.45,1.28A8.64,8.64,0,0,1,155,349c.82,1.39,1.56,2.84,2.36,4.31l3.26-1.68.05.05-1.55,2.58c-1.29,2.13-2.58,4.24-3.86,6.37a.63.63,0,0,1-.62.37c-3.32-.05-6.65-.07-10-.11l-.33,0,2.93-1.9-1.42-2.61c-1-1.89-2-3.79-3.12-5.65a10,10,0,0,0-5.13-4.64h2.29c.35,0,.7-.05,1-.08Z" style="fill:#fff"></path><path d="M119.7,370.49l3.35-6.68L120,361.4l.47,0,10.16-.07a.62.62,0,0,1,.65.39c1.66,3.11,3.35,6.21,5,9.31a3.53,3.53,0,0,1,.17.39l-3.11-1.68-1.74,2.84-2.2,3.6a.58.58,0,0,1-.63.35,40.75,40.75,0,0,1-4.28-.39,6,6,0,0,1-4.72-4.26.37.37,0,0,0-.07-.12Z" style="fill:#fff"></path><path d="M166.57,371.9c-.87,2.82-3.2,3.69-5.73,4.18a24.45,24.45,0,0,1-3.63.29.71.71,0,0,1-.56-.29c-1.56-2.84-3.09-5.7-4.63-8.56a2.22,2.22,0,0,1-.11-.25l10-6.13.81,1.6c1.1,2.16,2.2,4.31,3.29,6.47.2.39.35.79.52,1.19Z" style="fill:#fff"></path><path d="M149.65,373.79c0,1,.11,1.92.14,2.89,0,.38.09.54.52.54,2.67,0,5.34,0,8,0a11.32,11.32,0,0,0,4.88-.92c.82-.4,1.57-.94,2.32-1.4-.2.38-.43.84-.67,1.29-1.76,3.3-3.53,6.61-5.3,9.9a5.25,5.25,0,0,1-4.84,2.88c-1.63,0-3.25,0-5,0v3.68l-.17,0-1.23-2.24c-1.26-2.31-2.53-4.62-3.78-6.94a.79.79,0,0,1,0-.62c1.63-3,3.29-5.95,4.94-8.93a1.88,1.88,0,0,1,.12-.18Z" style="fill:#fff"></path><path d="M120.56,374.72a9,9,0,0,0,6.66,2.39c4.3,0,8.59,0,12.89.06a5.88,5.88,0,0,1,.68.06V389l-.28,0c-2.83,0-5.65,0-8.48,0a6.44,6.44,0,0,1-4.48-1.6,2.85,2.85,0,0,1-.54-.7c-2.11-3.87-4.21-7.76-6.32-11.64C120.64,374.91,120.6,374.81,120.56,374.72Z" style="fill:#fff"></path><path d="M137.8,361.88l-10.11-6,.92-1.43c1.42-2.19,2.83-4.38,4.26-6.56a3.7,3.7,0,0,1,4-1.36,6.91,6.91,0,0,1,2.83,1.68,15.47,15.47,0,0,1,3.34,4.6.62.62,0,0,1,0,.5q-2.54,4.17-5.11,8.34Z" style="fill:#fff"></path><path d="M132.87,400.1c1.53,0,2.19.91,2.19,2.39v1.17c0,1.54-.73,2.35-2.27,2.35h-1v3.84h-1.09V400.1Zm-.08,4.94c.81,0,1.2-.38,1.2-1.31v-1.3c0-.89-.32-1.34-1.12-1.34h-1v4Z" style="fill:#fff"></path><path d="M136.83,407.89l-.38,2h-1l1.87-9.75h1.57l1.87,9.75h-1.09l-.38-2ZM137,407h2.17l-1.1-5.63Z" style="fill:#fff"></path><path d="M143.74,400.1c1.53,0,2.19.91,2.19,2.39v1.17c0,1.54-.73,2.35-2.27,2.35h-1v3.84h-1.08V400.1Zm-.08,4.94c.8,0,1.19-.38,1.19-1.31v-1.3c0-.89-.32-1.34-1.11-1.34h-1.05v4Z" style="fill:#fff"></path><path d="M150.24,404.42v1h-2.38v3.47h2.93v1h-4V400.1h4v1h-2.93v3.33Z" style="fill:#fff"></path><path d="M154,400.1c1.54,0,2.18.78,2.18,2.23v.8c0,1.07-.38,1.74-1.21,2,.89.27,1.22,1,1.22,2v1.51a2.43,2.43,0,0,0,.2,1.17h-1.1a2.47,2.47,0,0,1-.18-1.18v-1.53c0-1.1-.52-1.45-1.43-1.45h-.76v4.16h-1.09V400.1Zm-.27,4.6c.86,0,1.38-.28,1.38-1.34v-.93c0-.88-.33-1.34-1.13-1.34h-1.06v3.61Z" style="fill:#fff"></path></g><g id="freepik--Floor--inject-47"><line x1="462" y1="455.24" x2="486" y2="455.24" style="fill:none;stroke:#263238;stroke-linecap:round;stroke-linejoin:round"></line><line x1="27" y1="455.24" x2="455" y2="455.24" style="fill:none;stroke:#263238;stroke-linecap:round;stroke-linejoin:round"></line></g></svg>